<svg width="61" height="25" viewBox="0 0 61 25" fill="none" xmlns="http://www.w3.org/2000/svg">
<path fill-rule="evenodd" clip-rule="evenodd" d="M21.852 10.0127L21.8481 10.0953L21.8442 10.1759L21.8324 10.2584L21.8167 10.341L21.797 10.4196L21.7793 10.4943L21.7538 10.5729L21.7243 10.6417L21.6909 10.7164L21.6574 10.7852L21.6181 10.854L21.5749 10.9189L21.5297 10.9818L21.4805 11.0447L21.4314 11.1017L21.3764 11.1567L21.3194 11.2137L21.2643 11.2609L21.1995 11.31L21.1366 11.3552L21.0737 11.3945L21.0049 11.4358L20.9341 11.4692L20.8633 11.5026L20.7886 11.5341L20.7139 11.5596L20.6353 11.5773L20.5567 11.595L20.4741 11.6107L20.3916 11.6206L20.309 11.6245L20.2265 11.6284H20.1872L20.1439 11.6245L20.1066 11.6166L20.0692 11.6088L20.0319 11.6009L19.9945 11.5891L19.9572 11.5773L19.9238 11.5616L19.853 11.5282L19.7881 11.4869L19.7292 11.4417L19.6741 11.3906L19.625 11.3336L19.5798 11.2746L19.5405 11.2078L19.5051 11.141L19.4795 11.0702L19.4599 10.9994L19.454 10.9601L19.4501 10.9248L19.4461 10.8835V10.7754L19.454 10.7164L19.4658 10.6594L19.4815 10.6103L19.4972 10.567L19.5169 10.5277L19.5346 10.4923L19.5523 10.4628L19.5916 10.398L19.627 10.3351L19.6427 10.3017L19.6506 10.2623L19.6584 10.2191L19.6624 10.1719L19.6584 10.1385L19.6545 10.0992L19.6427 10.0678L19.6309 10.0343L19.6152 10.0009L19.5955 9.96947L19.5759 9.93999L19.5523 9.91443L19.5248 9.89281L19.4953 9.86923L19.4658 9.85154L19.4363 9.83581L19.4029 9.82402L19.3636 9.81222L19.3321 9.80829L19.2928 9.80436L19.2299 9.80829L19.1709 9.81615L19.1139 9.83188L19.0589 9.85154L19.0058 9.87709L18.9567 9.90657L18.9095 9.94195L18.8682 9.97733L18.8289 10.0225L18.7975 10.0678L18.766 10.1149L18.7405 10.168L18.7208 10.223L18.7071 10.28L18.6992 10.339L18.6953 10.4019V14.5827L18.6992 14.6122L18.7071 14.6358L18.7189 14.6555L18.7346 14.6751L18.7523 14.6928L18.7739 14.7085L18.7975 14.7164L18.8171 14.7243L19.2299 14.8461L19.2535 14.854L19.2791 14.8658L19.3026 14.8776L19.3223 14.8972L19.342 14.9169L19.3596 14.9326L19.3675 14.9601L19.3714 14.9857V15.3513L19.3596 15.3768L19.3479 15.4004L19.3321 15.4181L19.3085 15.4378L19.2869 15.4496L19.2614 15.4614H16.537L16.5095 15.4496L16.4879 15.4378L16.4643 15.4181L16.4486 15.3985L16.4329 15.3768L16.425 15.3513L16.4211 15.3218V13.4348L16.2717 13.5881L16.1066 13.7533L15.9277 13.9302L15.737 14.1149L15.5346 14.2958L15.3282 14.4825L15.1159 14.6692L14.9017 14.8442L14.7936 14.9307L14.6854 15.0112L14.5773 15.0938L14.4712 15.1685L14.367 15.2432L14.2609 15.31L14.1567 15.3729L14.0565 15.4319L13.9582 15.485L13.8599 15.5341L13.7675 15.5734L13.6771 15.6088L13.5867 15.6343L13.5022 15.656L13.4235 15.6678L13.3449 15.6717L13.2663 15.6678L13.1916 15.6599L13.1248 15.6481L13.0599 15.6304L13.0009 15.6088L12.9439 15.5852L12.8909 15.5557L12.8417 15.5243L12.7985 15.4889L12.7572 15.4515L12.7179 15.4142L12.6825 15.3749L12.6137 15.2884L12.5508 15.1999L12.4879 15.1095L12.4289 15.023L12.3975 14.9857L12.3641 14.9464L12.3307 14.9071L12.2953 14.8756L12.2599 14.8422L12.2167 14.8147L12.1773 14.7891L12.1321 14.7655L12.083 14.7478L12.0299 14.7361L11.9749 14.7282L11.9159 14.7243L11.8628 14.7282L11.8137 14.7361L11.7646 14.7478L11.7194 14.7675L11.6761 14.7891L11.6348 14.8147L11.5936 14.8422L11.5503 14.8756L11.3832 15.023L11.1867 15.1999L11.1356 15.2432L11.0766 15.2884L11.0176 15.3297L10.9488 15.3749L10.8781 15.4142L10.8034 15.4535L10.7248 15.4889L10.6383 15.5243L10.5439 15.5557L10.4437 15.5872L10.3375 15.6088L10.2255 15.6324L10.1036 15.6501L9.97586 15.6619L9.83827 15.6697L9.69085 15.6736L9.52967 15.6697L9.36849 15.654L9.21124 15.6304L9.05793 15.597L8.90461 15.5577L8.75523 15.5066L8.60977 15.4515L8.46825 15.3886L8.32869 15.3139L8.19306 15.2353L8.06333 15.1508L7.93557 15.0525L7.81174 14.9542L7.6938 14.8442L7.57586 14.7321L7.46776 14.6142L7.36358 14.4864L7.2653 14.3528L7.17292 14.2191L7.08643 14.0776L7.00387 13.9282L6.92525 13.7749L6.85842 13.6176L6.79355 13.4604L6.73852 13.2953L6.68938 13.1243L6.64417 12.9513L6.61075 12.7764L6.5852 12.5994L6.56161 12.4166L6.54982 12.2299L6.54589 12.0432L6.54982 11.8565L6.56161 11.6697L6.5852 11.4889L6.61075 11.312L6.64417 11.1351L6.68938 10.9621L6.73852 10.795L6.79355 10.6319L6.85842 10.4707L6.92525 10.3135L7.00387 10.1621L7.08643 10.0127L7.17292 9.87119L7.2653 9.7336L7.36358 9.60387L7.46776 9.47611L7.57586 9.35424L7.6938 9.2422L7.81174 9.13409L7.93557 9.02991L8.06333 8.93556L8.19306 8.84711L8.32869 8.76849L8.46628 8.6938L8.60977 8.6309L8.75523 8.57193L8.90461 8.52279L9.05793 8.48348L9.21124 8.45203L9.36849 8.43041L9.52967 8.41468L9.69085 8.40682L9.82058 8.41075L9.94638 8.41861L10.0604 8.43041L10.1744 8.4422L10.2786 8.45989L10.3788 8.47955L10.4732 8.5051L10.5655 8.52672L10.6501 8.5562L10.7307 8.58765L10.8093 8.61714L10.882 8.65055L10.9488 8.68397L11.0157 8.72131L11.0746 8.75473L11.1356 8.79208L11.338 8.92967L11.5031 9.05154L11.5778 9.10067L11.6447 9.13802L11.6781 9.15375L11.7135 9.16357L11.7429 9.16751L11.7764 9.17144H11.8137L11.851 9.16357L11.8845 9.15375L11.9139 9.14195L11.9454 9.12623L11.971 9.10264L11.9926 9.08102L12.0162 9.0535L12.0358 9.02795L12.0535 8.99453L12.0692 8.96112L12.085 8.92377L12.1105 8.84515L12.1302 8.7567L12.138 8.72918L12.1538 8.70362L12.1695 8.682L12.1872 8.66235L12.2088 8.64662L12.2383 8.63483L12.2697 8.62697L12.2992 8.62303H14.5262L14.5518 8.62697L14.5773 8.63483L14.6009 8.64662L14.6225 8.66431L14.6383 8.682L14.654 8.70362L14.6619 8.72918V9.1223L14.6501 9.14392L14.6343 9.16751L14.6147 9.1852L14.5931 9.20092L14.5695 9.21665L14.5479 9.22451L14.5262 9.23237L14.1095 9.35424L14.0879 9.3621L14.0643 9.37193L14.0427 9.38765L14.025 9.40338L14.0093 9.42107L13.9975 9.44269L13.9896 9.46628L13.9857 9.49183V13.1872L13.9896 13.2324L13.9975 13.2776L14.0093 13.3169L14.027 13.3582L14.0466 13.3975L14.0722 13.4329L14.1017 13.4663L14.1311 13.4977L14.1665 13.5272L14.2039 13.5528L14.2432 13.5744L14.2864 13.594L14.3257 13.6078L14.3709 13.6196L14.4162 13.6275H14.5066L14.5518 13.6196L14.599 13.6078L14.652 13.5921L14.7051 13.5744L14.7601 13.5528L14.8191 13.5272L14.8781 13.4977L14.9999 13.4289L15.1316 13.3562L15.2614 13.2658L15.397 13.1734L15.5346 13.0751L15.6741 12.9709L15.8078 12.8628L15.9434 12.7567L16.199 12.5424L16.423 12.3459V9.70805L16.4191 9.67856L16.4112 9.65301L16.4034 9.62942L16.3877 9.6078L16.3759 9.58618L16.3562 9.57045L16.3424 9.5508L16.3228 9.53507L16.3031 9.52328L16.2795 9.51149L16.2579 9.50362L16.2343 9.49969L16.2088 9.49183H16.1813L16.1557 9.4879L16.1282 9.49183L16.1026 9.49576L16.0791 9.50362L16.0574 9.51542L16.0181 9.53507L15.9827 9.56652L15.9415 9.59208L15.8963 9.61959L15.8707 9.62746L15.8393 9.63532L15.8078 9.64318H15.7311L15.6977 9.63532L15.6643 9.62746L15.6348 9.61566L15.6053 9.59994L15.5798 9.58028L15.5523 9.56063L15.5307 9.54097L15.511 9.51542L15.4913 9.48987L15.4815 9.46235L15.4658 9.43679L15.4579 9.40731L15.4501 9.37979L15.4461 9.35031L15.4422 9.32082L15.4461 9.29527L15.4501 9.26382L15.4579 9.23237L15.4697 9.19699L15.4795 9.16554L15.4992 9.13016L15.5169 9.09281L15.5366 9.05547L15.5621 9.01812L15.5877 8.98274L15.6171 8.9395L15.6506 8.90411L15.6859 8.8648L15.7233 8.82942L15.7626 8.79011L15.8058 8.75473L15.8491 8.71542L15.8982 8.68397L15.9474 8.65055L16.0004 8.62107L16.0515 8.58569L16.1085 8.56014L16.1636 8.53065L16.2284 8.50903L16.2874 8.48544L16.3523 8.46382L16.4191 8.4481L16.4859 8.43237L16.5567 8.41665L16.6294 8.40878L16.7041 8.40485L16.7788 8.40092L16.9066 8.40485L17.0206 8.41271L17.1307 8.42844L17.2309 8.4481L17.3253 8.47365L17.4117 8.50117L17.4904 8.53065L17.5651 8.568L17.6319 8.60534L17.6909 8.64466L17.7498 8.68593L17.797 8.73114L17.8461 8.78028L17.8854 8.82746L17.9248 8.87267L17.9621 8.92377L18.08 9.11444L18.1901 9.27954L18.2157 9.31493L18.2451 9.34638L18.2766 9.37586L18.3061 9.39748L18.3434 9.41714L18.3808 9.4309L18.4221 9.43876L18.4673 9.44269L18.5066 9.43876L18.5459 9.4309L18.5832 9.41517L18.6206 9.39748L18.654 9.37586L18.6913 9.34638L18.7248 9.31493L18.7582 9.27954L18.8958 9.11444L19.053 8.92377L19.0982 8.87267L19.1434 8.82746L19.1926 8.78028L19.2496 8.73114L19.3046 8.68593L19.3636 8.64662L19.4284 8.60534L19.4953 8.56603L19.568 8.53065L19.6466 8.50117L19.7272 8.47365L19.8176 8.4481L19.91 8.42844L20.0083 8.41271L20.1164 8.40485L20.2284 8.40092L20.313 8.40485L20.3936 8.40878L20.4761 8.42058L20.5587 8.4363L20.6373 8.45399L20.7159 8.47365L20.7906 8.4992L20.8653 8.52672L20.938 8.55817L21.0088 8.59355L21.0756 8.63286L21.1385 8.67414L21.2014 8.71935L21.2663 8.76456L21.3213 8.81566L21.3803 8.86874L21.4353 8.92377L21.4845 8.98077L21.5316 9.03974L21.5768 9.10264L21.6221 9.16947L21.6594 9.2363L21.6928 9.3051L21.7262 9.37586L21.7557 9.45055L21.7832 9.52328L21.8009 9.6019L21.8206 9.68053L21.8363 9.75915L21.8481 9.84171L21.852 9.9223V10.0127ZM11.7174 10.9248L11.7135 10.8854L11.7095 10.8402L11.6977 10.799L11.6879 10.7596L11.6722 10.7125L11.6525 10.6732L11.6329 10.6299L11.6093 10.5906L11.5837 10.5493L11.5523 10.51L11.5208 10.4746L11.4854 10.4353L11.452 10.3999L11.4127 10.3626L11.3714 10.3292L11.3302 10.2997L11.285 10.2663L11.2397 10.2368L11.1945 10.2073L11.1454 10.1798L11.0963 10.1542L11.0452 10.1307L10.9921 10.109L10.939 10.0913L10.8879 10.0717L10.8348 10.056L10.7778 10.0402L10.7267 10.0284L10.6697 10.0206L10.6147 10.0127L10.5616 10.0088H10.4044L10.3061 10.0166L10.2137 10.0324L10.1194 10.0481L10.0289 10.0697L9.94245 10.0953L9.85793 10.1267L9.77537 10.1601L9.69675 10.1975L9.62206 10.2407L9.54736 10.2859L9.4766 10.339L9.4078 10.3901L9.34097 10.4491L9.28201 10.512L9.22107 10.5768L9.16604 10.6476L9.11296 10.7184L9.06382 10.7931L9.01468 10.8736L8.97537 10.9562L8.9341 11.0388L8.89871 11.1272L8.8653 11.2176L8.83975 11.3159L8.81419 11.4063L8.79061 11.5085L8.77095 11.6088L8.76112 11.713L8.74933 11.8211L8.74147 11.9292V12.1493L8.74933 12.2574L8.76112 12.3655L8.77095 12.4697L8.79061 12.57L8.81419 12.6702L8.83975 12.7685L8.8653 12.8609L8.89871 12.9533L8.9341 13.0397L8.97341 13.1243L9.01468 13.2107L9.06382 13.2894L9.11296 13.3641L9.16604 13.4368L9.22107 13.5095L9.28004 13.5764L9.33901 13.6353L9.4078 13.6943L9.4766 13.7513L9.54736 13.8024L9.62206 13.8476L9.69675 13.8928L9.77537 13.9321L9.85793 13.9675L9.94245 13.997L10.0289 14.0225L10.1194 14.0461L10.2137 14.0619L10.3061 14.0776L10.4044 14.0854H10.5616L10.6147 14.0815L10.6697 14.0736L10.7267 14.0658L10.7778 14.056L10.8348 14.0402L10.8879 14.0245L10.939 14.0049L10.9921 13.9852L11.0452 13.9655L11.0963 13.942L11.1454 13.9164L11.1945 13.8889L11.2397 13.8594L11.285 13.8299L11.3302 13.8004L11.3695 13.767L11.4108 13.7336L11.452 13.6943L11.4854 13.6589L11.5208 13.6196L11.5523 13.5842L11.5837 13.5469L11.6093 13.5056L11.6309 13.4663L11.6545 13.423L11.6722 13.3837L11.6879 13.3424L11.6977 13.2972L11.7095 13.2579L11.7135 13.2107L11.7174 13.1714V10.9248ZM22.5557 13.1813L22.5596 13.3424L22.5695 13.4997L22.5891 13.6471L22.6166 13.7886L22.6461 13.9223L22.6854 14.0501L22.7326 14.1719L22.7798 14.2879L22.8368 14.396L22.8958 14.4943L22.9606 14.5926L23.0314 14.683L23.1061 14.7675L23.1808 14.8461L23.2633 14.9208L23.3459 14.9877L23.4324 15.0506L23.5208 15.1076L23.6112 15.1587L23.7056 15.2078L23.798 15.253L23.8923 15.2904L23.9867 15.3277L24.085 15.3572L24.1773 15.3827L24.2756 15.4044L24.368 15.424L24.4604 15.4397L24.5508 15.4515L24.6452 15.4594L24.7316 15.4633H29.5788L29.6751 15.4555L29.7734 15.4437L29.8717 15.4279L29.9641 15.4103L30.0623 15.3847L30.1547 15.3592L30.2452 15.3257L30.3336 15.2864L30.424 15.251L30.5105 15.2058L30.5931 15.1567L30.6737 15.1056L30.7523 15.0486L30.8309 14.9896L30.9017 14.9267L30.9744 14.8599L31.0412 14.7891L31.1061 14.7184L31.1651 14.6397L31.2201 14.5572L31.2732 14.4766L31.3223 14.3862L31.3675 14.2977L31.4049 14.2034L31.4383 14.1051L31.4678 14.0068L31.4933 13.9026L31.513 13.7985L31.5267 13.6904L31.5346 13.5783L31.5385 13.4623L31.5307 13.2913L31.5051 13.1341L31.4678 12.9847L31.4147 12.851L31.3479 12.7213L31.2732 12.6053L31.1827 12.4933L31.0845 12.3891L30.9803 12.2967L30.8682 12.2063L30.7503 12.1257L30.6206 12.0471L30.4948 11.9724L30.3592 11.9056L30.2255 11.8388L30.0899 11.7739L29.8206 11.6599L29.5592 11.542L29.4353 11.4889L29.3154 11.4299L29.1994 11.3709L29.0953 11.308L28.997 11.2491L28.9105 11.1822L28.8319 11.1115L28.7651 11.0368L28.712 10.9582L28.6746 10.8736L28.6491 10.7832L28.6412 10.685L28.6452 10.6456V10.6063L28.653 10.569L28.6609 10.5356L28.6727 10.5021L28.6884 10.4687L28.7041 10.4392L28.7198 10.4098L28.7395 10.3822L28.7611 10.3567L28.7847 10.3311L28.8103 10.3076L28.8358 10.2879L28.8633 10.2643L28.8928 10.2447L28.9262 10.225L28.9931 10.1955L29.0678 10.166L29.1464 10.1444L29.2289 10.1248L29.3154 10.113L29.4098 10.1031L29.5022 10.0992L29.6004 10.0953L29.6791 10.0992L29.7577 10.1031L29.8363 10.113L29.9228 10.1248L30.0034 10.1444L30.0899 10.1621L30.1724 10.1837L30.2589 10.2112L30.3415 10.2407L30.4221 10.2702L30.5007 10.3036L30.5793 10.337L30.656 10.3764L30.7228 10.4157L30.7896 10.455L30.8486 10.4982L30.8682 10.51L30.8879 10.5218L30.9036 10.5257L30.9233 10.5297L30.939 10.5336L30.9547 10.5297L30.9744 10.5257L30.9842 10.5218L31.0117 10.5061L31.0334 10.4825L31.053 10.4609L31.0628 10.4373L31.7783 8.80977L31.7862 8.78028L31.7901 8.7508L31.7862 8.72131L31.7744 8.68987L31.7626 8.67414L31.7547 8.66235L31.739 8.65055L31.7272 8.63876L31.7095 8.6309L31.6938 8.62303L31.6741 8.6191H28.3051L28.2206 8.62303L28.138 8.62697L28.0515 8.63876L27.969 8.65841L27.8904 8.67807L27.8078 8.69773L27.7292 8.72918L27.6506 8.75866L27.5759 8.79208L27.5012 8.83335L27.4304 8.87267L27.3596 8.91984L27.2928 8.96701L27.228 9.02009L27.1651 9.07709L27.1061 9.13606L27.0471 9.19502L26.9881 9.25792L26.941 9.32672L26.8879 9.39355L26.8427 9.46824L26.8034 9.539L26.7601 9.61763L26.7267 9.69036L26.6933 9.77291L26.6678 9.85547L26.6402 9.93606L26.6225 10.0225L26.6068 10.109L26.595 10.1936L26.5872 10.284L26.5832 10.3764L26.5911 10.5474L26.6147 10.7125L26.6481 10.8599L26.6933 10.9975L26.7483 11.1252L26.8171 11.2432L26.8958 11.3552L26.9783 11.4574L27.0707 11.5498L27.169 11.6363L27.2732 11.7169L27.3832 11.7916L27.4953 11.8623L27.6073 11.9292L27.7252 11.9921L27.8432 12.051L28.0791 12.169L28.3031 12.285L28.4112 12.3439L28.5154 12.4029L28.6137 12.4658L28.7061 12.5346L28.7926 12.6034L28.8673 12.6781L28.9361 12.7567L28.9911 12.8471L29.0363 12.9395L29.0697 13.0397L29.0933 13.1478L29.1012 13.2638V13.313L29.0972 13.3562L29.0894 13.4053L29.0815 13.4486L29.0697 13.4938L29.0579 13.539L29.0422 13.5842L29.0265 13.6235L29.0068 13.6668L28.9832 13.7061L28.9616 13.7474L28.938 13.7867L28.9125 13.8221L28.883 13.8555L28.8535 13.8889L28.8221 13.9243L28.7906 13.9557L28.7552 13.9872L28.7198 14.0127L28.6805 14.0383L28.6432 14.0638L28.6039 14.0874L28.5626 14.109L28.5154 14.1287L28.4722 14.1483L28.427 14.1621L28.3778 14.1739L28.3326 14.1857L28.2815 14.1936L28.2324 14.2014L28.1793 14.2053H28.026L27.9277 14.1975L27.8314 14.1877L27.741 14.1759L27.6506 14.1562L27.57 14.1365L27.4913 14.113L27.4127 14.0874L27.338 14.056L27.2692 14.0225L27.2024 13.9891L27.1395 13.9518L27.0805 13.9125L27.0196 13.8692L26.9665 13.8299L26.9135 13.7847L26.8702 13.7395L26.825 13.6923L26.7837 13.6471L26.7424 13.598L26.709 13.5508L26.6756 13.5017L26.6442 13.4525L26.6186 13.4034L26.597 13.3562L26.5734 13.3071L26.5557 13.2599L26.538 13.2147L26.5262 13.1695L26.5144 13.1243L26.5066 13.081L26.4987 13.0397L26.4948 13.024L26.4909 13.0083L26.483 12.9965L26.4751 12.9808L26.4535 12.9572L26.426 12.9395L26.3965 12.9277L26.367 12.9198H26.3375L26.3061 12.9238L25.8461 13.1066L25.8304 13.1144L25.8147 13.1262L25.8029 13.138L25.7911 13.1498L25.7754 13.1793L25.7636 13.2088L25.7596 13.2402L25.7636 13.2717L25.7714 13.2992L25.7872 13.3248L25.8147 13.3621L25.8402 13.3994L25.8619 13.4368L25.8815 13.4761L25.8913 13.5193L25.9031 13.5665L25.911 13.6157V13.7238L25.8992 13.7788L25.8874 13.8319L25.8697 13.8791L25.8481 13.9282L25.8206 13.9734L25.7911 14.0127L25.7538 14.056L25.7164 14.0874L25.6771 14.1228L25.6319 14.1483L25.5827 14.1739L25.5297 14.1936L25.4766 14.2034L25.4216 14.2152H25.3036L25.2486 14.2034L25.1936 14.1877L25.1444 14.168L25.0953 14.1424L25.0501 14.1169L25.0108 14.0835L24.9714 14.0442L24.938 14.0049L24.9085 13.9655L24.883 13.9184L24.8594 13.8712L24.8397 13.8221L24.8299 13.7709L24.8221 13.7218L24.8181 13.6687V4.08839L24.8142 4.06284L24.8063 4.03532L24.7945 4.00977L24.7768 3.99011L24.7572 3.97045L24.7316 3.96063L24.71 3.95276L24.6786 3.94883H22.0112L21.9837 3.95276L21.9582 3.96063L21.9326 3.97242L21.913 3.99208L21.8933 4.00977L21.8835 4.03532L21.8756 4.06284L21.8717 4.08839V4.42254L21.8756 4.45006L21.8874 4.47561L21.9031 4.4992L21.9208 4.51493L21.9424 4.53262L21.9641 4.54441L21.9877 4.5562L22.0093 4.56407L22.426 4.68593L22.4476 4.6938L22.4692 4.70362L22.4889 4.71542L22.5085 4.73114L22.5223 4.7508L22.538 4.77242L22.5459 4.79601L22.5498 4.82156L22.5557 13.1813ZM60.1439 8.75866V9.09871L60.14 9.12426L60.1321 9.14785L60.1164 9.16947L60.0967 9.18913L60.0751 9.20289L60.0515 9.21861L60.0299 9.22647L60.0024 9.23434L59.5877 9.3562L59.568 9.36407L59.5483 9.37389L59.5248 9.38962L59.5051 9.40534L59.4913 9.425L59.4795 9.44662L59.4717 9.46824L59.4678 9.49576V16.5169L59.4638 16.6781L59.452 16.8353L59.4284 16.9867L59.4029 17.14L59.3655 17.2894L59.3203 17.4368L59.2712 17.5783L59.2122 17.7198L59.1493 17.8555L59.0786 17.9891L59.0019 18.1189L58.9213 18.2427L58.8309 18.3646L58.7326 18.4825L58.6343 18.5926L58.5262 18.7007L58.4181 18.799L58.3022 18.8972L58.1842 18.9877L58.0584 19.0761L57.9326 19.1547L57.797 19.2294L57.6633 19.2963L57.5257 19.3592L57.3823 19.4122L57.2348 19.4594L57.0854 19.5007L56.9321 19.54L56.7788 19.5636L56.6255 19.5832L56.4682 19.5931L56.309 19.597H56.199L56.0909 19.5931L55.9847 19.5852L55.8766 19.5734L55.7724 19.5577L55.6722 19.542L55.566 19.5203L55.4658 19.4967L55.3636 19.4712L55.2653 19.4456L55.169 19.4162L55.0766 19.3768L54.9823 19.3454L54.8879 19.3041L54.7994 19.2628L54.709 19.2176L54.6225 19.1705L54.538 19.1213L54.4535 19.0682L54.3749 19.0132L54.2963 18.9582L54.2176 18.8992L54.1449 18.8343L54.0722 18.7714L54.0053 18.7046L53.9385 18.6378L53.8736 18.567L53.8108 18.4923L53.7537 18.4176L53.6987 18.339L53.6417 18.2604L53.5945 18.1778L53.5218 18.2977L53.4393 18.4275L53.3508 18.5611L53.2486 18.7046L53.1366 18.854L53.0108 19.0053L52.8751 19.1626L52.7257 19.3198L52.5606 19.483L52.3837 19.6422L52.195 19.8073L51.9886 19.9705L51.7626 20.1336L51.5267 20.2987L51.2712 20.4579L50.9999 20.6152L50.711 20.7685L50.4083 20.9159L50.084 21.0614L49.738 21.199L49.3764 21.3307L48.9931 21.4525L48.5901 21.5685L48.1636 21.6727L47.7174 21.7709L47.2496 21.8594L46.7582 21.9341L46.2432 21.997L45.7066 22.0442L45.1464 22.0835L44.5587 22.1031L43.9493 22.113L43.5955 22.109L43.2338 22.0933L42.8565 22.0678L42.4673 22.0383L42.0624 21.997L41.6535 21.9478L41.2348 21.8908L40.8044 21.8319L40.37 21.765L39.9316 21.6943L39.4874 21.6196L39.0373 21.541L38.1331 21.3818L37.223 21.2147L36.3189 21.0417L35.4304 20.8825L34.9921 20.8039L34.5597 20.7292L34.139 20.6584L33.7223 20.5916L33.3154 20.5326L32.9223 20.4776L32.5351 20.4284L32.1655 20.3891L31.8058 20.3577L31.4619 20.3302L31.1316 20.3144L30.823 20.3105L30.4103 20.3144L30.0053 20.3262L29.6083 20.342L29.223 20.3695L28.8417 20.4029L28.4722 20.4422L28.1046 20.4913L27.7449 20.5483L27.3931 20.6112L27.0491 20.682L26.7071 20.7646L26.3729 20.853L26.0427 20.9513L25.7203 21.0535L25.398 21.1714L25.0835 21.2933L24.7729 21.423L24.4663 21.5646L24.1636 21.7139L23.8589 21.8732L23.5641 22.0461L23.2692 22.2211L22.9764 22.4098L22.6854 22.6063L22.3965 22.8166L22.1076 23.0329L21.8206 23.2609L21.5356 23.4967L21.2506 23.7483L20.9636 24.0039L20.6786 24.2732L20.3936 24.5562L20.368 24.5778L20.3424 24.5975L20.3189 24.6132L20.2933 24.6211L20.2678 24.625L20.2363 24.6211L20.2068 24.6093L20.1734 24.5935L14.4889 21.5076L14.4653 21.4879L14.4437 21.4643L14.428 21.4348L14.4201 21.4053L14.4162 21.3896V21.3582L14.4201 21.3424L14.428 21.3267L14.4358 21.311L14.4476 21.2992L14.4594 21.2835L14.8191 20.9926L15.1847 20.7095L15.5582 20.4343L15.9415 20.165L16.3346 19.9095L16.7316 19.6619L17.1346 19.424L17.5434 19.1921L17.9582 18.9739L18.3768 18.7636L18.8014 18.5611L19.228 18.3705L19.6545 18.1837L20.085 18.0127L20.5174 17.8456L20.9498 17.6884L21.3823 17.5429L21.8186 17.4053L22.2471 17.2776L22.6815 17.1596L23.108 17.0515L23.5366 16.9513L23.9592 16.8609L24.3778 16.7783L24.7906 16.7076L25.1975 16.6486L25.6024 16.5916L25.9975 16.5523L26.3867 16.5189L26.77 16.4953L27.1434 16.4795L27.511 16.4717L28.2108 16.4835L28.8948 16.5169L29.569 16.566L30.2314 16.6329L30.882 16.7193L31.5267 16.8176L32.1557 16.9277L32.7808 17.0535L33.3901 17.1872L33.9975 17.3326L34.595 17.4859L35.1886 17.6451L35.7705 17.8142L36.3523 17.9813L36.9223 18.1582L37.4923 18.3272L38.6186 18.6732L39.7351 19.0093L40.2933 19.1705L40.8476 19.3218L41.3999 19.4673L41.9542 19.6049L42.5085 19.7287L43.0668 19.8407L43.623 19.939L44.1852 20.0216L44.7474 20.0943L45.3174 20.1415L45.8874 20.1709L46.4653 20.1827L46.941 20.1749L47.4009 20.1533L47.8334 20.1198L48.2501 20.0707L48.6471 20.0117L49.0206 19.937L49.3764 19.8545L49.7144 19.766L50.0348 19.6658L50.3356 19.5577L50.6186 19.4397L50.8859 19.3159L51.1356 19.1881L51.3675 19.0545L51.5837 18.9169L51.7842 18.7793L51.971 18.6338L52.1439 18.4884L52.3012 18.3429L52.4427 18.1975L52.5705 18.052L52.6845 17.9066L52.7867 17.767L52.8771 17.6294L52.9557 17.4938L53.0225 17.3641L53.0756 17.2363L53.1208 17.1184L53.1542 17.0063L53.1798 16.9021L53.1916 16.8039L53.1955 16.7193L53.1995 16.6899L53.2112 16.6584L53.227 16.6388L53.2447 16.6191L53.2643 16.6014L53.2899 16.5896L53.3115 16.5818L53.3351 16.5778H53.8579L53.8815 16.5818L53.9031 16.5896L53.9307 16.6014L53.9483 16.6171L53.968 16.6368L53.9837 16.6584L53.9955 16.6899L53.9995 16.7193V16.7999L54.0073 16.8786L54.0191 16.9572L54.0309 17.0358L54.0486 17.1105L54.0702 17.1852L54.0958 17.256L54.1272 17.3267L54.1567 17.3936L54.194 17.4604L54.2314 17.5233L54.2707 17.5822L54.3179 17.6432L54.367 17.7021L54.4181 17.7592L54.4712 17.8103L54.5262 17.8594L54.5872 17.9066L54.6461 17.9518L54.711 17.9931L54.7778 18.0324L54.8466 18.0678L54.9174 18.1012L54.9881 18.1307L55.0628 18.1582L55.1375 18.1778L55.2162 18.2014L55.2948 18.2171L55.3734 18.2329L55.456 18.2407L55.5385 18.2486H55.7076L55.7881 18.2407L55.8707 18.2289L55.9493 18.2132L56.028 18.1975L56.1066 18.1759L56.1773 18.1483L56.252 18.1228L56.3248 18.0894L56.3916 18.056L56.4545 18.0166L56.5233 17.9734L56.5822 17.9302L56.6412 17.881L56.7002 17.8279L56.7513 17.7768L56.8024 17.7218L56.8515 17.6628L56.8967 17.598L56.942 17.5351L56.9813 17.4682L57.0206 17.3994L57.054 17.3267L57.0835 17.256L57.111 17.1773L57.1307 17.1026L57.1542 17.0201L57.17 16.9395L57.1857 16.8569L57.1975 16.7705L57.2014 16.6859L57.2053 16.5994V15.255L57.2014 15.2255V15.198L57.1975 15.1764L57.1896 15.1508L57.1818 15.1311L57.17 15.1115L57.1582 15.0918L57.1424 15.0761L57.1267 15.0604L57.109 15.0486L57.0894 15.0368L57.0678 15.025L57.0461 15.0171L57.0186 15.0132L56.9931 15.0093H56.942L56.9184 15.0171L56.8967 15.025L56.8732 15.0368L56.824 15.0702L56.769 15.1115L56.71 15.1606L56.6412 15.2157L56.5665 15.2746L56.4761 15.3336L56.427 15.369L56.3759 15.3985L56.3189 15.4279L56.2599 15.4574L56.195 15.485L56.1282 15.5105L56.0574 15.5361L55.9788 15.5616L55.9002 15.5852L55.8098 15.6029L55.7194 15.6225L55.623 15.6383L55.5208 15.6501L55.4127 15.6579L55.2967 15.6658H55.1788L55.0157 15.6619L54.8564 15.6461L54.6992 15.6225L54.5459 15.5891L54.3926 15.5518L54.2412 15.5007L54.0958 15.4437L53.9542 15.3808L53.8167 15.3061L53.6791 15.2275L53.5493 15.1429L53.4216 15.0447L53.2997 14.9464L53.1798 14.8363L53.0678 14.7262L52.9538 14.6083L52.8496 14.4805L52.7513 14.3469L52.6589 14.2112L52.5724 14.0697L52.4899 13.9203L52.4112 13.769L52.3444 13.6117L52.2815 13.4525L52.2225 13.2874L52.1754 13.1164L52.1302 12.9454L52.0967 12.7685L52.0712 12.5916L52.0496 12.4088L52.0378 12.2221L52.0338 12.0353L52.0378 11.8506L52.0496 11.6638L52.0712 11.481L52.0967 11.3061L52.1302 11.1272L52.1754 10.9562L52.2245 10.7891L52.2815 10.624L52.3444 10.4648L52.4112 10.3076L52.4899 10.1542L52.5724 10.0068L52.6589 9.8653L52.7533 9.7277L52.8496 9.59601L52.9538 9.46824L53.0678 9.34638L53.1798 9.23434L53.2977 9.12623L53.4216 9.02205L53.5493 8.92967L53.681 8.83925L53.8147 8.76063L53.9523 8.6879L54.0958 8.62303L54.2412 8.56407L54.3926 8.51493L54.5459 8.47561L54.6992 8.44613L54.8564 8.42254L55.0157 8.40682L55.1768 8.39896L55.3085 8.40289L55.4324 8.41075L55.5483 8.42254L55.6604 8.43434L55.7665 8.45399L55.8648 8.47365L55.9592 8.49724L56.0535 8.51886L56.1361 8.55031L56.2186 8.57979L56.2972 8.60927L56.368 8.64269L56.4348 8.67611L56.5036 8.71542L56.5626 8.74687L56.6216 8.78618L56.824 8.92377L56.9891 9.04564L57.0638 9.09478L57.1307 9.13016L57.166 9.14588L57.1995 9.15571L57.2289 9.15964L57.2623 9.16357H57.3017L57.337 9.15571L57.3705 9.14588L57.3999 9.13409L57.4314 9.11837L57.4569 9.09674L57.4786 9.07316L57.5022 9.0476L57.5198 9.02205L57.5395 8.98667L57.5572 8.95326L57.569 8.91591L57.5945 8.83729L57.6142 8.74883L57.624 8.72328L57.6358 8.69773L57.6515 8.67414L57.6712 8.65645L57.6928 8.63876L57.7203 8.62697L57.7498 8.6191L57.7832 8.61517H60.0063L60.0358 8.6191L60.0614 8.62697L60.085 8.63876L60.1066 8.65841L60.1223 8.67414L60.1341 8.69773L60.1459 8.72328L60.1439 8.75866ZM57.2014 10.9267L57.1975 10.8874L57.1936 10.8422L57.1818 10.8009L57.17 10.7616L57.1542 10.7144L57.1366 10.6751L57.1149 10.6319L57.0913 10.5926L57.0658 10.5513L57.0363 10.512L57.0029 10.4766L56.9675 10.4373L56.9341 10.4019L56.8928 10.3646L56.8555 10.3311L56.8103 10.3017L56.771 10.2682L56.7218 10.2388L56.6766 10.2093L56.6275 10.1818L56.5783 10.1562L56.5272 10.1326L56.4741 10.111L56.4211 10.0933L56.368 10.0736L56.3169 10.0579L56.2599 10.0422L56.2088 10.0304L56.1518 10.0225L56.0967 10.0147L56.0378 10.0107H55.8864L55.7881 10.0186L55.6938 10.0343L55.6014 10.0501L55.511 10.0717L55.4245 10.0972L55.34 10.1287L55.2574 10.1621L55.1788 10.1994L55.1041 10.2427L55.0294 10.2879L54.9587 10.341L54.8899 10.3921L54.823 10.451L54.7641 10.5139L54.7031 10.5788L54.6481 10.6496L54.595 10.7203L54.5459 10.795L54.5007 10.8756L54.4555 10.9582L54.4181 11.0407L54.3808 11.1292L54.3474 11.2196L54.3218 11.3179L54.2943 11.4083L54.2727 11.5105L54.2569 11.6107L54.2412 11.7149L54.2314 11.823L54.2275 11.9311L54.2235 12.0432L54.2275 12.1513L54.2314 12.2594L54.2412 12.3675L54.2569 12.4717L54.2727 12.5719L54.2943 12.6722L54.3218 12.7705L54.3474 12.8628L54.3808 12.9552L54.4201 13.0417L54.4555 13.1262L54.5007 13.2127L54.5459 13.2913L54.595 13.366L54.6481 13.4388L54.7031 13.5115L54.7621 13.5783L54.823 13.6373L54.8899 13.6963L54.9587 13.7533L55.0294 13.8044L55.1041 13.8496L55.1788 13.8948L55.2574 13.9341L55.34 13.9695L55.4245 13.999L55.511 14.0245L55.6014 14.0481L55.6938 14.0638L55.7881 14.0795L55.8864 14.0874H56.0397L56.0967 14.0835L56.1518 14.0756L56.2088 14.0678L56.2599 14.0579L56.3169 14.0422L56.368 14.0265L56.4211 14.0068L56.4741 13.9872L56.5272 13.9675L56.5783 13.9439L56.6275 13.9184L56.6766 13.8908L56.7218 13.8614L56.769 13.8319L56.8103 13.8024L56.8555 13.769L56.8928 13.7356L56.9341 13.6963L56.9675 13.6609L57.0029 13.6216L57.0363 13.5862L57.0658 13.5488L57.0913 13.5076L57.1149 13.4682L57.1366 13.425L57.1542 13.3857L57.17 13.3444L57.1818 13.2992L57.1936 13.2599L57.1975 13.2127L57.2014 13.1734V10.9267ZM52.6451 8.26136L52.6412 8.38716L52.6334 8.51296L52.6235 8.63679L52.6039 8.75473L52.5822 8.86677L52.5567 8.97881L52.5252 9.08298L52.4918 9.18716L52.4584 9.28544L52.4191 9.37783L52.3739 9.47021L52.3248 9.55669L52.2756 9.63925L52.2225 9.71787L52.1675 9.79257L52.1085 9.86136L52.0476 9.92623L51.9886 9.98913L51.9238 10.0442L51.8569 10.1012L51.7921 10.1483L51.7213 10.1936L51.6545 10.2348L51.5818 10.2722L51.5149 10.3056L51.4442 10.3311L51.3734 10.3547L51.3026 10.3764L51.2319 10.3921L51.1592 10.4039L51.0884 10.4078L51.0216 10.4117H50.9429L50.8682 10.4039L50.8014 10.396L50.7366 10.3842L50.6776 10.3724L50.6245 10.3547L50.5714 10.3351L50.5262 10.3174L50.483 10.2958L50.4417 10.2722L50.4024 10.2466L50.369 10.2211L50.3061 10.168L50.2471 10.113L50.1901 10.0579L50.137 10.0049L50.082 9.95375L50.025 9.90854L49.9916 9.88888L49.9582 9.87316L49.9248 9.85743L49.8835 9.84171L49.8442 9.82991L49.8009 9.82205L49.7518 9.81812L49.6987 9.81419L49.6397 9.81812L49.5768 9.82598L49.5179 9.84171L49.4589 9.86136L49.4039 9.88692L49.3469 9.9164L49.2997 9.94982L49.2545 9.98716L49.2093 10.0324L49.17 10.0756L49.1385 10.1248L49.113 10.1759L49.0894 10.2329L49.0717 10.2879L49.0599 10.3469L49.056 10.4117V14.5906L49.0599 14.6221L49.0678 14.6437L49.0835 14.6653L49.0992 14.6849L49.1189 14.7007L49.1346 14.7164L49.1582 14.7243L49.1798 14.7321L49.5926 14.856L49.6181 14.8638L49.6397 14.8756L49.6633 14.8874L49.685 14.9051L49.7026 14.9248L49.7184 14.9424L49.7302 14.968L49.7341 14.9936V15.3297L49.7302 15.3592L49.7223 15.3867L49.7066 15.4083L49.6909 15.426L49.6692 15.4456L49.6456 15.4574L49.6201 15.4692H46.8958L46.8682 15.4574L46.8486 15.4456L46.8289 15.426L46.8093 15.4083L46.7975 15.3867L46.7857 15.3592V10.4786L46.7818 10.4078L46.7739 10.3429L46.7582 10.284L46.7405 10.2289L46.7189 10.1798L46.6913 10.1346L46.6599 10.0933L46.6245 10.056L46.5852 10.0265L46.542 10.0009L46.4967 9.9793L46.4496 9.95964L46.3965 9.94392L46.3434 9.93213L46.2923 9.92819L46.2353 9.92426L46.1803 9.92819L46.1194 9.93606L46.0604 9.95178L45.9955 9.96947L45.9287 9.99109L45.8619 10.0166L45.7891 10.0461L45.7144 10.0854L45.569 10.1641L45.4157 10.2486L45.2624 10.3469L45.113 10.4451L45.1051 10.5867L45.0894 10.7243L45.0697 10.8579L45.0383 10.9896L45.0009 11.1193L44.9577 11.2471L44.9085 11.369L44.8496 11.4928L44.7847 11.6088L44.71 11.7228L44.6314 11.8348L44.5488 11.939L44.4545 12.0451L44.3562 12.1434L44.254 12.2378L44.142 12.3262L44.024 12.4166L43.9022 12.4953L43.7744 12.5739L43.6388 12.6466L43.5012 12.7135L43.3537 12.7724L43.2004 12.8314L43.0471 12.8825L42.884 12.9297L42.7189 12.969L42.5459 13.0044L42.369 13.0319L42.1862 13.0515L41.9995 13.0712L41.8088 13.081L41.6142 13.085L41.6181 13.1144L41.6221 13.1478L41.6338 13.1852L41.6456 13.2245L41.6633 13.2717L41.6869 13.3189L41.7085 13.368L41.738 13.4191L41.7714 13.4722L41.8108 13.5272L41.8461 13.5842L41.8913 13.6432L41.9405 13.6982L41.9936 13.7572L42.0486 13.8162L42.1076 13.8712L42.1724 13.9302L42.2353 13.9832L42.3081 14.0383L42.3827 14.0894L42.4614 14.1385L42.542 14.1857L42.6284 14.2289L42.7189 14.2682L42.8171 14.3095L42.9135 14.3429L43.0157 14.3685L43.1198 14.396L43.228 14.4157L43.34 14.4314L43.4579 14.4432H43.7194L43.8569 14.4314L43.9886 14.4157L44.1164 14.3921L44.2422 14.3626L44.3601 14.3292L44.4741 14.2899L44.5862 14.2388L44.6923 14.1877L44.7965 14.1287L44.8948 14.0658L44.9872 13.9931L45.0776 13.9144L45.1601 13.8338L45.2427 13.7434L45.3174 13.651L45.3351 13.6294L45.3547 13.6098L45.3744 13.594L45.394 13.5783L45.4176 13.5626L45.4412 13.5508L45.4668 13.5429L45.4884 13.5311L45.512 13.5272L45.5375 13.5233H45.5827L45.6044 13.5272L45.6279 13.5311L45.6496 13.539L45.6732 13.5469L45.6909 13.5587L45.7085 13.5705L45.7243 13.5881L45.74 13.6039L45.7557 13.6235L45.7675 13.6451L45.7754 13.6668L45.7832 13.6943L45.7872 13.7238V13.7827L45.7832 13.8221L45.7754 13.8574L45.7636 13.8967L45.7518 13.9361L45.7321 13.9813L45.7164 14.0245L45.6889 14.0736L45.6594 14.1248L45.626 14.1818L45.5867 14.2407L45.5474 14.3036L45.4982 14.3724L45.4452 14.4392L45.394 14.5061L45.3311 14.5768L45.2663 14.6476L45.1995 14.7184L45.1248 14.7891L45.0461 14.8599L44.9596 14.9307L44.8732 15.0014L44.7788 15.0682L44.6805 15.1351L44.5783 15.1999L44.4682 15.2628L44.3562 15.3218L44.2383 15.3788L44.1125 15.4299L43.9867 15.4791L43.851 15.5243L43.7135 15.5616L43.566 15.599L43.4166 15.6284L43.2633 15.6501L43.1022 15.6658L42.939 15.6776L42.766 15.6815L42.6049 15.6776L42.4437 15.6658L42.2825 15.6501L42.1252 15.6245L41.9719 15.595L41.8186 15.5577L41.6692 15.5164L41.5238 15.4673L41.3803 15.4122L41.2388 15.3474L41.1012 15.2864L40.9655 15.2117L40.8338 15.1331L40.7061 15.0506L40.5842 14.9641L40.4643 14.8717L40.3464 14.7734L40.2363 14.6712L40.1282 14.5631L40.026 14.455L39.9277 14.337L39.8353 14.2152L39.7449 14.0933L39.6623 13.9655L39.5837 13.8358L39.513 13.7021L39.4461 13.5646L39.3813 13.423L39.3302 13.2776L39.281 13.1282L39.2358 12.9788L39.1985 12.8255L39.0412 12.7744L38.884 12.7193L38.7307 12.6604L38.5813 12.5916L38.4358 12.5208L38.2963 12.4501L38.1646 12.3754L38.0427 12.3007V13.6766L38.0348 13.7768L38.023 13.8751L38.0073 13.9695L37.9877 14.0638L37.9641 14.1523L37.9385 14.2427L37.9051 14.3272L37.8717 14.4137L37.8304 14.4963L37.7891 14.5749L37.74 14.6535L37.6908 14.7262L37.6358 14.797L37.5788 14.8638L37.5198 14.9267L37.451 14.9916L37.3842 15.0506L37.3135 15.1036L37.2388 15.1547L37.1601 15.2039L37.0815 15.2491L36.995 15.2884L36.9085 15.3277L36.8201 15.3592L36.7257 15.3867L36.6275 15.4122L36.5311 15.4319L36.4309 15.4496L36.3248 15.4614L36.2166 15.4692H34.8545L34.709 15.4614L34.5616 15.4456L34.424 15.426L34.2884 15.4044L34.1567 15.3768L34.0309 15.3434L33.9071 15.3061L33.7891 15.2628L33.6712 15.2176L33.5631 15.1646L33.4589 15.1095L33.3528 15.0506L33.2545 14.9818L33.166 14.9149L33.0756 14.8402L32.9931 14.7675L32.9144 14.6849L32.8397 14.5985L32.7729 14.51L32.71 14.4157L32.653 14.3174L32.5999 14.2191L32.5528 14.1149L32.5076 14.0068L32.4741 13.8948L32.4388 13.7827L32.4132 13.6648L32.3955 13.5449L32.3798 13.4171L32.3719 13.2913L32.368 13.1616V4.82746L32.3641 4.8019L32.3562 4.78028L32.3444 4.7567L32.3267 4.73704L32.309 4.72131L32.2894 4.70952L32.2678 4.69969L32.2442 4.69183L31.8314 4.56996L31.8078 4.5621L31.7842 4.55031L31.7587 4.53458L31.739 4.51886L31.7194 4.4992L31.7056 4.47955L31.6938 4.45399L31.6899 4.42844V4.09429L31.6938 4.06677L31.7017 4.04122L31.7174 4.0137L31.7331 3.99601L31.7528 3.97635L31.7783 3.96456L31.8039 3.9567L31.8314 3.95276H34.4987L34.5282 3.9567L34.5557 3.96456L34.5773 3.97635L34.597 3.99601L34.6166 4.01566L34.6265 4.04122L34.6343 4.06677L34.6383 4.09232V13.4211L34.6461 13.48L34.654 13.537L34.6697 13.5921L34.6854 13.6451L34.7051 13.6963L34.7248 13.7454L34.7483 13.7906L34.7778 13.8338L34.8073 13.8791L34.8388 13.9203L34.8722 13.9577L34.9095 13.995L34.9469 14.0284L34.9862 14.0579L35.0294 14.0913L35.0687 14.1169L35.1139 14.1444L35.1611 14.17L35.2044 14.1936L35.2535 14.2112L35.3026 14.2309L35.3479 14.2486L35.395 14.2643L35.4933 14.2899L35.5916 14.3056L35.684 14.3154L35.7744 14.3193L35.8746 14.3154L35.9729 14.3076L36.0732 14.2958L36.1714 14.2761L36.2186 14.2623L36.2678 14.2525L36.3169 14.2329L36.3621 14.2171L36.4073 14.1975L36.4525 14.1759L36.4958 14.1523L36.537 14.1267L36.5783 14.1012L36.6176 14.0717L36.653 14.0363L36.6864 14.0029L36.7218 13.9695L36.7513 13.9302L36.7768 13.8889L36.8024 13.8476L36.8299 13.7985L36.8476 13.7493L36.8673 13.6982L36.883 13.6451L36.8948 13.5862L36.9026 13.5272L36.9105 13.4643V11.5675L35.9886 11.0191L35.9493 10.9896L35.9081 10.9601L35.8687 10.9228L35.8353 10.8854L35.8235 10.8638L35.8117 10.8402L35.8019 10.8147L35.794 10.7872L35.7862 10.7616L35.7783 10.7321V10.6987L35.7744 10.6653V8.75866L35.7783 8.73114L35.7862 8.70559L35.796 8.682L35.8157 8.66431L35.8353 8.64662L35.8589 8.63483L35.8864 8.62697L35.912 8.62303H37.9071L37.9326 8.62697L37.9601 8.63483L37.9818 8.64662L38.0034 8.66628L38.0191 8.682L38.0348 8.70559L38.0427 8.73114V11.3533L38.1606 11.426L38.2825 11.5007L38.4142 11.5754L38.5518 11.6501L38.6894 11.7248L38.8368 11.7955L38.9783 11.8663L39.1218 11.9252L39.1336 11.7444L39.1513 11.5655L39.1768 11.3886L39.2103 11.2137L39.2555 11.0427L39.3085 10.8756L39.3675 10.7125L39.4363 10.5513L39.5071 10.394L39.5896 10.2427L39.6781 10.0972L39.7724 9.95571L39.8746 9.81812L39.9827 9.68249L40.0948 9.55669L40.2127 9.43483L40.3424 9.31689L40.4722 9.20682L40.6078 9.10657L40.7493 9.00633L40.8948 8.91591L41.0461 8.83139L41.2034 8.7567L41.3646 8.68397L41.5238 8.62303L41.6928 8.56407L41.8638 8.52082L42.0368 8.48151L42.2176 8.45006L42.3945 8.42844L42.5793 8.41665L42.766 8.40878L42.8722 8.41271L42.9724 8.41665L43.0707 8.42451L43.169 8.4363L43.2614 8.4481L43.3537 8.46382L43.4442 8.48348L43.5307 8.5051L43.6171 8.52869L43.6997 8.55424L43.7783 8.58372L43.8569 8.61321L43.9316 8.64269L44.0024 8.682L44.0732 8.71345L44.14 8.7567L44.2088 8.79601L44.2717 8.83729L44.3307 8.88249L44.3916 8.9277L44.4486 8.97095L44.5036 9.02009L44.5567 9.07316L44.6058 9.12426L44.651 9.17733L44.6943 9.22844L44.7395 9.28348L44.7808 9.34048L44.8201 9.39552L44.8515 9.45448L44.885 9.51345L44.9203 9.57439L45.0461 9.47611L45.1818 9.37783L45.3233 9.27758L45.4707 9.17537L45.624 9.07905L45.7813 8.98077L45.9385 8.89036L46.1017 8.80387L46.2668 8.72131L46.4319 8.64662L46.5144 8.61321L46.597 8.57979L46.6795 8.55031L46.7601 8.52475L46.8427 8.49724L46.9252 8.47561L47.0039 8.45596L47.0864 8.4422L47.1651 8.43041L47.2437 8.41861L47.3223 8.41468L47.4009 8.41075L47.4835 8.41468L47.5621 8.42254L47.6329 8.43041L47.7036 8.44613L47.7685 8.46382L47.8275 8.48348L47.8845 8.5051L47.9356 8.53065L47.9847 8.55817L48.0299 8.58765L48.0751 8.61714L48.1144 8.65055L48.1911 8.71738L48.2579 8.78814L48.3169 8.86087L48.3778 8.9277L48.4348 8.9906L48.4899 9.04564L48.5194 9.07316L48.5508 9.09478L48.5842 9.11247L48.6137 9.13212L48.651 9.14195L48.6845 9.15375L48.7257 9.16161H48.7926L48.8201 9.15768L48.8456 9.14982L48.8712 9.13802L48.8987 9.12623L48.9184 9.1105L48.938 9.09281L48.9616 9.07316L48.9773 9.05154L48.997 9.02795L49.0068 9.00633L49.0186 8.98077L49.0304 8.95326L49.0383 8.92377L49.0422 8.89822V8.86874L49.0383 8.79994L49.0265 8.73704L49.0108 8.67414L48.995 8.61517L48.9773 8.55031L48.9616 8.49134L48.9498 8.42844L48.9459 8.36554L48.9498 8.33409V8.30068L48.9577 8.27119L48.9616 8.24171L48.9813 8.18274L49.0068 8.12377L49.0363 8.06677L49.0737 8.01566L49.113 7.96652L49.1641 7.91738L49.2112 7.87807L49.2682 7.83876L49.3252 7.80534L49.3881 7.77586L49.451 7.75424L49.5159 7.73851L49.5827 7.72672L49.6535 7.72279H49.7125L49.7734 7.73065L49.8324 7.73851L49.8894 7.75424L49.9444 7.76996L49.9975 7.78765L50.0506 7.80731L50.1036 7.83286L50.2039 7.88593L50.3041 7.94097L50.3985 8.00387L50.4928 8.06873L50.5872 8.13163L50.6795 8.19453L50.7739 8.2535L50.8663 8.30657L50.9115 8.32819L50.9606 8.34785L51.0078 8.36751L51.0569 8.38323L51.11 8.39502L51.1592 8.40289L51.2122 8.41075H51.3125L51.3577 8.39896L51.4049 8.38716L51.452 8.36947L51.4992 8.34392L51.5385 8.31444L51.5857 8.28298L51.623 8.24367L51.6604 8.2024L51.6938 8.15719L51.7233 8.10608L51.7508 8.05301L51.7724 7.99404L51.7881 7.93507L51.796 7.87021L51.7999 7.80338V7.76996L51.796 7.73262L51.7921 7.6992L51.7803 7.66185L51.7626 7.58716L51.7331 7.50854L51.6938 7.42795L51.6545 7.34539L51.6053 7.26284L51.5503 7.18225L51.4933 7.09969L51.4304 7.01714L51.3616 6.93655L51.2948 6.85792L51.224 6.78323L51.1533 6.71247L51.0766 6.64171L51.0039 6.57684L50.9803 6.55915L50.9626 6.53753L50.9429 6.51394L50.9272 6.48839L50.9154 6.46677L50.9076 6.44122L50.8997 6.41763V6.39208L50.8958 6.36652L50.8997 6.34294L50.9036 6.31738L50.9115 6.2938L50.9194 6.27414L50.9292 6.25055L50.941 6.22697L50.9567 6.20928L50.9724 6.18765L50.9921 6.17193L51.0078 6.15227L51.0314 6.13851L51.053 6.12869L51.0746 6.11689L51.1021 6.10903L51.1277 6.10117L51.1533 6.09724L51.1808 6.0933L51.2103 6.09724L51.2397 6.10117L51.2692 6.10903L51.3007 6.11689L51.3302 6.13262L51.3636 6.14834L51.4422 6.19552L51.5169 6.24466L51.5916 6.2938L51.6623 6.3449L51.7311 6.39797L51.798 6.44908L51.8609 6.50608L51.9198 6.56505L51.9788 6.62009L52.0378 6.67905L52.0909 6.74392L52.142 6.80289L52.1911 6.86579L52.2363 6.93262L52.2815 6.99748L52.3208 7.06431L52.3601 7.13114L52.3975 7.2019L52.4309 7.27267L52.4604 7.34343L52.4899 7.41419L52.5174 7.48888L52.5429 7.56357L52.5606 7.63827L52.5783 7.71296L52.598 7.78765L52.6098 7.86628L52.6216 7.9449L52.6314 8.02156L52.6353 8.10018L52.6393 8.18077L52.6451 8.26136ZM43.7842 10.4687V10.4294L43.7803 10.3803L43.7724 10.3272L43.7626 10.2761L43.7508 10.2171L43.7292 10.1582L43.7056 10.0992L43.6722 10.0402L43.6525 10.0147L43.6329 9.98913L43.6093 9.95964L43.5818 9.93606L43.5562 9.9105L43.5267 9.88692L43.4913 9.86726L43.4599 9.8476L43.4206 9.82795L43.3813 9.81222L43.34 9.7965L43.2948 9.78667L43.2456 9.77881L43.1926 9.77095L43.1375 9.76701L43.0786 9.76308L43.0058 9.76701L42.9351 9.77488L42.8643 9.7906L42.7877 9.81026L42.7169 9.82991L42.6461 9.86136L42.5754 9.89478L42.5085 9.93213L42.4397 9.97733L42.3729 10.0245L42.3061 10.0776L42.2412 10.1365L42.1783 10.1994L42.1194 10.2663L42.0604 10.339L42.0014 10.4176L41.9464 10.4963L41.8933 10.5847L41.8422 10.6732L41.797 10.7655L41.7518 10.8678L41.7105 10.966L41.6732 11.0761L41.6397 11.1862L41.6063 11.3041L41.5808 11.4221L41.5533 11.5459L41.5336 11.6717L41.5179 11.8053L41.5061 11.939L41.4982 12.0766L41.4943 12.2201L41.6338 12.2162L41.7675 12.2083L41.8953 12.1886L42.023 12.167L42.141 12.1395L42.2589 12.1061L42.3709 12.0687L42.4791 12.0294L42.5832 11.9803L42.6854 11.9272L42.7837 11.8761L42.8722 11.8171L42.9587 11.7562L43.0452 11.6933L43.1238 11.6265L43.1985 11.5596L43.2653 11.4908L43.3341 11.4201L43.3931 11.3474L43.4481 11.2746L43.5012 11.1999L43.5503 11.1311L43.5955 11.0564L43.6329 10.9857L43.6663 10.911L43.6958 10.8442L43.7233 10.7714L43.7429 10.7046L43.7606 10.6417L43.7705 10.5827L43.7783 10.5238L43.7842 10.4687ZM49.5631 1.99699L49.5297 1.99306L49.5002 1.98913L49.4707 1.98127L49.4393 1.96947L49.4137 1.95768L49.3881 1.94195L49.3606 1.92426L49.341 1.90264L49.3213 1.87905L49.3017 1.85743L49.2859 1.83188L49.2682 1.80043L49.2565 1.77095L49.2486 1.74146L49.2447 1.70805V1.04367L49.2407 1.0024L49.2329 0.963084L49.225 0.91984L49.2093 0.882494L49.1916 0.845147L49.1739 0.811732L49.1503 0.778317L49.1248 0.748833L49.0933 0.72328L49.0599 0.695762L49.0265 0.678071L48.9872 0.660381L48.9518 0.644656L48.9125 0.636794L48.8692 0.628931L48.8279 0.625L48.7906 0.628931L48.7572 0.632862L48.7238 0.640725L48.6904 0.652518L48.655 0.668243L48.6255 0.683968L48.5999 0.703624L48.5705 0.72328L48.5174 0.758661L48.4643 0.797973L48.4093 0.825491L48.3503 0.85301L48.2894 0.878563L48.2304 0.898219L48.1655 0.913943L48.1066 0.925737L48.0417 0.9336L47.9788 0.937531H47.9139L47.8471 0.9336L47.7842 0.921806L47.7194 0.910012L47.6565 0.892322L47.5936 0.868735L47.5405 0.851044L47.4835 0.839251L47.4304 0.827457L47.3754 0.823526L47.3184 0.827457L47.2673 0.831388L47.2103 0.843182L47.1592 0.858907L47.11 0.882494L47.0609 0.904115L47.0117 0.935565L46.9685 0.96898L46.9272 1.0024L46.8879 1.04171L46.8506 1.09085L46.8211 1.13999L46.7955 1.19109L46.7719 1.24416L46.7562 1.29527L46.7444 1.35227L46.7366 1.40731V1.46038L46.7405 1.51542L46.7483 1.56849L46.7601 1.62353L46.7798 1.67267L46.8034 1.72377L46.8289 1.77291L46.8584 1.81615L46.8918 1.86136L46.9311 1.90264L46.9744 1.93999L47.0235 1.98127L47.0727 2.02647L47.112 2.07365L47.1552 2.12672L47.1926 2.17783L47.226 2.23483L47.2515 2.28986L47.2771 2.34883L47.3007 2.40977L47.3164 2.46873L47.3321 2.53163L47.34 2.5965L47.3479 2.6594V2.7223L47.3439 2.78716L47.34 2.85399L47.3361 2.88741L47.3321 2.92082L47.3361 2.95424L47.34 2.98765L47.3479 3.02107L47.3557 3.05448L47.3714 3.0879L47.3872 3.12131L47.4127 3.15473L47.4402 3.18814L47.4697 3.21763L47.4992 3.24515L47.5326 3.26677L47.566 3.28642L47.6053 3.30018L47.6447 3.31591L47.684 3.32377L47.7233 3.3277L47.7646 3.33163L47.8039 3.3277L47.8432 3.31984L47.8825 3.30805L47.9218 3.29232L47.9611 3.27267L48.5115 2.95227L48.5429 2.93655L48.5724 2.92475L48.6039 2.91689L48.6334 2.91296L48.6628 2.90903H48.6923L48.7218 2.91296L48.7533 2.92082L48.7827 2.92869L48.8083 2.94048L48.8358 2.9562L48.8614 2.97586L48.883 2.99552L48.9066 3.01517L48.9243 3.04072L48.9439 3.06824L48.9596 3.09773L48.9714 3.12721L48.9793 3.1567L48.9872 3.18618V3.24711L48.9832 3.2766L48.9754 3.30608L48.9675 3.33753L48.9557 3.36308L48.94 3.38864L48.9203 3.41419L48.9007 3.43778L48.881 3.4594L48.8535 3.47905L48.8279 3.49871L48.2737 3.81321L48.2402 3.83679L48.2049 3.86235L48.1754 3.89183L48.1498 3.92131L48.1282 3.9567L48.1085 3.99208L48.0889 4.03139L48.0791 4.06677L48.0712 4.10608L48.0673 4.14539L48.0633 4.18471L48.0673 4.22795L48.0751 4.26726L48.085 4.3105L48.1007 4.34785L48.1203 4.38323L48.14 4.41468L48.1636 4.44416L48.1872 4.46972L48.2127 4.49134L48.2383 4.51099L48.2678 4.53065L48.2972 4.54441L48.3287 4.56014L48.3877 4.58765L48.4447 4.61714L48.5017 4.65055L48.5528 4.6879L48.6058 4.72525L48.651 4.77045L48.6943 4.8137L48.7356 4.86284L48.7768 4.91394L48.8103 4.96701L48.8417 5.02205L48.8712 5.07905L48.8928 5.13802L48.9164 5.20092L48.9321 5.26579L48.9439 5.33262L48.9557 5.38765L48.9714 5.44072L48.9911 5.49183L49.0147 5.54097L49.0442 5.59011L49.0795 5.62942L49.113 5.6707L49.1542 5.71001L49.1936 5.74146L49.2427 5.77095L49.2879 5.79846L49.341 5.82009L49.394 5.83974L49.4491 5.84957L49.5061 5.86136H49.6221L49.681 5.84957L49.7341 5.83778L49.7872 5.82009L49.8383 5.79846L49.8874 5.77095L49.9326 5.74146L49.9778 5.70805L50.0152 5.6707L50.0525 5.63139L50.082 5.59011L50.1115 5.54097L50.139 5.49183L50.1567 5.44072L50.1724 5.38765L50.1842 5.33262L50.196 5.26579L50.2137 5.20092L50.2334 5.13802L50.2589 5.07905L50.2845 5.02205L50.3179 4.96701L50.3533 4.91394L50.3886 4.86284L50.4299 4.8137L50.4751 4.77045L50.5243 4.72525L50.5734 4.6879L50.6245 4.65055L50.6815 4.61714L50.7385 4.58765L50.7975 4.56014L50.8309 4.54441L50.8604 4.52869L50.8879 4.50903L50.9174 4.49134L50.9429 4.46972L50.9665 4.44416L50.9862 4.41468L51.0058 4.38323L51.0255 4.34785L51.0412 4.30854L51.053 4.26923L51.0609 4.22795L51.0648 4.18667V4.14539L51.0569 4.10608L51.0491 4.06677L51.0373 4.02942L51.0216 3.99208L50.998 3.9567L50.9783 3.92131L50.9508 3.89183L50.9194 3.86235L50.8859 3.83679L50.8525 3.81321L50.2982 3.49871L50.2727 3.47905L50.2471 3.4594L50.2235 3.43778L50.2058 3.41419L50.1862 3.38864L50.1744 3.36308L50.1587 3.33753L50.1508 3.30608L50.1429 3.2766L50.139 3.24711V3.21763L50.1429 3.18618L50.1469 3.1567L50.1547 3.12721L50.1665 3.09773L50.1823 3.06824L50.2019 3.04072L50.2216 3.01517L50.2412 2.99552L50.2648 2.97586L50.2904 2.9562L50.3179 2.94048L50.3474 2.92869L50.3729 2.92082L50.4044 2.91296L50.4338 2.90903H50.4633L50.4967 2.91296L50.5262 2.91689L50.5557 2.92475L50.5832 2.93655L50.6127 2.95227L51.167 3.27267L51.2044 3.29232L51.2417 3.30805L51.281 3.31984L51.3243 3.3277L51.3636 3.33163L51.4068 3.3277L51.4442 3.32377L51.4835 3.31591L51.5228 3.30018L51.5582 3.28446L51.5975 3.26677L51.6309 3.24515L51.6604 3.21763L51.6899 3.18814L51.7154 3.15473L51.739 3.12131L51.7547 3.0879L51.7705 3.05448L51.7822 3.02107L51.7901 2.98765L51.794 2.95424V2.88741L51.7901 2.85399L51.7822 2.78716L51.7783 2.7223V2.6594L51.7862 2.5965L51.794 2.53163L51.8098 2.46873L51.8255 2.40977L51.8471 2.3508L51.8746 2.28986L51.9002 2.23483L51.9336 2.17783L51.9729 2.12672L52.0122 2.07365L52.0515 2.02647L52.1026 1.98127L52.1518 1.93999L52.195 1.90264L52.2343 1.86333L52.2658 1.81615L52.3012 1.77291L52.3267 1.72377L52.3483 1.67267L52.3641 1.62353L52.3798 1.56849L52.3877 1.51542L52.3916 1.46038V1.40731L52.3837 1.35227L52.3719 1.29527L52.3562 1.24416L52.3346 1.19109L52.3071 1.13999L52.2756 1.09085L52.2402 1.04171L52.2009 1.0024L52.1577 0.96898L52.1144 0.935565L52.0692 0.904115L52.0201 0.882494L51.967 0.858907L51.9159 0.843182L51.8628 0.831388L51.8078 0.827457L51.7488 0.823526L51.6977 0.827457L51.6427 0.839251L51.5857 0.851044L51.5326 0.8707L51.4697 0.892322L51.4068 0.910012L51.342 0.921806L51.2791 0.9336L51.2142 0.937531H51.1474L51.0845 0.9336L51.0255 0.925737L50.9606 0.913943L50.8958 0.898219L50.8368 0.878563L50.7778 0.85301L50.7208 0.825491L50.6638 0.797973L50.6049 0.758661L50.5518 0.721314L50.5262 0.703624L50.4967 0.683968L50.4653 0.668243L50.4358 0.652518L50.4024 0.640725L50.369 0.632862L50.3297 0.628931L50.2943 0.625L50.253 0.628931L50.2117 0.636794L50.1705 0.644656L50.1311 0.660381L50.0958 0.680037L50.0623 0.695762L50.0329 0.72328L50.0014 0.748833L49.9719 0.778317L49.9503 0.811732L49.9267 0.845147L49.911 0.884459L49.8953 0.91984L49.8835 0.961118L49.8756 1.0024V1.68053L49.8717 1.71001L49.8678 1.74343L49.8599 1.77291L49.8481 1.8024L49.8363 1.82991L49.8186 1.85547L49.8029 1.87709L49.7813 1.90068L49.7577 1.9223L49.738 1.94195L49.7105 1.95571L49.681 1.96751L49.6555 1.9793L49.624 1.98716L49.5906 1.99109L49.5631 1.99699ZM16.3248 16.3498L16.2029 16.4579L16.085 16.5621L15.9552 16.6623L15.8294 16.7606L15.6977 16.8569L15.5641 16.9493L15.4284 17.0397L15.2909 17.1243L15.1474 17.2107L15.0058 17.2933L14.8604 17.3719L14.711 17.4447L14.5596 17.5154L14.4063 17.5822L14.253 17.6491L14.0958 17.708L13.9385 17.769L13.7813 17.826L13.6201 17.8771L13.455 17.9262L13.2918 17.9695L13.1267 18.0107L12.9616 18.0501L12.7945 18.0815L12.6294 18.113L12.4565 18.1385L12.2894 18.1601L12.1203 18.1798L11.9474 18.1916L11.7764 18.2034L11.6034 18.2112H11.4304L11.0727 18.2034L10.713 18.1739L10.3592 18.1287L10.0132 18.0697L9.6712 17.9872L9.33704 17.8948L9.00486 17.7827L8.68446 17.655L8.36997 17.5135L8.06333 17.3562L7.7626 17.1852L7.47562 17.0024L7.19454 16.8058L6.92525 16.5975L6.66186 16.3734L6.41616 16.1434L6.17636 15.8977L5.95228 15.6422L5.73803 15.3749L5.53557 15.0997L5.34884 14.8166L5.17586 14.5218L5.01862 14.2211L4.87316 13.9105L4.74343 13.5921L4.62943 13.2678L4.53311 12.9336L4.45056 12.5955L4.38766 12.2535L4.34245 11.9076L4.3169 11.5537L4.3051 11.196L4.31296 10.8972L4.33459 10.6004L4.37193 10.3056L4.42107 10.0107L4.48397 9.71591L4.5626 9.425L4.65301 9.13999L4.75719 8.86087L4.86923 8.57979L4.99699 8.30854L5.13459 8.04318L5.28397 7.78372L5.44515 7.53016L5.61812 7.28446L5.79699 7.04466L5.98766 6.81861L6.18618 6.59846L6.3965 6.38618L6.61665 6.18962L6.84269 5.99896L7.07857 5.82205L7.3164 5.66087L7.568 5.50756L7.8255 5.36996L8.08889 5.24613L8.35817 5.13802L8.63139 5.04564L8.91247 4.96701L9.19945 4.90412L9.48839 4.85891L9.78323 4.83335L10.084 4.82156H10.196L10.3041 4.82549L10.4162 4.83335L10.5282 4.84515L10.6383 4.85694L10.7503 4.87267L10.8624 4.88839L10.9705 4.91001L11.0825 4.9336L11.1906 4.95326L11.3007 4.98077L11.4088 5.01026L11.5169 5.04367L11.6211 5.07905L11.7311 5.1105L11.8353 5.14982L11.9356 5.18913L12.0378 5.23434L12.138 5.27955L12.2402 5.32475L12.3385 5.37193L12.4309 5.425L12.5233 5.47611L12.6137 5.53311L12.7041 5.58815L12.7945 5.64515L12.8771 5.70412L12.9577 5.76701L13.0363 5.83188L13.1149 5.89871L13.1896 5.96554L13.2624 6.03237L13.2879 6.05399L13.3135 6.06579L13.3429 6.07758H13.3744L13.4078 6.07365L13.4334 6.06185L13.4491 6.05399L13.4609 6.04613L13.4766 6.03041L13.4884 6.01861L17.4353 0.845147L17.451 0.825491L17.4628 0.805835L17.4668 0.792076L17.4707 0.77242L17.4746 0.752764L17.4707 0.739005L17.4648 0.719349L17.4589 0.699693L17.451 0.685934L17.4412 0.67414L17.4294 0.658415L17.4137 0.650553L17.398 0.638759L17.3783 0.634828L17.3626 0.630897L17.3429 0.626966H5.49429L5.45498 0.630897L5.40977 0.638759L5.37046 0.650553L5.32722 0.662346L5.2879 0.680037L5.24859 0.701658L5.21518 0.725246L5.18176 0.750799L4.93213 0.980774L4.68446 1.21665L4.44073 1.45448L4.20486 1.70018L3.97685 1.94588L3.75277 2.19552L3.53655 2.45301L3.32623 2.71444L3.11984 2.97783L2.92525 3.24318L2.73459 3.51443L2.55375 3.78962L2.37881 4.0707L2.20977 4.35178L2.04859 4.64072L1.89921 4.92967L1.75375 5.22451L1.61812 5.51935L1.49233 5.82009L1.37242 6.12672L1.26235 6.43139L1.16407 6.74588L1.06776 7.05645L0.987166 7.37881L0.910508 7.6992L0.847608 8.02353L0.790606 8.34982L0.747363 8.67807L0.708051 9.01222L0.682498 9.34834L0.666773 9.68839L0.662842 10.0304L0.674635 10.5336L0.713947 11.0329L0.776847 11.5203L0.859402 12.0019L0.96751 12.4697L1.09724 12.9316L1.25056 13.3798L1.42353 13.8201L1.62009 14.2486L1.83238 14.6653L2.06432 15.0682L2.31395 15.4535L2.5793 15.8309L2.86432 16.1926L3.16702 16.5385L3.48545 16.8707L3.81567 17.1872L4.16358 17.4859L4.52328 17.767L4.89675 18.0324L5.28201 18.2781L5.67906 18.5061L6.0879 18.7184L6.50658 18.9051L6.93704 19.0761L7.37537 19.2216L7.8196 19.3513L8.27169 19.4555L8.7336 19.538L9.20142 19.597L9.67709 19.6363L10.1567 19.6461L10.3945 19.6422L10.6343 19.6324L10.8702 19.6166L11.11 19.595L11.3459 19.5655L11.5778 19.5321L11.8098 19.4908L12.0417 19.4456L12.2697 19.3945L12.4997 19.3356L12.7238 19.2707L12.9479 19.1999L13.17 19.1252L13.3901 19.0466L13.6024 18.9621L13.8206 18.8717L14.0289 18.7793L14.2393 18.6791L14.4456 18.5749L14.6481 18.4668L14.8506 18.3547L15.0452 18.2368L15.2397 18.1169L15.4304 17.9891L15.6171 17.8594L15.7999 17.7257L15.9808 17.5881L16.1577 17.4506L16.3287 17.3031L16.4977 17.1557L16.6609 17.0024L16.8221 16.8451L16.8555 16.8137L16.883 16.7744L16.9085 16.739L16.9262 16.6997L16.942 16.6643L16.9538 16.625L16.9616 16.5935L16.9655 16.5542V16.5228L16.9616 16.4913L16.9538 16.456L16.942 16.4225L16.9262 16.397L16.9105 16.3675L16.8909 16.34L16.8692 16.3144L16.8456 16.2967L16.8201 16.2751L16.7906 16.2594L16.7611 16.2437L16.7297 16.2319L16.6963 16.224L16.6628 16.2201L16.6294 16.2162L16.5921 16.2201L16.5528 16.224L16.5174 16.2358L16.48 16.2515L16.4388 16.2712L16.4014 16.2928L16.3641 16.3223L16.3248 16.3498Z" fill="#939CB7"/>
</svg>
