<svg width="95" height="25" viewBox="0 0 95 25" fill="none" xmlns="http://www.w3.org/2000/svg">
<g clip-path="url(#clip0_10740_5468)">
<mask id="mask0_10740_5468" style="mask-type:luminance" maskUnits="userSpaceOnUse" x="0" y="1" width="95" height="24">
<path d="M0.0853882 1.1908H94.8854V24.0592H0.0853882V1.1908Z" fill="white"/>
</mask>
<g mask="url(#mask0_10740_5468)">
<path d="M10.4933 11.0408H22.5399C22.4376 10.3342 22.2663 9.63926 22.0283 8.96605H10.9334C10.0517 8.96605 9.69911 8.63508 9.83154 7.88458L11.0172 1.63361C10.7143 1.65117 10.4123 1.68085 10.1118 1.72258L8.35445 8.41347C7.86922 10.2891 8.48708 11.0394 10.492 11.0394L10.4933 11.0408Z" fill="white"/>
<path d="M9.83151 14.3085C6.5923 14.3085 5.13891 12.5206 6.12953 9.69515L8.85087 1.9756C8.51815 2.06286 8.18973 2.16574 7.8667 2.28391L4.45327 10.1136C2.84521 13.8225 4.87259 16.3819 9.5654 16.3819H22.0023C22.2443 15.709 22.4203 15.0141 22.5276 14.3071H9.82901L9.83151 14.3085Z" fill="white"/>
<path d="M10.9333 8.96606H22.0283C20.5173 4.68342 16.4415 1.6149 11.6501 1.6149C11.4375 1.6149 11.2273 1.62114 11.0186 1.63361L9.83273 7.88459C9.7003 8.63509 10.0529 8.96585 10.9346 8.96585L10.9333 8.96606Z" fill="#939CB7"/>
<path d="M4.45598 10.1147L7.8692 2.28535C3.69051 3.81504 0.75774 7.79311 0.649011 12.3475C0.591424 24.9033 17.582 28.0057 22.0058 16.3844H9.56894C4.8751 16.3844 2.84895 13.8235 4.45723 10.1159L4.45598 10.1147Z" fill="#939CB7"/>
<path d="M9.83153 14.3085H22.5297C22.6125 13.7647 22.6549 13.2084 22.6549 12.6421C22.6557 12.1065 22.6168 11.5717 22.5385 11.0419H10.4922C8.48729 11.0419 7.87067 10.2914 8.35465 8.41597L10.1118 1.72508C9.68268 1.78537 9.26253 1.86915 8.8511 1.97705L6.12955 9.69618C5.13769 12.5217 6.59233 14.3098 9.83153 14.3098V14.3085ZM26.2883 13.6645C26.2883 9.07728 29.6776 5.61542 34.1901 5.61542C37.0516 5.61542 39.3189 7.29188 40.2646 9.91572L37.0955 10.8201C36.6115 9.40929 35.4219 8.61492 33.8825 8.61492C31.2634 8.61492 29.3699 10.6224 29.3699 13.3774C29.3699 15.5389 30.757 16.9723 33.0018 16.9723C34.5203 16.9723 35.8859 16.1565 36.5676 14.7672L39.363 16.1779C38.0422 18.5157 35.5334 20.0144 32.6929 20.0144C28.8635 20.0144 26.2883 17.2806 26.2883 13.6632V13.6645ZM40.0245 14.8998C40.0245 11.3277 42.7323 8.39435 46.0117 8.39435C47.5522 8.39435 48.6968 8.92323 49.4459 10.0045L50.0188 8.7039H52.4175L51.2508 19.7298H48.4116L48.5654 18.4292C47.575 19.5092 46.3418 20.0394 44.8009 20.0394C42.0718 20.0394 40.0245 17.8118 40.0245 14.901V14.8998ZM49.027 13.8198C49.027 12.2096 47.9039 11.1072 46.253 11.1072C44.3381 11.1072 42.8849 12.6281 42.8849 14.6129C42.8849 16.2228 43.9629 17.3255 45.614 17.3255C47.5511 17.3255 49.0255 15.8043 49.0255 13.8198H49.027ZM64.2592 16.0249L64.7432 11.4379H62.8281L63.1145 8.70411H65.0292L65.2721 6.47631L68.1999 5.61666L67.8697 8.7039H70.3574L70.0709 11.4377H67.5832L67.0993 16.0249C67.0117 16.9295 67.4957 17.1939 68.5961 17.1939C68.8389 17.1939 69.1693 17.1712 69.4767 17.1502L69.1905 19.7298C68.6402 19.7963 68.1562 19.8175 67.7159 19.8175C64.8542 19.8175 63.9962 18.5608 64.2602 16.0249H64.2592ZM70.7089 19.7288L71.8758 8.70265H74.2747L74.5824 10.0032C75.4404 8.98851 76.8061 8.48229 78.0817 8.48229L77.774 11.4365H77.3115C75.7481 11.4365 74.3172 12.3414 74.1197 14.2597L73.5467 19.7286H70.7077L70.7089 19.7288ZM77.664 14.8559C77.664 11.2614 80.5257 8.39455 84.1138 8.39455C87.1517 8.39455 89.3527 10.6224 89.3527 13.5765C89.3527 17.1712 86.4915 20.0381 82.9032 20.0381C79.8652 20.0381 77.664 17.8105 77.664 14.8559ZM86.4902 13.8198C86.4902 12.2537 85.4333 11.1735 83.8263 11.1735C81.9552 11.1735 80.5245 12.6508 80.5245 14.6141C80.5245 16.1804 81.5812 17.2602 83.1884 17.2602C85.0595 17.2602 86.4902 15.7831 86.4902 13.8198ZM90.0134 19.7288L91.4005 6.47631L94.3283 5.61666L92.8537 19.7298H90.0145L90.0134 19.7288ZM52.3273 16.996L55.2116 16.0262C55.5856 16.9748 56.2686 17.4596 57.2802 17.4596C58.2922 17.4596 58.8211 17.085 58.8211 16.5561C58.8211 14.9686 53.6046 15.6969 53.6046 12.2787C53.6046 10.0296 55.5418 8.39809 58.1833 8.39809C60.0543 8.39809 61.4626 9.50097 62.0354 11.4631L59.2402 12.2572C59.0198 11.3751 58.5361 10.9342 57.7868 10.9342C57.0376 10.9342 56.5324 11.3527 56.5324 11.8828C56.5324 13.4489 61.8154 12.5217 61.8154 16.2054C61.8154 18.477 59.8566 20.0419 56.9288 20.0419C54.6177 20.0419 53.0543 19.0057 52.3288 16.9983L52.3273 16.996Z" fill="#939CB7"/>
</g>
</g>
<defs>
<clipPath id="clip0_10740_5468">
<rect width="94.8" height="24" fill="white" transform="translate(0.0853882 0.625)"/>
</clipPath>
</defs>
</svg>
