<svg width="77" height="25" viewBox="0 0 77 25" fill="none" xmlns="http://www.w3.org/2000/svg">
<g clip-path="url(#clip0_10740_5400)">
<path d="M53.75 2.46723C53.75 2.46723 52.3158 3.03819 50.6477 4.87669C48.9796 6.71519 48.0081 8.78257 48.7271 9.33237C49.0033 9.54135 49.6401 9.58116 50.7957 8.53627C51.8622 7.61033 52.6993 6.44961 53.2413 5.14537C53.9876 3.32553 53.75 2.48962 53.75 2.46972M62.8791 5.77479C61.0256 4.82444 59.671 3.66014 58.2617 2.93992C56.917 2.24955 56.0475 1.96096 54.9603 2.1065C54.8087 2.13353 54.6591 2.17094 54.5125 2.21845C54.5125 2.21845 55.0723 4.13034 52.8444 7.34212C50.588 10.5987 48.5405 10.5763 47.9584 9.68191C47.3489 8.73778 48.1362 6.81346 49.4511 5.10059C50.8281 3.30936 53.2462 1.82413 53.2462 1.82413C53.2462 1.82413 52.475 1.35269 50.5818 2.42619C48.7346 3.46858 45.5551 5.9564 42.6046 10.1521C39.654 14.3478 39.0694 16.6565 38.6465 18.4739C38.2235 20.2912 38.6079 22.2379 40.623 22.2379C42.6382 22.2379 44.9842 19.1642 45.6459 18.0957C46.8762 16.1055 47.6785 13.0529 46.0042 13.4721C45.1795 13.6786 44.5115 14.5916 44.0898 15.4711C43.8236 16.0359 43.62 16.6282 43.4828 17.2374C42.8977 17.4786 42.3483 17.7983 41.8495 18.1878C41.2947 18.5987 40.7762 19.0565 40.2996 19.5561C40.2996 19.5561 40.3071 18.1032 41.4652 15.7522C42.6232 13.4012 44.7491 12.3277 45.9532 12.227C47.0379 12.1399 48.4497 13.0604 47.2531 16.4562C46.0564 19.8521 42.5262 23.9807 38.8181 24.0317C35.3961 24.0789 33.1571 19.7116 37.92 12.0901C43.1917 3.67009 49.3752 1.08649 51.3829 0.799151C53.3905 0.511808 54.0436 1.39747 54.0436 1.39747C55.2521 0.901656 56.5574 0.68645 57.8611 0.768053C60.3129 0.933493 62.2086 2.66875 64.7114 3.88778C64.0608 4.50973 63.4401 5.16279 62.8803 5.77479M73.8939 2.93992C72.1947 4.02959 69.8437 5.01725 67.5848 4.80579C67.0126 5.39664 66.4006 6.08079 65.7873 6.82714C69.7044 7.6021 73.1364 5.17523 74.9612 3.10909C75.6264 2.36624 76.1979 1.5445 76.6628 0.662321C75.8321 1.52764 74.9023 2.29211 73.8927 2.93992M68.6769 13.9759C68.7066 13.9242 68.7308 13.8696 68.7491 13.8129C68.7374 13.7232 68.6954 13.6402 68.63 13.5778C68.5646 13.5153 68.4797 13.4771 68.3896 13.4696C68.0164 13.4522 67.5077 13.5231 66.173 15.0009C65.0657 16.2212 64.1127 17.5731 63.3356 19.0262C62.5718 20.4218 62.2621 21.4617 62.7012 21.7304C62.8439 21.8043 63.0093 21.8212 63.1639 21.7777C63.4612 21.7068 63.7983 21.4282 64.3108 20.8348C64.5509 20.5562 64.8171 20.1619 65.1355 19.7252C66.0187 18.5236 68.2378 14.7409 68.6769 13.9759ZM54.8123 15.583C55.035 15.0009 55.3186 13.8577 54.729 13.4087C54.0958 12.9322 52.4812 14.0505 52.4725 15.1974C52.4613 16.3717 53.6095 16.9028 53.8844 16.9774C54.0411 17.0197 54.0958 17.0135 54.1717 16.8879C54.4152 16.4683 54.6293 16.0323 54.8123 15.583ZM53.5908 17.7188C53.1907 17.5341 52.8174 17.296 52.4812 17.011C52.1441 16.7282 51.8623 16.3853 51.6503 15.9997C51.6279 15.9624 51.6055 15.991 51.5806 16.0246C51.5558 16.0582 51.4562 16.149 50.5955 17.4103C49.7347 18.6717 48.4124 21.2851 49.609 21.7304C50.3753 22.0153 51.6503 20.6731 52.3456 19.7837C52.8194 19.1629 53.2488 18.5095 53.6306 17.8283C53.6667 17.7524 53.6306 17.735 53.592 17.7188M67.1656 20.7378C66.8409 21.2577 66.4702 22.2554 67.5388 21.6346C68.8461 20.8796 70.7082 18.0547 70.7082 18.0547H71.5529C70.7843 19.2364 69.9286 20.359 68.9929 21.4132C67.6681 22.881 66.0523 24.2145 64.9141 24.0827C63.5844 23.9272 64.0011 22.182 64.0011 22.182C64.0011 22.182 62.0991 24.2071 60.7831 24.0615C59.0055 23.865 59.5479 21.6682 59.5479 21.6682C59.5479 21.6682 57.5377 24.1349 56.1682 24.059C54.0212 23.9346 54.561 21.3224 55.1581 19.4827C55.4778 18.4987 55.7739 17.7263 55.7739 17.7263C55.7739 17.7263 55.5611 17.7823 55.1034 17.8507C54.8646 17.8843 54.4292 17.9091 54.4292 17.9091C54.4292 17.9091 53.5348 19.4864 52.8196 20.4343C52.1043 21.3821 49.0642 24.6499 47.2755 23.9956C45.6211 23.391 46.1684 20.8584 47.1312 18.8458C48.5368 15.9114 52.4899 11.6958 54.77 12.2531C57.1334 12.8265 54.8235 17.1392 54.8235 17.1392C54.8235 17.1392 54.8235 17.1553 54.8484 17.1665C54.8957 17.1839 55.0188 17.1976 55.3037 17.1416C55.5989 17.0814 55.8881 16.9953 56.1682 16.8842C56.1682 16.8842 58.544 11.9085 61.1687 8.6532C63.7933 5.39789 69.029 -0.208416 71.0839 1.14745C71.5815 1.48081 71.3576 2.62894 70.6809 4.02212C70.3761 4.12112 70.0664 4.20416 69.7529 4.2709C70.2057 3.44868 70.5055 2.75582 70.595 2.27194C70.9048 0.590174 66.9778 4.13781 64.1715 7.94915C62.4811 10.2468 60.9794 12.6775 59.681 15.2173C60.1879 14.9081 60.6718 14.5627 61.1289 14.1836C62.3806 13.1457 63.5702 12.0351 64.6915 10.8574C65.7711 9.75206 66.7838 8.58319 67.7241 7.35705C68.0229 7.3426 68.3206 7.31187 68.616 7.265C67.5908 8.65646 66.4729 9.97718 65.2699 11.2181C64.1503 12.3501 62.9388 13.5679 61.8864 14.4523C60.9465 15.2516 59.955 15.9884 58.9185 16.6578C58.9185 16.6578 56.4642 21.6073 57.7989 21.9245C58.5838 22.1136 60.1338 19.7265 60.1338 19.7265C60.1338 19.7265 62.1564 16.6403 63.3754 15.2484C65.0385 13.3577 66.4702 12.263 67.9007 12.2431C68.7342 12.2282 69.2255 13.1139 69.2255 13.1139L69.6173 12.5068H72.0305C72.0305 12.5068 67.5238 20.1544 67.1631 20.7303M73.8927 2.93992C72.1935 4.02959 69.8425 5.01725 67.5835 4.80579C67.0113 5.39664 66.3993 6.08079 65.7861 6.82714C69.7032 7.6021 73.1351 5.17523 74.9599 3.10909C75.6256 2.36631 76.1975 1.54457 76.6628 0.662321C75.8321 1.52764 74.9023 2.29211 73.8927 2.93992ZM40.0023 6.69155H37.7073L36.4099 8.78754H38.7049L40.0023 6.69155ZM29.1355 13.9498C30.112 12.6113 32.8063 7.92054 32.8063 7.92054C32.7949 7.83094 32.7532 7.74796 32.6879 7.68546C32.6227 7.62297 32.5381 7.58476 32.4481 7.57722C32.0749 7.5598 31.4529 7.68544 30.2177 9.23162C28.9825 10.7778 28.0235 12.008 27.3244 13.288C26.5581 14.6849 26.2235 15.6701 26.6639 15.9375C26.8068 16.0091 26.9709 16.0259 27.1254 15.9848C27.4115 15.9127 27.7859 15.6253 28.2996 15.0345C28.5409 14.7583 28.8146 14.3864 29.1355 13.9498ZM16.8208 7.60583C16.1864 7.12692 14.5731 8.24768 14.5644 9.39208C14.5544 10.5676 16.016 10.9271 16.2051 10.9358C16.2607 10.9404 16.3164 10.9287 16.3655 10.9022C16.3993 10.8825 16.4262 10.853 16.4427 10.8176C16.6145 10.4799 16.769 10.1337 16.9054 9.78018C17.1281 9.19803 17.4104 8.05488 16.8208 7.60583ZM15.8642 11.6523C15.4268 11.5156 15.0087 11.3233 14.6203 11.0801C14.2439 10.8347 13.9379 10.4956 13.7322 10.0961C13.7098 10.0588 13.6849 10.0874 13.6625 10.121C13.6401 10.1546 13.5108 10.3163 12.6475 11.5826C11.7842 12.8489 10.5055 15.4387 11.7034 15.884C12.4671 16.1739 13.7571 14.8205 14.4574 13.9348C14.9815 13.2388 15.4657 12.5137 15.9078 11.763C15.9364 11.6871 15.9078 11.6697 15.8655 11.656M34.6087 12.4322H35.4496C35.4496 12.4322 31.2365 18.5274 28.8569 18.2437C27.5284 18.0883 27.9227 16.4488 27.9227 16.4488C27.9227 16.4488 26.0568 18.6331 24.3427 18.1903C22.7878 17.791 23.7917 15.2049 23.7917 15.2049C23.615 15.2758 20.2503 19.0685 17.8856 18.1592C15.4115 17.2038 16.6964 14.0281 17.1666 13.0728C17.5659 12.268 18.0075 11.4843 18.0075 11.4843C18.0075 11.4843 17.6281 11.5913 17.3855 11.646C17.143 11.7008 16.7922 11.7704 16.7922 11.7704C16.7922 11.7704 15.6217 13.6724 14.9064 14.6215C14.1912 15.5706 11.1511 18.8321 9.35984 18.1828C7.56861 17.5335 8.01268 15.027 9.01901 13.0367C10.651 9.80879 14.5233 5.84196 16.8556 6.44402C19.2116 7.04482 17.2612 10.8661 17.2612 10.8661C17.2612 10.8661 17.7301 10.9271 18.8534 10.1608C20.4704 9.05747 22.605 6.0895 24.9162 6.4378C26.0058 6.60199 27.0209 7.71529 25.6327 9.82994C25.1898 10.5091 24.4472 11.1161 23.8788 10.5153C23.5242 10.1422 23.834 9.46174 24.2059 8.99652C24.3507 8.80687 24.5398 8.65573 24.7567 8.55638C24.9737 8.45703 25.2117 8.41254 25.4498 8.42681C25.4498 8.42681 25.8317 7.55607 24.8602 7.56851C24.0741 7.58344 22.0838 9.41572 20.9605 11.2667C19.9306 12.9658 18.3695 15.8604 19.9368 16.4911C21.3735 17.0707 24.1076 13.8254 25.3739 12.125C26.6402 10.4245 29.5261 6.57089 31.9468 6.41665C32.7802 6.36192 33.2765 7.12195 33.2765 7.12195L33.5564 6.67911H35.977C35.977 6.67911 31.4181 14.2869 31.0623 14.8628C30.7825 15.3131 30.4105 16.3256 31.4355 15.7584C32.4605 15.1912 34.6087 12.4322 34.6087 12.4322ZM33.2914 24.6225C31.5091 23.3887 29.3749 22.7659 27.2087 22.8475C26.6224 22.8634 26.0481 23.0174 25.5325 23.2969C25.0168 23.5763 24.5742 23.9734 24.2407 24.4558C23.3178 22.845 21.4929 21.8561 18.6718 21.8785C14.1128 21.9307 9.59121 24.0329 6.00875 24.0304C2.57555 24.0304 0.0715618 21.8722 0.152416 18.0397C0.302929 11.3139 5.98635 5.25732 10.2281 2.53192C12.6736 0.965835 14.7186 0.500613 16.0558 0.651126C17.031 0.759346 18.204 1.88633 17.4639 3.54695C16.3767 5.97382 14.8753 5.77479 14.9313 4.61422C14.9624 3.85917 15.4649 3.384 15.8431 3.12153C16.0832 2.95609 16.5073 2.90882 16.7288 2.90385C16.944 2.72224 17.1019 1.39374 15.3605 1.83035C13.619 2.26696 11.5043 3.98356 9.49667 6.20145C7.489 8.41934 4.36305 12.6113 3.59058 17.0135C3.22985 19.0548 3.46619 22.7778 8.30625 22.7355C12.4111 22.7019 18.4615 19.9989 24.0218 20.0549C26.18 20.076 28.0583 20.6582 29.5224 21.5613C30.9603 22.4469 32.6844 23.7406 33.2964 24.6238" fill="#939CB7"/>
</g>
<defs>
<clipPath id="clip0_10740_5400">
<rect width="76.5104" height="24" fill="white" transform="translate(0.152405 0.625)"/>
</clipPath>
</defs>
</svg>
