<svg width="77" height="25" viewBox="0 0 77 25" fill="none" xmlns="http://www.w3.org/2000/svg">
<g clip-path="url(#clip0_9894_6003)">
<path d="M54.0473 2.46723C54.0473 2.46723 52.613 3.03819 50.9449 4.87669C49.2769 6.71519 48.3054 8.78257 49.0243 9.33237C49.3005 9.54135 49.9374 9.58116 51.093 8.53627C52.1594 7.61033 52.9966 6.44961 53.5385 5.14537C54.2848 3.32553 54.0473 2.48962 54.0473 2.46972M63.1763 5.77479C61.3229 4.82444 59.9683 3.66014 58.5589 2.93992C57.2142 2.24955 56.3448 1.96096 55.2576 2.1065C55.1059 2.13353 54.9563 2.17094 54.8098 2.21845C54.8098 2.21845 55.3695 4.13034 53.1417 7.34212C50.8852 10.5987 48.8378 10.5763 48.2556 9.68191C47.6461 8.73778 48.4335 6.81346 49.7483 5.10059C51.1253 3.30936 53.5435 1.82413 53.5435 1.82413C53.5435 1.82413 52.7722 1.35269 50.879 2.42619C49.0318 3.46858 45.8524 5.9564 42.9018 10.1521C39.9513 14.3478 39.3666 16.6565 38.9437 18.4739C38.5208 20.2912 38.9051 22.2379 40.9203 22.2379C42.9354 22.2379 45.2814 19.1642 45.9432 18.0957C47.1734 16.1055 47.9757 13.0529 46.3014 13.4721C45.4767 13.6786 44.8087 14.5916 44.3871 15.4711C44.1208 16.0359 43.9173 16.6282 43.78 17.2374C43.195 17.4786 42.6455 17.7983 42.1468 18.1878C41.592 18.5987 41.0734 19.0565 40.5969 19.5561C40.5969 19.5561 40.6043 18.1032 41.7624 15.7522C42.9205 13.4012 45.0463 12.3277 46.2504 12.227C47.3351 12.1399 48.747 13.0604 47.5503 16.4562C46.3537 19.8521 42.8235 23.9807 39.1154 24.0317C35.6934 24.0789 33.4543 19.7116 38.2173 12.0901C43.4889 3.67009 49.6724 1.08649 51.6801 0.799151C53.6878 0.511808 54.3408 1.39747 54.3408 1.39747C55.5494 0.901656 56.8546 0.68645 58.1584 0.768053C60.6101 0.933493 62.5058 2.66875 65.0086 3.88778C64.358 4.50973 63.7373 5.16279 63.1776 5.77479M74.1911 2.93992C72.492 4.02959 70.141 5.01725 67.882 4.80579C67.3098 5.39664 66.6978 6.08079 66.0846 6.82714C70.0017 7.6021 73.4336 5.17523 75.2584 3.10909C75.9237 2.36624 76.4952 1.5445 76.9601 0.662321C76.1293 1.52764 75.1995 2.29211 74.1899 2.93992M68.9742 13.9759C69.0039 13.9242 69.028 13.8696 69.0463 13.8129C69.0347 13.7232 68.9927 13.6402 68.9272 13.5778C68.8618 13.5153 68.777 13.4771 68.6868 13.4696C68.3137 13.4522 67.8049 13.5231 66.4702 15.0009C65.3629 16.2212 64.41 17.5731 63.6328 19.0262C62.8691 20.4218 62.5593 21.4617 62.9984 21.7304C63.1411 21.8043 63.3065 21.8212 63.4612 21.7777C63.7585 21.7068 64.0956 21.4282 64.6081 20.8348C64.8481 20.5562 65.1143 20.1619 65.4328 19.7252C66.3159 18.5236 68.5351 14.7409 68.9742 13.9759ZM55.1096 15.583C55.3322 15.0009 55.6158 13.8577 55.0262 13.4087C54.3931 12.9322 52.7785 14.0505 52.7698 15.1974C52.7586 16.3717 53.9067 16.9028 54.1816 16.9774C54.3383 17.0197 54.3931 17.0135 54.4689 16.8879C54.7124 16.4683 54.9265 16.0323 55.1096 15.583ZM53.888 17.7188C53.4879 17.5341 53.1147 17.296 52.7785 17.011C52.4413 16.7282 52.1596 16.3853 51.9475 15.9997C51.9251 15.9624 51.9028 15.991 51.8779 16.0246C51.853 16.0582 51.7535 16.149 50.8927 17.4103C50.0319 18.6717 48.7096 21.2851 49.9063 21.7304C50.6725 22.0153 51.9475 20.6731 52.6429 19.7837C53.1166 19.1629 53.546 18.5095 53.9278 17.8283C53.9639 17.7524 53.9278 17.735 53.8893 17.7188M67.4628 20.7378C67.1382 21.2577 66.7675 22.2554 67.836 21.6346C69.1433 20.8796 71.0055 18.0547 71.0055 18.0547H71.8501C71.0816 19.2364 70.2259 20.359 69.2901 21.4132C67.9654 22.881 66.3495 24.2145 65.2113 24.0827C63.8816 23.9272 64.2983 22.182 64.2983 22.182C64.2983 22.182 62.3964 24.2071 61.0803 24.0615C59.3028 23.865 59.8451 21.6682 59.8451 21.6682C59.8451 21.6682 57.835 24.1349 56.4654 24.059C54.3184 23.9346 54.8583 21.3224 55.4554 19.4827C55.775 18.4987 56.0711 17.7263 56.0711 17.7263C56.0711 17.7263 55.8584 17.7823 55.4006 17.8507C55.1618 17.8843 54.7264 17.9091 54.7264 17.9091C54.7264 17.9091 53.8321 19.4864 53.1168 20.4343C52.4016 21.3821 49.3614 24.6499 47.5727 23.9956C45.9183 23.391 46.4656 20.8584 47.4284 18.8458C48.834 15.9114 52.7872 11.6958 55.0673 12.2531C57.4307 12.8265 55.1208 17.1392 55.1208 17.1392C55.1208 17.1392 55.1207 17.1553 55.1456 17.1665C55.1929 17.1839 55.316 17.1976 55.6009 17.1416C55.8961 17.0814 56.1854 16.9953 56.4654 16.8842C56.4654 16.8842 58.8413 11.9085 61.4659 8.6532C64.0906 5.39789 69.3262 -0.208416 71.3811 1.14745C71.8787 1.48081 71.6548 2.62894 70.9781 4.02212C70.6733 4.12112 70.3636 4.20416 70.0502 4.2709C70.503 3.44868 70.8027 2.75582 70.8923 2.27194C71.202 0.590174 67.275 4.13781 64.4687 7.94915C62.7784 10.2468 61.2767 12.6775 59.9782 15.2173C60.4852 14.9081 60.9691 14.5627 61.4261 14.1836C62.6779 13.1457 63.8674 12.0351 64.9887 10.8574C66.0684 9.75206 67.0811 8.58319 68.0213 7.35705C68.3201 7.3426 68.6178 7.31187 68.9132 7.265C67.888 8.65646 66.7701 9.97718 65.5671 11.2181C64.4476 12.3501 63.236 13.5679 62.1837 14.4523C61.2437 15.2516 60.2522 15.9884 59.2157 16.6578C59.2157 16.6578 56.7615 21.6073 58.0962 21.9245C58.8811 22.1136 60.431 19.7265 60.431 19.7265C60.431 19.7265 62.4536 16.6403 63.6726 15.2484C65.3357 13.3577 66.7675 12.263 68.198 12.2431C69.0314 12.2282 69.5227 13.1139 69.5227 13.1139L69.9146 12.5068H72.3278C72.3278 12.5068 67.8211 20.1544 67.4603 20.7303M74.1899 2.93992C72.4907 4.02959 70.1397 5.01725 67.8808 4.80579C67.3086 5.39664 66.6966 6.08079 66.0833 6.82714C70.0004 7.6021 73.4324 5.17523 75.2572 3.10909C75.9229 2.36631 76.4948 1.54457 76.9601 0.662321C76.1293 1.52764 75.1995 2.29211 74.1899 2.93992ZM40.2996 6.69155H38.0045L36.7071 8.78754H39.0022L40.2996 6.69155ZM29.4328 13.9498C30.4092 12.6113 33.1035 7.92054 33.1035 7.92054C33.0922 7.83094 33.0504 7.74796 32.9852 7.68546C32.92 7.62297 32.8353 7.58476 32.7453 7.57722C32.3721 7.5598 31.7502 7.68544 30.515 9.23162C29.2798 10.7778 28.3207 12.008 27.6216 13.288C26.8554 14.6849 26.5208 15.6701 26.9611 15.9375C27.104 16.0091 27.2682 16.0259 27.4226 15.9848C27.7087 15.9127 28.0831 15.6253 28.5969 15.0345C28.8382 14.7583 29.1118 14.3864 29.4328 13.9498ZM17.1181 7.60583C16.4837 7.12692 14.8703 8.24768 14.8616 9.39208C14.8516 10.5676 16.3132 10.9271 16.5023 10.9358C16.5579 10.9404 16.6137 10.9287 16.6628 10.9022C16.6965 10.8825 16.7234 10.853 16.7399 10.8176C16.9117 10.4799 17.0662 10.1337 17.2026 9.78018C17.4253 9.19803 17.7077 8.05488 17.1181 7.60583ZM16.1615 11.6523C15.724 11.5156 15.306 11.3233 14.9176 11.0801C14.5412 10.8347 14.2351 10.4956 14.0294 10.0961C14.007 10.0588 13.9822 10.0874 13.9598 10.121C13.9374 10.1546 13.808 10.3163 12.9447 11.5826C12.0815 12.8489 10.8027 15.4387 12.0006 15.884C12.7644 16.1739 14.0543 14.8205 14.7546 13.9348C15.2787 13.2388 15.7629 12.5137 16.205 11.763C16.2336 11.6871 16.205 11.6697 16.1627 11.656M34.906 12.4322H35.7468C35.7468 12.4322 31.5337 18.5274 29.1541 18.2437C27.8256 18.0883 28.22 16.4488 28.22 16.4488C28.22 16.4488 26.3541 18.6331 24.64 18.1903C23.0851 17.791 24.0889 15.2049 24.0889 15.2049C23.9123 15.2758 20.5475 19.0685 18.1828 18.1592C15.7087 17.2038 16.9937 14.0281 17.4639 13.0728C17.8632 12.268 18.3047 11.4843 18.3047 11.4843C18.3047 11.4843 17.9254 11.5913 17.6828 11.646C17.4402 11.7008 17.0894 11.7704 17.0894 11.7704C17.0894 11.7704 15.9189 13.6724 15.2037 14.6215C14.4884 15.5706 11.4483 18.8321 9.65708 18.1828C7.86585 17.5335 8.30992 15.027 9.31625 13.0367C10.9483 9.80879 14.8206 5.84196 17.1529 6.44402C19.5088 7.04482 17.5584 10.8661 17.5584 10.8661C17.5584 10.8661 18.0274 10.9271 19.1506 10.1608C20.7677 9.05747 22.9022 6.0895 25.2134 6.4378C26.3031 6.60199 27.3181 7.71529 25.9299 9.82994C25.4871 10.5091 24.7445 11.1161 24.176 10.5153C23.8215 10.1422 24.1312 9.46174 24.5031 8.99652C24.6479 8.80687 24.8371 8.65573 25.054 8.55638C25.2709 8.45703 25.5089 8.41254 25.7471 8.42681C25.7471 8.42681 26.1289 7.55607 25.1574 7.56851C24.3713 7.58344 22.381 9.41572 21.2578 11.2667C20.2278 12.9658 18.6667 15.8604 20.234 16.4911C21.6708 17.0707 24.4049 13.8254 25.6712 12.125C26.9375 10.4245 29.8234 6.57089 32.244 6.41665C33.0774 6.36192 33.5737 7.12195 33.5737 7.12195L33.8536 6.67911H36.2743C36.2743 6.67911 31.7153 14.2869 31.3596 14.8628C31.0797 15.3131 30.7078 16.3256 31.7328 15.7584C32.7577 15.1912 34.906 12.4322 34.906 12.4322ZM33.5887 24.6225C31.8063 23.3887 29.6721 22.7659 27.5059 22.8475C26.9196 22.8634 26.3454 23.0174 25.8297 23.2969C25.314 23.5763 24.8715 23.9734 24.538 24.4558C23.615 22.845 21.7902 21.8561 18.969 21.8785C14.4101 21.9307 9.88845 24.0329 6.30599 24.0304C2.87279 24.0304 0.368803 21.8722 0.449657 18.0397C0.60017 11.3139 6.2836 5.25732 10.5253 2.53192C12.9709 0.965835 15.0158 0.500613 16.353 0.651126C17.3283 0.759346 18.5013 1.88633 17.7612 3.54695C16.674 5.97382 15.1726 5.77479 15.2286 4.61422C15.2597 3.85917 15.7622 3.384 16.1403 3.12153C16.3804 2.95609 16.8046 2.90882 17.026 2.90385C17.2412 2.72224 17.3992 1.39374 15.6577 1.83035C13.9162 2.26696 11.8016 3.98356 9.79391 6.20145C7.78624 8.41934 4.66029 12.6113 3.88782 17.0135C3.52709 19.0548 3.76343 22.7778 8.60349 22.7355C12.7084 22.7019 18.7588 19.9989 24.319 20.0549C26.4772 20.076 28.3555 20.6582 29.8196 21.5613C31.2576 22.4469 32.9816 23.7406 33.5936 24.6238" fill="#939CB7"/>
</g>
<defs>
<clipPath id="clip0_9894_6003">
<rect width="76.5104" height="24" fill="white" transform="translate(0.449707 0.625)"/>
</clipPath>
</defs>
</svg>
