<svg width="102" height="25" viewBox="0 0 102 25" fill="none" xmlns="http://www.w3.org/2000/svg">
<path d="M16.6352 2.62262L14.8765 6.9237C14.7809 7.17221 14.4942 7.2869 14.2361 7.19132C14.0259 7.1053 13.9207 6.9237 13.9303 6.71342L14.1597 2.08738C14.1979 1.38009 14.8001 0.854405 15.5073 0.873521C16.2242 0.911753 16.7594 1.5139 16.7308 2.20208C16.7212 2.34544 16.683 2.48881 16.6352 2.62262Z" fill="#939CB7"/>
<path fill-rule="evenodd" clip-rule="evenodd" d="M20.9647 0.625H23.8321C24.1475 0.625 24.4534 0.940411 24.4343 1.22715C24.4343 1.56168 24.2718 1.70505 24.1667 1.80063C24.1571 1.80063 24.1571 1.81018 24.1475 1.81018L17.2849 8.35738V8.36694C17.0651 8.59633 16.6923 8.59633 16.4725 8.36694C16.2909 8.19489 16.2622 7.92727 16.3769 7.71699C16.3769 7.71699 19.6553 1.63814 19.9134 1.16025C20.181 0.691906 20.7449 0.625 20.9647 0.625ZM25.1989 12.6202C25.1989 19.2534 19.7796 24.625 13.0794 24.625C6.39843 24.625 0.959961 19.2534 0.959961 12.6202C0.959961 6.57004 5.47131 1.56168 11.3494 0.730138C11.3781 0.72058 11.3972 0.720579 11.4259 0.720579C11.4546 0.720579 11.4833 0.711021 11.5024 0.711021C11.6935 0.720579 11.856 0.844832 11.9134 1.03599L11.9229 1.20804L12.3913 6.60827L12.4008 6.7612C12.3913 6.95236 12.2479 7.10529 12.0759 7.15307C12.0472 7.15307 12.0185 7.15308 11.9898 7.16263C9.40918 7.6692 7.4498 9.92488 7.4498 12.6298C7.4498 15.7074 9.96354 18.2021 13.0794 18.2021C16.1762 18.2021 18.6899 15.717 18.7091 12.6489V12.6393V12.6107V12.582C18.7186 12.3908 18.8429 12.2379 19.0245 12.1901L19.1105 12.1806L24.5585 11.0623L24.6828 11.0336H24.7115C24.9217 11.0336 25.0938 11.1674 25.1511 11.3777C25.1511 11.3968 25.1511 11.4159 25.1607 11.435C25.1607 11.4542 25.1702 11.4828 25.1702 11.5115C25.1894 11.8556 25.1989 12.2379 25.1989 12.6202ZM16.9217 12.6202C16.9217 14.7134 15.2109 16.4243 13.089 16.4243C10.9767 16.4243 9.2467 14.723 9.2467 12.6202C9.2467 10.527 10.9576 8.81616 13.089 8.81616C15.2109 8.82572 16.9217 10.527 16.9217 12.6202Z" fill="#939CB7"/>
<path d="M23.2107 9.13159L18.7662 10.5557C18.5082 10.6417 18.231 10.4984 18.145 10.2403C18.078 10.0396 18.1545 9.81976 18.3074 9.69551L22.0255 6.89503C22.5894 6.47448 23.4018 6.57962 23.8224 7.14353C24.2525 7.69789 24.1378 8.50076 23.5739 8.92131C23.4687 9.02645 23.3349 9.09336 23.2107 9.13159Z" fill="#939CB7"/>
<path d="M38.3507 18.0205H40.9983C40.6828 19.0432 40.0616 19.8938 39.144 20.5342C38.2264 21.1746 37.2229 21.4995 36.1237 21.4995C35.4642 21.4995 34.8238 21.3753 34.1739 21.1172C33.5335 20.8592 32.9696 20.4864 32.463 20.0276C31.966 19.5497 31.5741 18.9858 31.3065 18.3359C31.0293 17.6764 30.8955 16.9882 30.8955 16.2618C30.8955 14.8377 31.4021 13.6525 32.4152 12.6584C33.4284 11.674 34.6613 11.1865 36.1046 11.1865C37.2038 11.1865 38.2073 11.5115 39.1345 12.171C40.0711 12.8305 40.6733 13.6716 40.9696 14.7134H38.322C38.064 14.2929 37.7486 13.9774 37.3854 13.7672C37.0317 13.5665 36.5729 13.4709 36.0664 13.4709C35.2157 13.4709 34.5466 13.7481 34.021 14.2737C33.4953 14.809 33.2563 15.4876 33.2563 16.3096C33.2563 17.1602 33.5335 17.8675 34.0783 18.4123C34.6231 18.9762 35.3304 19.2439 36.1906 19.2439C36.6303 19.2439 37.0317 19.1387 37.414 18.9189C37.8059 18.6704 38.1213 18.3837 38.3507 18.0205Z" fill="#939CB7"/>
<path d="M47.1342 11.177C48.5584 11.177 49.7722 11.6835 50.7567 12.6871C51.7412 13.7003 52.2477 14.9237 52.2477 16.3574C52.2477 17.772 51.7412 18.9858 50.7089 19.999C49.6767 21.0121 48.4628 21.4996 47.0196 21.4996C45.605 21.4996 44.3816 20.993 43.3684 19.9703C42.3362 18.9571 41.8296 17.7433 41.8296 16.3383C41.8296 14.895 42.3362 13.662 43.3684 12.6585C44.4007 11.6835 45.6528 11.177 47.1342 11.177ZM47.0387 13.4518C46.6659 13.4518 46.2931 13.5378 45.9586 13.6812C45.6145 13.8341 45.2991 14.0539 45.0411 14.3215C44.5058 14.8568 44.2286 15.5354 44.2286 16.3574C44.2286 17.1507 44.5058 17.8293 45.0411 18.3932C45.5763 18.9476 46.2454 19.2248 47.0578 19.2248C47.8798 19.2248 48.5679 18.9476 49.1032 18.4028C49.6384 17.858 49.9156 17.1794 49.9156 16.3574C49.9156 15.5545 49.6384 14.8663 49.0936 14.3024C48.5202 13.7289 47.8415 13.4518 47.0387 13.4518Z" fill="#939CB7"/>
<path d="M43.7988 10.355L46.0641 7.94638H47.9279L50.2218 10.355H47.9279L46.9816 9.2367L45.8825 10.355H43.7988Z" fill="#939CB7"/>
<path d="M60.5631 18.0205H63.2107C62.8952 19.0432 62.274 19.8938 61.3564 20.5342C60.4389 21.1746 59.4353 21.4995 58.3361 21.4995C57.6766 21.4995 57.0362 21.3753 56.3863 21.1172C55.7459 20.8592 55.182 20.4864 54.6754 20.0276C54.1784 19.5497 53.7865 18.9858 53.5189 18.3359C53.2417 17.6764 53.1079 16.9882 53.1079 16.2618C53.1079 14.8377 53.6145 13.6525 54.6276 12.6584C55.6408 11.674 56.8737 11.1865 58.317 11.1865C59.4162 11.1865 60.4197 11.5115 61.3469 12.171C62.2835 12.8305 62.8857 13.6716 63.182 14.7134H60.5344C60.2764 14.2929 59.961 13.9774 59.5978 13.7672C59.225 13.5665 58.7853 13.4709 58.2788 13.4709C57.4281 13.4709 56.759 13.7481 56.2334 14.2737C55.7077 14.809 55.4496 15.4876 55.4496 16.3096C55.4496 17.1602 55.7268 17.8675 56.2716 18.4123C56.8164 18.9762 57.5237 19.2439 58.3839 19.2439C58.8236 19.2439 59.2346 19.1387 59.6073 18.9189C60.0279 18.6704 60.3337 18.3837 60.5631 18.0205Z" fill="#939CB7"/>
<path d="M76.4293 18.0205H79.0769C78.7615 19.0432 78.1402 19.8938 77.2226 20.5342C76.3051 21.1746 75.3015 21.4995 74.2023 21.4995C73.5428 21.4995 72.9024 21.3753 72.2525 21.1172C71.6121 20.8592 71.0482 20.4864 70.5416 20.0276C70.035 19.5497 69.6527 18.9858 69.3851 18.3359C69.1079 17.6764 68.9741 16.9882 68.9741 16.2618C68.9741 14.8377 69.4807 13.6525 70.4938 12.6584C71.507 11.674 72.74 11.1865 74.1832 11.1865C75.2824 11.1865 76.2859 11.5115 77.2131 12.171C78.1497 12.8305 78.7519 13.6716 79.0482 14.7134H76.4006C76.1426 14.2929 75.8367 13.9774 75.464 13.7672C75.0912 13.5665 74.6515 13.4709 74.145 13.4709C73.2943 13.4709 72.6253 13.7481 72.0996 14.2737C71.5739 14.809 71.3158 15.4876 71.3158 16.3096C71.3158 17.1602 71.593 17.8675 72.1378 18.4123C72.6826 18.9762 73.3899 19.2439 74.2501 19.2439C74.6898 19.2439 75.1008 19.1387 75.4735 18.9189C75.875 18.6704 76.1904 18.3837 76.4293 18.0205Z" fill="#939CB7"/>
<path d="M85.2514 11.177C86.6756 11.177 87.8894 11.6835 88.8739 12.6871C89.8584 13.7003 90.3649 14.9237 90.3649 16.3574C90.3649 17.772 89.8584 18.9858 88.8261 19.999C87.813 21.0121 86.58 21.4996 85.1367 21.4996C83.7222 21.4996 82.4987 20.993 81.4856 19.9703C80.4533 18.9571 79.9468 17.7433 79.9468 16.3383C79.9468 14.895 80.4533 13.662 81.4856 12.6585C82.5179 11.6835 83.7699 11.177 85.2514 11.177ZM85.1367 13.4518C84.764 13.4518 84.3912 13.5378 84.0567 13.6812C83.7126 13.8341 83.3972 14.0539 83.1391 14.3215C82.6039 14.8568 82.3267 15.5354 82.3267 16.3574C82.3267 17.1507 82.6039 17.8293 83.1391 18.3932C83.6744 18.9476 84.3434 19.2248 85.1559 19.2248C85.9778 19.2248 86.666 18.9476 87.2013 18.4028C87.7461 17.858 88.0137 17.1794 88.0137 16.3574C88.0137 15.5545 87.7365 14.8663 87.1917 14.3024C86.6373 13.7289 85.9683 13.4518 85.1367 13.4518Z" fill="#939CB7"/>
<path d="M81.9155 10.355L84.1808 7.94638H86.0446L88.3385 10.355H86.0446L85.0792 9.2367L83.9992 10.355H81.9155Z" fill="#939CB7"/>
<path d="M98.6419 18.0205H101.289C100.974 19.0432 100.353 19.8938 99.4352 20.5342C98.5177 21.1746 97.5141 21.4995 96.4149 21.4995C95.7554 21.4995 95.115 21.3753 94.4651 21.1172C93.8247 20.8592 93.2608 20.4864 92.7542 20.0276C92.2477 19.5497 91.8749 18.9858 91.5977 18.3359C91.3205 17.6764 91.1963 16.9882 91.1963 16.2618C91.1963 14.8377 91.7029 13.6525 92.716 12.6584C93.7291 11.674 94.9621 11.1865 96.4054 11.1865C97.5045 11.1865 98.5081 11.5115 99.4352 12.171C100.372 12.8305 100.974 13.6716 101.27 14.7134H98.6228C98.3647 14.2929 98.0493 13.9774 97.6861 13.7672C97.3134 13.5665 96.8737 13.4709 96.3671 13.4709C95.5165 13.4709 94.8474 13.7481 94.3217 14.2737C93.796 14.809 93.538 15.4876 93.538 16.3096C93.538 17.1602 93.8152 17.8675 94.36 18.4123C94.9048 18.9762 95.6121 19.2439 96.4723 19.2439C96.9119 19.2439 97.3229 19.1387 97.6957 18.9189C98.1067 18.6704 98.4125 18.3837 98.6419 18.0205Z" fill="#939CB7"/>
<path d="M49.4664 5.40397L50.2884 3.26299C50.4509 2.84245 50.5942 2.55571 50.7185 2.39322C50.8427 2.23074 50.9957 2.11604 51.1964 2.06825C51.55 1.97267 51.789 2.10648 51.8654 2.45057C51.9323 2.73731 51.7603 3.15786 51.3206 3.70266L49.7245 5.71938C49.6193 5.8532 49.5333 5.9201 49.4951 5.93922C49.409 5.94878 49.3708 5.93922 49.3421 5.8532C49.3135 5.81496 49.3517 5.66204 49.4664 5.40397Z" fill="#939CB7"/>
<path d="M50.4798 6.39801L51.9612 4.63935C52.248 4.29526 52.4869 4.06587 52.6494 3.94162C52.8119 3.81736 53.0031 3.76002 53.2133 3.78869C53.5861 3.81737 53.7486 4.00852 53.7199 4.37173C53.6912 4.66802 53.3949 5.00255 52.7832 5.37531L50.6136 6.76121C50.4606 6.85679 50.3651 6.89502 50.3077 6.89502C50.2217 6.89502 50.1835 6.85679 50.2026 6.77077C50.2026 6.7421 50.2982 6.61784 50.4798 6.39801Z" fill="#939CB7"/>
<path d="M51.3972 7.43982L53.4235 6.35977C53.8249 6.15905 54.1212 6.01569 54.3124 5.97745C54.5227 5.92011 54.7138 5.94878 54.8859 6.04436C55.2108 6.20684 55.2969 6.45535 55.1344 6.78032C55.0006 7.03838 54.5896 7.2391 53.8823 7.36336L51.3399 7.84125C51.1774 7.86993 51.0627 7.87949 51.0149 7.85081C50.948 7.81258 50.9193 7.76479 50.9576 7.69788C51.0149 7.65965 51.1487 7.57363 51.3972 7.43982Z" fill="#939CB7"/>
<path d="M87.5455 5.43265L88.3675 3.28211C88.53 2.86156 88.6734 2.57483 88.7881 2.39322C88.9123 2.23074 89.0652 2.11605 89.266 2.06826C89.6196 1.97268 89.8586 2.10648 89.9541 2.46013C90.021 2.74687 89.849 3.16742 89.4093 3.73134L87.8132 5.75762C87.708 5.89143 87.622 5.95834 87.5838 5.97745C87.4977 5.98701 87.4595 5.97745 87.4308 5.89143C87.3926 5.84364 87.4308 5.69071 87.5455 5.43265Z" fill="#939CB7"/>
<path d="M88.5587 6.42669L90.0497 4.65847C90.3364 4.31438 90.5754 4.08499 90.7379 3.96074C90.9003 3.83648 91.0915 3.77913 91.3018 3.79825C91.6745 3.82692 91.8466 4.02764 91.8084 4.38129C91.7797 4.67758 91.4834 5.02167 90.8621 5.40399L88.6829 6.809C88.53 6.90458 88.4344 6.94282 88.377 6.94282C88.291 6.94282 88.2528 6.90458 88.2719 6.81856C88.2815 6.78033 88.3771 6.64652 88.5587 6.42669Z" fill="#939CB7"/>
<path d="M89.4857 7.47806L91.5311 6.39801C91.9326 6.19729 92.2289 6.05392 92.4391 6.01569C92.6399 5.95834 92.8406 5.98702 93.0126 6.0826C93.3376 6.24508 93.4236 6.49359 93.2707 6.81856C93.1369 7.07662 92.7259 7.27734 92.009 7.40159L89.4571 7.87949C89.2755 7.90816 89.1703 7.91772 89.1321 7.88905C89.0652 7.85082 89.0365 7.79347 89.0747 7.73612C89.1034 7.69789 89.2468 7.60231 89.4857 7.47806Z" fill="#939CB7"/>
</svg>
