<svg width="127" height="21" viewBox="0 0 127 21" fill="none" xmlns="http://www.w3.org/2000/svg">
<g clip-path="url(#clip0_10742_5552)">
<path d="M23.3318 2.625H19.0748V18.5343H23.3318V2.625Z" fill="#939CB7"/>
<path d="M48.4879 2.63824H53.7098L59.8703 18.625H55.1989L54.0069 15.2143H48.0065L46.745 18.625H42.4165L48.4879 2.63824ZM51.098 5.93613H51.0535L48.9906 12.1898H52.9987L51.098 5.93613Z" fill="#939CB7"/>
<path d="M61.9432 2.63625H69.2974C72.2733 2.63625 74.4964 3.9407 74.4964 6.68894C74.4964 8.70766 73.4662 9.83105 71.6799 10.4245V10.469C73.8066 10.9071 74.9087 12.0509 74.9087 14.0002C74.9087 17.8248 71.5414 18.6246 68.6791 18.6246H61.9432V2.63625ZM66.2023 15.6054H67.4654C69.022 15.6054 70.6477 15.3737 70.6477 13.7488C70.6477 12.0055 68.9758 11.8478 67.5116 11.8478H66.2019L66.2023 15.6054ZM66.2023 8.9602H67.3947C68.7927 8.9602 70.2341 8.61652 70.2341 7.26388C70.2341 5.79722 68.8622 5.66312 67.4425 5.66312H66.2023V8.9602Z" fill="#939CB7"/>
<path d="M80.6762 12.603L74.7686 2.63625H79.6689L82.8082 9.05054L85.9001 2.63625H90.8039L84.9369 12.603V18.625H80.6762V12.603Z" fill="#939CB7"/>
<path d="M96.4948 5.79722H92.5573V2.63625H104.697V5.79722H100.759V18.625H96.4948V5.79722Z" fill="#939CB7"/>
<path d="M106.724 2.63625H117.994V5.66312H110.983V8.9602H117.603V11.9831H110.983V15.6054H118.245V18.625H106.724V2.63625Z" fill="#939CB7"/>
<path d="M9.40033 6.13689C6.56617 6.37256 5.01881 8.2331 5.01881 10.6409C5.01881 12.982 7.18809 14.9497 9.28309 14.9497L9.74321 14.9449H10.5177C10.5177 14.9449 11.0312 14.9449 11.0348 14.4442V9.41951H15.4095C15.4095 12.2557 15.3991 18.625 15.3991 18.625C15.3991 18.625 11.0814 18.6214 8.57445 18.6214C3.86009 18.6214 0.496765 14.7269 0.496765 10.6409C0.496765 6.2212 4.15519 2.52985 8.71056 2.69326L15.2545 2.71374L15.2513 6.13649L9.40033 6.13689Z" fill="#939CB7"/>
<path d="M34.7158 6.13688C31.8805 6.37215 30.3359 8.23268 30.3359 10.6409C30.3359 12.982 32.502 14.9497 34.5986 14.9497L35.0571 14.9449H35.8336C35.8336 14.9449 36.3435 14.9449 36.3471 14.4442V9.4195H40.7146C40.7146 12.2557 40.7074 18.625 40.7074 18.625C40.7074 18.625 36.3933 18.6214 33.888 18.6214C29.176 18.6214 25.8163 14.7269 25.8163 10.6409C25.8163 6.22119 29.4711 2.52984 34.0285 2.69365L40.5616 2.71413L40.56 6.13688H34.7158Z" fill="#939CB7"/>
</g>
<defs>
<clipPath id="clip0_10742_5552">
<rect width="125.589" height="16" fill="white" transform="translate(0.496765 2.625)"/>
</clipPath>
</defs>
</svg>
