<svg width="69" height="25" viewBox="0 0 69 25" fill="none" xmlns="http://www.w3.org/2000/svg">
<g clip-path="url(#clip0_9894_5985)">
<path d="M10.965 24.5945C8.22956 24.3512 5.83549 23.2676 4.01682 21.4497C2.29939 19.7329 1.24557 17.5539 0.887436 14.979C0.799421 14.3462 0.779813 12.8595 0.850677 12.192C1.08063 10.0259 1.86927 8.09036 3.20128 6.42305C3.56025 5.97371 4.30614 5.21183 4.73561 4.85584C7.01211 2.96878 9.88561 2.04949 12.9959 2.21321C14.4633 2.29045 15.4707 2.47061 16.5982 2.85741C17.3807 3.12584 18.5052 3.69376 18.8521 3.99567L18.9397 4.07194L18.9298 4.92525L18.9199 5.77856L18.5486 5.55008C16.8456 4.50192 14.6853 3.94717 12.3122 3.94857C10.3008 3.94976 8.44436 4.48864 6.86378 5.53011C5.23752 6.60169 4.01218 8.1144 3.29485 9.93606C2.32374 12.4022 2.474 15.4156 3.68937 17.8481C5.07486 20.6211 7.62731 22.4053 10.7941 22.8142C11.7259 22.9345 13.1001 22.8798 14.0762 22.6834C17.2703 22.0407 19.2747 19.8562 19.7016 16.5523C19.7462 16.2076 19.7619 15.7922 19.7647 14.8906L19.7684 13.6885L15.9942 13.6795L12.2201 13.6705V11.9738H21.4478L21.4474 13.5029C21.4471 15.2271 21.4094 16.1294 21.3078 16.8512C21.0008 19.0305 20.1893 20.7653 18.8503 22.1042C17.4934 23.4612 15.7568 24.2573 13.5282 24.5439C13.0081 24.6108 11.4861 24.6408 10.965 24.5945ZM54.0098 4.34143V0.624817H55.7422V6.90728L55.5925 6.97452C55.2829 7.11354 54.8439 7.41297 54.054 8.02387C54.0187 8.05116 54.0098 7.30938 54.0098 4.34143ZM51.3935 5.68767V0.624817H53.1259V8.72894L52.8552 9.01671C52.5779 9.31146 52.0794 9.8974 51.6779 10.4005C51.5538 10.5561 51.439 10.6985 51.4229 10.7169C51.4067 10.7354 51.3935 8.47223 51.3935 5.68767Z" fill="#939CB7"/>
<path d="M11.4248 21.9579C9.24934 21.7868 7.41745 20.9471 5.97529 19.46C5.55173 19.0232 5.30758 18.7199 4.98204 18.226C3.77571 16.3956 3.30662 14.0052 3.71758 11.7823C4.24445 8.9324 6.21129 6.56659 8.96613 5.46907C9.66666 5.18998 10.531 4.98412 11.3524 4.90078C11.8854 4.84669 13.3168 4.87695 13.882 4.95425C15.7019 5.20315 17.3265 5.76539 18.6282 6.59681L18.9374 6.79429L18.9376 7.63272C18.9377 8.39684 18.9323 8.47412 18.8756 8.50445C18.8269 8.5305 18.7173 8.47686 18.3718 8.25782C17.0083 7.39355 15.5567 6.88868 13.8466 6.68397C13.195 6.60595 11.787 6.59592 11.3011 6.66583C8.17621 7.11537 5.95021 9.3632 5.55445 12.4688C5.44672 13.3141 5.51999 14.5061 5.73049 15.3325C6.20058 17.1781 7.33656 18.6789 8.85742 19.4637C9.8894 19.9962 10.7968 20.2115 12.0082 20.2115C13.7042 20.2115 15.0684 19.7292 16.0042 18.7988C16.6107 18.1957 16.9651 17.4644 17.0458 16.6495L17.0711 16.3932H12.2203V14.5901H18.8671V15.3111C18.8671 16.4233 18.7782 17.0843 18.5284 17.8311C18.022 19.3444 16.9483 20.5459 15.473 21.25C14.5134 21.7079 13.4922 21.9306 12.2255 21.9582C11.8823 21.9657 11.522 21.9655 11.4248 21.9579V21.9579ZM59.5499 21.9772C58.1754 21.8552 56.9653 21.2489 55.9323 20.1646C55.1917 19.3872 54.6669 18.4597 54.4386 17.5246C54.3063 16.9828 54.2647 17.0886 55.0196 16.0478C55.388 15.54 55.6998 15.1236 55.7125 15.1224C55.7252 15.1213 55.7459 15.2914 55.7586 15.5005C55.7906 16.0294 55.8382 16.3533 55.9444 16.7644C56.4161 18.5901 57.7419 19.9094 59.3956 20.1985C59.8346 20.2753 60.589 20.2473 61.0103 20.1387C62.5331 19.7462 63.5458 18.5952 63.9323 16.8175C64.0256 16.3882 64.0263 15.1271 63.9334 14.7043C63.744 13.8427 63.3745 13.1154 62.8399 12.5527C62.0762 11.7487 61.0742 11.3374 59.8789 11.3374C58.3449 11.3374 57.2291 11.9597 55.7572 13.6361C54.3182 15.2751 51.9284 18.3124 50.7269 20.0293L50.2977 20.6426V17.7897L50.9088 16.9589C51.2448 16.5019 51.8337 15.7223 52.2174 15.2265C52.6011 14.7306 53.1335 14.0386 53.4005 13.6887C54.6274 12.0809 55.419 11.2743 56.4247 10.6069C58.4994 9.23035 61.2294 9.19568 63.2094 10.5208C65.2299 11.8731 66.2008 14.5176 65.659 17.1932C65.222 19.3517 63.8397 21.0171 61.9273 21.6894C61.5136 21.8348 61.038 21.9329 60.5328 21.9769C60.0669 22.0176 60.005 22.0176 59.5497 21.9773L59.5499 21.9772ZM45.0652 19.6769C45.0652 15.8316 45.0576 15.1671 45.0104 14.8488C44.8373 13.6834 44.2992 12.7124 43.4896 12.1048C42.9647 11.7109 42.3759 11.4661 41.6766 11.351C41.1755 11.2686 40.4271 11.3008 39.9564 11.425C38.3843 11.8399 37.254 13.1204 36.9127 14.8729C36.8153 15.373 36.8237 16.3163 36.93 16.8175C37.2799 18.467 38.3261 19.6581 39.7973 20.0816C41.0921 20.4542 42.8765 20.175 43.9786 19.4272L44.1825 19.2889L44.173 20.2002L44.1636 21.1115L43.8101 21.2963C42.9156 21.7641 41.5136 22.0626 40.522 21.9963C38.6239 21.8695 37.0963 21.0078 36.0798 19.4905C34.9977 17.8752 34.721 15.531 35.3792 13.554C36.2487 10.9422 38.6868 9.34689 41.4678 9.57015C42.9757 9.69121 44.1082 10.1971 45.1019 11.1934C46.0204 12.1145 46.5131 13.109 46.7493 14.5194C46.806 14.8576 46.8126 15.3014 46.8238 19.5133L46.8361 24.136H45.0652V19.6769ZM25.2315 19.5663C25.232 14.8796 25.2469 14.2515 25.3714 13.6403C25.6913 12.0704 26.6226 10.8218 27.984 10.1373C28.3062 9.97523 28.976 9.76142 29.3675 9.69561C30.5476 9.49722 31.7742 9.67659 32.6452 10.1749L32.8294 10.2803L32.6836 10.5172C32.6034 10.6475 32.4279 10.9808 32.2937 11.2579C32.1594 11.535 32.0467 11.7617 32.0432 11.7617C32.0397 11.7617 31.8857 11.7077 31.7009 11.6418C30.9105 11.3599 30.1882 11.3142 29.4496 11.4994C28.7581 11.6728 28.1281 12.0813 27.7202 12.6208C27.4926 12.9218 27.2295 13.4769 27.1135 13.9007L27.0168 14.2542L27.0068 19.1951L26.9968 24.136H25.231L25.2315 19.5663Z" fill="#939CB7"/>
<path d="M22.6499 19.2658C22.65 14.3989 22.6583 14.0054 22.7773 13.2819C23.1438 11.0522 24.3108 9.23273 26.0525 8.17529C27.7082 7.17009 29.9048 6.82616 32.019 7.24109C32.772 7.38887 33.708 7.75303 34.2851 8.1227L34.5182 8.27205L34.1046 8.68221C33.8771 8.90779 33.6192 9.17719 33.5314 9.28086L33.3719 9.46934L33.1639 9.36444C32.4692 9.01405 31.2938 8.75649 30.3895 8.75649C27.5452 8.75649 25.327 10.4078 24.6321 13.0425C24.3934 13.9475 24.4045 13.6668 24.3914 19.1597L24.3795 24.136H22.6499L22.6499 19.2658ZM59.2778 24.6091C56.6239 24.3672 54.4254 23.0934 53.0744 21.0147C52.8612 20.6868 52.4906 19.9411 52.4175 19.6931L52.3742 19.5459L52.9887 18.7099L53.6033 17.874L53.6344 17.991C54.0322 19.4853 54.9044 20.7563 56.134 21.6335C56.5163 21.9063 57.2111 22.2753 57.6713 22.4501C58.8267 22.8889 60.1071 22.9946 61.3541 22.7539C62.1653 22.5974 63.1287 22.1851 63.8032 21.7058C64.2181 21.4109 64.9874 20.6475 65.2672 20.2528C65.9516 19.2877 66.4021 18.1405 66.5834 16.9006C66.6665 16.3324 66.6673 15.1859 66.5849 14.6234C66.2973 12.6604 65.4038 11.0809 63.9623 9.9878C62.7492 9.06779 61.0402 8.59042 59.4098 8.71618C56.9413 8.90658 55.2403 10.0294 52.7934 13.0835C52.5423 13.3968 51.8838 14.2577 51.33 14.9967C50.7762 15.7356 50.3173 16.3468 50.3103 16.3549C50.3033 16.363 50.2976 15.7899 50.2976 15.0813V13.793L50.8904 12.963C52.147 11.2035 52.6908 10.5312 53.5491 9.67573C54.4429 8.78486 55.1581 8.25717 56.1135 7.78372C56.9162 7.3859 57.6879 7.14669 58.6414 7.00007C59.2135 6.9121 60.6149 6.9121 61.187 7.00007C63.1359 7.29976 64.6867 8.0897 65.9952 9.44923C67.2767 10.7807 68.044 12.4324 68.3341 14.484C68.3978 14.9346 68.398 16.5771 68.3345 17.0296C68.1282 18.4968 67.6524 19.8132 66.9353 20.901C65.6043 22.9199 63.6654 24.1676 61.2754 24.5431C60.9335 24.5968 59.6195 24.6402 59.2779 24.6091H59.2778ZM40.08 24.5906C36.2486 24.2397 33.2908 21.5466 32.5526 17.7367C32.4129 17.0152 32.3902 16.7443 32.3902 15.7922C32.3902 14.626 32.4688 14.0238 32.7456 13.0692C33.4703 10.5702 35.3111 8.49901 37.6581 7.5418C38.7792 7.08458 39.7525 6.90063 41.0345 6.90366C42.2779 6.9066 43.194 7.06775 44.2342 7.46654C45.3443 7.89214 46.241 8.48341 47.0831 9.34514C48.308 10.5986 49.0374 12.1072 49.3528 14.0397C49.4268 14.4924 49.4285 14.5986 49.4401 19.3188L49.4519 24.136H47.6813L47.681 19.7077C47.6806 16.9584 47.6667 15.1187 47.644 14.8552C47.4934 13.1072 46.781 11.5661 45.6123 10.46C44.301 9.21911 42.38 8.56445 40.4954 8.71625C37.2575 8.97706 34.8511 11.1972 34.2821 14.4487C34.1233 15.3561 34.1511 16.5663 34.3538 17.5699C34.5001 18.2936 34.87 19.2466 35.2349 19.8394C35.9978 21.0789 37.1212 21.9839 38.5003 22.4702C39.6817 22.8867 41.0344 22.992 42.186 22.7573C42.8439 22.6232 43.6269 22.3219 44.0195 22.0518L44.1812 21.9405V23.6966L43.9779 23.8306C43.3992 24.2122 42.5484 24.4916 41.6533 24.594C41.2836 24.6362 40.5616 24.6346 40.08 24.5906Z" fill="#939CB7"/>
</g>
<defs>
<clipPath id="clip0_9894_5985">
<rect width="67.5747" height="24" fill="white" transform="translate(0.807617 0.625)"/>
</clipPath>
</defs>
</svg>
