<svg width="68" height="25" viewBox="0 0 68 25" fill="none" xmlns="http://www.w3.org/2000/svg">
<g clip-path="url(#clip0_10740_5382)">
<path d="M10.3032 24.5945C7.56781 24.3512 5.17375 23.2677 3.35508 21.4497C1.63764 19.7329 0.583826 17.5539 0.225693 14.979C0.137678 14.3462 0.11807 12.8595 0.188934 12.192C0.41889 10.0259 1.20753 8.09038 2.53954 6.42307C2.89851 5.97373 3.6444 5.21185 4.07387 4.85585C6.35037 2.96879 9.22387 2.0495 12.3342 2.21322C13.8016 2.29047 14.809 2.47063 15.9365 2.85742C16.7189 3.12586 17.8434 3.69378 18.1903 3.99569L18.278 4.07195L18.2681 4.92526L18.2581 5.77857L17.8869 5.5501C16.1838 4.50193 14.0236 3.94718 11.6504 3.94859C9.63905 3.94978 7.78262 4.48866 6.20204 5.53013C4.57578 6.6017 3.35044 8.11442 2.6331 9.93607C1.662 12.4022 1.81226 15.4156 3.02763 17.8481C4.41312 20.6212 6.96557 22.4053 10.1323 22.8142C11.0642 22.9345 12.4384 22.8798 13.4145 22.6834C16.6086 22.0407 18.6129 19.8562 19.0399 16.5523C19.0844 16.2076 19.1002 15.7922 19.103 14.8906L19.1066 13.6885L15.3325 13.6795L11.5583 13.6705V11.9738H20.786L20.7857 13.5029C20.7853 15.2271 20.7477 16.1294 20.646 16.8512C20.3391 19.0305 19.5275 20.7653 18.1886 22.1042C16.8316 23.4612 15.095 24.2573 12.8665 24.5439C12.3464 24.6108 10.8244 24.6408 10.3032 24.5945ZM53.348 4.34144V0.624832H55.0804V6.9073L54.9307 6.97454C54.6212 7.11355 54.1822 7.41298 53.3922 8.02388C53.3569 8.05118 53.348 7.30939 53.348 4.34144ZM50.7318 5.68768V0.624832H52.4642V8.72896L52.1934 9.01673C51.9161 9.31147 51.4176 9.89741 51.0162 10.4005C50.8921 10.5561 50.7773 10.6985 50.7611 10.7169C50.745 10.7354 50.7318 8.47225 50.7318 5.68768Z" fill="#939CB7"/>
<path d="M10.7628 21.9579C8.58735 21.7868 6.75546 20.9471 5.3133 19.46C4.88974 19.0232 4.64559 18.7199 4.32005 18.226C3.11373 16.3956 2.64463 14.0052 3.05559 11.7823C3.58246 8.9324 5.5493 6.56659 8.30414 5.46907C9.00467 5.18998 9.86906 4.98412 10.6904 4.90078C11.2234 4.84669 12.6548 4.87695 13.22 4.95425C15.0399 5.20315 16.6645 5.76539 17.9662 6.59681L18.2754 6.79429L18.2756 7.63272C18.2758 8.39684 18.2703 8.47412 18.2136 8.50445C18.1649 8.5305 18.0553 8.47686 17.7098 8.25782C16.3463 7.39355 14.8947 6.88868 13.1846 6.68397C12.533 6.60595 11.125 6.59592 10.6391 6.66583C7.51422 7.11537 5.28822 9.3632 4.89246 12.4688C4.78474 13.3141 4.85801 14.5061 5.0685 15.3325C5.53859 17.1781 6.67457 18.6789 8.19543 19.4637C9.22742 19.9962 10.1348 20.2115 11.3462 20.2115C13.0423 20.2115 14.4065 19.7292 15.3422 18.7988C15.9487 18.1957 16.3031 17.4644 16.3838 16.6495L16.4091 16.3932H11.5583V14.5901H18.2051V15.3111C18.2051 16.4233 18.1162 17.0843 17.8664 17.8311C17.36 19.3444 16.2863 20.5459 14.811 21.25C13.8514 21.7079 12.8302 21.9306 11.5635 21.9582C11.2204 21.9657 10.86 21.9655 10.7628 21.9579V21.9579ZM58.8879 21.9772C57.5134 21.8552 56.3033 21.2489 55.2703 20.1646C54.5297 19.3872 54.0049 18.4597 53.7766 17.5246C53.6443 16.9828 53.6027 17.0886 54.3577 16.0478C54.726 15.54 55.0378 15.1236 55.0505 15.1224C55.0632 15.1213 55.084 15.2914 55.0966 15.5005C55.1286 16.0294 55.1762 16.3533 55.2824 16.7644C55.7541 18.5901 57.0799 19.9094 58.7336 20.1985C59.1726 20.2753 59.927 20.2473 60.3483 20.1387C61.8711 19.7462 62.8838 18.5952 63.2703 16.8175C63.3636 16.3882 63.3643 15.1271 63.2714 14.7043C63.0821 13.8427 62.7125 13.1154 62.178 12.5527C61.4142 11.7487 60.4122 11.3374 59.217 11.3374C57.6829 11.3374 56.5671 11.9597 55.0952 13.6361C53.6562 15.2751 51.2664 18.3124 50.0649 20.0293L49.6357 20.6426V17.7897L50.2468 16.9589C50.5829 16.5019 51.1718 15.7223 51.5554 15.2265C51.9391 14.7306 52.4715 14.0386 52.7385 13.6887C53.9654 12.0809 54.757 11.2743 55.7627 10.6069C57.8374 9.23035 60.5674 9.19568 62.5474 10.5208C64.5679 11.8731 65.5388 14.5176 64.997 17.1932C64.56 19.3517 63.1777 21.0171 61.2653 21.6894C60.8516 21.8348 60.376 21.9329 59.8708 21.9769C59.4049 22.0176 59.343 22.0176 58.8877 21.9773L58.8879 21.9772ZM44.4032 19.6769C44.4032 15.8316 44.3956 15.1671 44.3484 14.8488C44.1753 13.6834 43.6372 12.7124 42.8276 12.1048C42.3027 11.7109 41.7139 11.4661 41.0146 11.351C40.5135 11.2686 39.7652 11.3008 39.2944 11.425C37.7223 11.8399 36.592 13.1204 36.2507 14.8729C36.1534 15.373 36.1617 16.3163 36.268 16.8175C36.6179 18.467 37.6642 19.6581 39.1353 20.0816C40.4301 20.4542 42.2145 20.175 43.3166 19.4272L43.5205 19.2889L43.5111 20.2002L43.5016 21.1115L43.1481 21.2963C42.2536 21.7641 40.8516 22.0626 39.8601 21.9963C37.9619 21.8695 36.4343 21.0078 35.4178 19.4905C34.3357 17.8752 34.0591 15.531 34.7172 13.554C35.5867 10.9422 38.0248 9.34689 40.8058 9.57015C42.3137 9.69121 43.4462 10.1971 44.4399 11.1934C45.3584 12.1145 45.8511 13.109 46.0874 14.5194C46.144 14.8576 46.1506 15.3014 46.1618 19.5133L46.1741 24.136H44.4032V19.6769ZM24.5695 19.5663C24.57 14.8796 24.5849 14.2515 24.7094 13.6403C25.0294 12.0704 25.9606 10.8218 27.322 10.1373C27.6442 9.97523 28.314 9.76142 28.7055 9.69561C29.8856 9.49722 31.1122 9.67659 31.9832 10.1749L32.1674 10.2803L32.0216 10.5172C31.9414 10.6475 31.7659 10.9808 31.6317 11.2579C31.4975 11.535 31.3847 11.7617 31.3812 11.7617C31.3777 11.7617 31.2237 11.7077 31.039 11.6418C30.2486 11.3599 29.5262 11.3142 28.7876 11.4994C28.0961 11.6728 27.4661 12.0813 27.0582 12.6208C26.8306 12.9218 26.5675 13.4769 26.4516 13.9007L26.3548 14.2542L26.3448 19.1951L26.3348 24.136H24.569L24.5695 19.5663Z" fill="#939CB7"/>
<path d="M21.9881 19.2658C21.9881 14.3989 21.9965 14.0054 22.1154 13.2819C22.4819 11.0522 23.6489 9.23273 25.3906 8.17529C27.0463 7.17009 29.2429 6.82616 31.3571 7.24109C32.1101 7.38887 33.0462 7.75303 33.6232 8.1227L33.8564 8.27205L33.4427 8.68221C33.2152 8.90779 32.9573 9.17719 32.8695 9.28086L32.71 9.46934L32.502 9.36444C31.8073 9.01405 30.6319 8.75649 29.7276 8.75649C26.8834 8.75649 24.6652 10.4078 23.9703 13.0425C23.7315 13.9475 23.7426 13.6668 23.7295 19.1597L23.7177 24.136H21.988L21.9881 19.2658ZM58.6159 24.6091C55.962 24.3672 53.7635 23.0934 52.4125 21.0147C52.1994 20.6868 51.8288 19.9411 51.7557 19.6931L51.7123 19.5459L52.3269 18.7099L52.9414 17.874L52.9725 17.991C53.3703 19.4853 54.2425 20.7563 55.4721 21.6335C55.8544 21.9063 56.5492 22.2753 57.0095 22.4501C58.1648 22.8889 59.4452 22.9946 60.6922 22.7539C61.5035 22.5974 62.4668 22.1851 63.1414 21.7058C63.5562 21.4109 64.3255 20.6475 64.6054 20.2528C65.2898 19.2877 65.7402 18.1405 65.9215 16.9006C66.0047 16.3324 66.0054 15.1859 65.923 14.6234C65.6355 12.6604 64.7419 11.0809 63.3005 9.9878C62.0873 9.06779 60.3783 8.59042 58.748 8.71618C56.2794 8.90658 54.5785 10.0294 52.1315 13.0835C51.8805 13.3968 51.222 14.2577 50.6682 14.9967C50.1143 15.7356 49.6555 16.3468 49.6485 16.3549C49.6415 16.363 49.6357 15.7899 49.6357 15.0813V13.793L50.2286 12.963C51.4852 11.2035 52.0289 10.5312 52.8872 9.67573C53.781 8.78486 54.4963 8.25717 55.4516 7.78372C56.2544 7.3859 57.026 7.14669 57.9795 7.00007C58.5516 6.9121 59.953 6.9121 60.5251 7.00007C62.474 7.29976 64.0249 8.0897 65.3334 9.44923C66.6149 10.7807 67.3822 12.4324 67.6722 14.484C67.736 14.9346 67.7361 16.5771 67.6726 17.0296C67.4663 18.4968 66.9906 19.8132 66.2735 20.901C64.9425 22.9199 63.0036 24.1676 60.6136 24.5431C60.2717 24.5968 58.9577 24.6402 58.616 24.6091H58.6159ZM39.4181 24.5906C35.5867 24.2397 32.6289 21.5466 31.8908 17.7367C31.751 17.0152 31.7284 16.7443 31.7284 15.7922C31.7284 14.626 31.807 14.0238 32.0838 13.0692C32.8084 10.5702 34.6492 8.49901 36.9963 7.5418C38.1174 7.08458 39.0906 6.90063 40.3727 6.90366C41.6161 6.9066 42.5321 7.06775 43.5723 7.46654C44.6825 7.89214 45.5791 8.48341 46.4212 9.34514C47.6461 10.5986 48.3755 12.1072 48.691 14.0397C48.7649 14.4924 48.7666 14.5986 48.7782 19.3188L48.79 24.136H47.0194L47.0191 19.7077C47.0187 16.9584 47.0049 15.1187 46.9822 14.8552C46.8315 13.1072 46.1191 11.5661 44.9504 10.46C43.6392 9.21911 41.7182 8.56445 39.8335 8.71625C36.5957 8.97706 34.1892 11.1972 33.6202 14.4487C33.4614 15.3561 33.4892 16.5663 33.692 17.5699C33.8382 18.2936 34.2082 19.2466 34.5731 19.8394C35.336 21.0789 36.4593 21.9839 37.8384 22.4702C39.0198 22.8867 40.3725 22.992 41.5241 22.7573C42.182 22.6232 42.9651 22.3219 43.3577 22.0518L43.5193 21.9405V23.6966L43.316 23.8306C42.7373 24.2122 41.8865 24.4916 40.9914 24.594C40.6218 24.6362 39.8998 24.6346 39.4181 24.5906Z" fill="#939CB7"/>
</g>
<defs>
<clipPath id="clip0_10740_5382">
<rect width="67.5747" height="24" fill="white" transform="translate(0.145874 0.625)"/>
</clipPath>
</defs>
</svg>
