<svg width="101" height="21" viewBox="0 0 101 21" fill="none" xmlns="http://www.w3.org/2000/svg">
<g clip-path="url(#clip0_10740_5508)">
<path d="M4.13773 13.8145C4.13773 14.9643 4.39009 15.847 4.71993 16.381C5.15239 17.0805 5.79742 17.3768 6.45501 17.3768C7.30318 17.3768 8.07909 17.1664 9.57438 15.0983C10.7723 13.4407 12.1838 11.114 13.1335 9.65537L14.7419 7.18416C15.8592 5.46793 17.1524 3.56008 18.6351 2.26688C19.8456 1.21139 21.1513 0.625 22.4655 0.625C24.6718 0.625 26.7733 1.90353 28.3817 4.30144C30.1419 6.92762 30.9964 10.2355 30.9964 13.6491C30.9964 15.6784 30.5964 17.1695 29.9157 18.3475C29.2582 19.4868 27.9765 20.625 25.8205 20.625V17.3768C27.6665 17.3768 28.1273 15.6805 28.1273 13.7391C28.1273 10.9726 27.4822 7.90249 26.0613 5.70877C25.0529 4.15275 23.7461 3.20196 22.3084 3.20196C20.7534 3.20196 19.5021 4.37474 18.0958 6.46584C17.3482 7.57683 16.5807 8.93076 15.7189 10.4585L14.7702 12.1391C12.8644 15.5182 12.3817 16.2878 11.4288 17.558C9.75867 19.7821 8.3325 20.625 6.45501 20.625C4.22778 20.625 2.81941 19.6606 1.94716 18.2072C1.23511 17.0229 0.885376 15.469 0.885376 13.6983L4.13773 13.8145Z" fill="#939CB7"/>
<path d="M3.44977 4.53076C4.94087 2.23233 7.0927 0.625 9.56076 0.625C10.9901 0.625 12.411 1.04804 13.8948 2.25955C15.5178 3.58416 17.2477 5.76531 19.4058 9.36008L20.1796 10.6501C22.0477 13.7622 23.1105 15.3632 23.7325 16.1182C24.5325 17.0878 25.0927 17.3768 25.8205 17.3768C27.6665 17.3768 28.1273 15.6805 28.1273 13.7391L30.9964 13.6491C30.9964 15.6784 30.5964 17.1695 29.9157 18.3475C29.2581 19.4868 27.9765 20.625 25.8205 20.625C24.4801 20.625 23.2927 20.3339 21.9796 19.0952C20.9702 18.1444 19.7901 16.4554 18.8822 14.937L16.1817 10.426C14.8267 8.16217 13.5838 6.47421 12.8644 5.70982C12.0906 4.88783 11.0958 3.89516 9.50841 3.89516C8.22359 3.89516 7.13249 4.79673 6.2194 6.17579L3.44977 4.53076Z" fill="#939CB7"/>
<path d="M9.50841 3.89516C8.2236 3.89516 7.1325 4.79673 6.21941 6.17579C4.92831 8.12448 4.13773 11.0271 4.13773 13.8145C4.13773 14.9643 4.39009 15.847 4.71993 16.381L1.94716 18.2072C1.23511 17.0229 0.885376 15.469 0.885376 13.6983C0.885376 10.4784 1.76915 7.12238 3.44977 4.53076C4.94087 2.23233 7.09271 0.625 9.56077 0.625L9.50841 3.89516Z" fill="#939CB7"/>
<path d="M37.3189 1.25746H41.0812L47.4781 12.8302L53.876 1.25746H57.5566V20.2732H54.4875V5.69935L48.877 15.7915H45.9974L40.388 5.69935V20.2732H37.3189V1.25746ZM67.1734 8.34751C64.9723 8.34751 63.6467 10.0041 63.3294 12.0554H70.7995C70.6456 9.94228 69.4268 8.34751 67.1734 8.34751ZM60.2865 13.224C60.2865 8.90772 63.076 5.76636 67.2268 5.76636C71.3095 5.76636 73.7472 8.86793 73.7472 13.4543V14.2973H63.3294C63.699 16.5287 65.1796 18.0323 67.5671 18.0323C69.4718 18.0323 70.6624 17.4512 71.7912 16.3884L73.4215 18.3852C71.8854 19.7978 69.9315 20.6124 67.4582 20.6124C62.965 20.6124 60.2865 17.336 60.2865 13.224ZM77.4687 8.61976H74.6435V6.10668H77.4687V1.95066H80.4299V6.10668H84.7221V8.61976H80.4299V14.9894C80.4299 17.1643 81.1252 17.937 82.8341 17.937C83.6142 17.937 84.0613 17.87 84.7221 17.7601V20.2459C83.899 20.4784 83.1137 20.5852 82.2634 20.5852C79.0666 20.5852 77.4687 18.8386 77.4687 15.3423V8.61976ZM97.1912 11.0637C96.5964 9.56217 95.2697 8.45641 93.32 8.45641C90.7859 8.45641 89.1639 10.2543 89.1639 13.1831C89.1639 16.0386 90.6571 17.9234 93.1985 17.9234C95.1964 17.9234 96.6226 16.7611 97.1912 15.3151V11.0637ZM100.152 20.2732H97.2456V18.2899C96.4331 19.4575 94.9545 20.6124 92.5598 20.6124C88.7084 20.6124 86.1346 17.3884 86.1346 13.1831C86.1346 8.93809 88.7702 5.76636 92.7231 5.76636C94.677 5.76636 96.21 6.54751 97.2456 7.92657V6.10668H100.152V20.2732Z" fill="#939CB7"/>
</g>
<defs>
<clipPath id="clip0_10740_5508">
<rect width="99.267" height="20" fill="white" transform="translate(0.885376 0.625)"/>
</clipPath>
</defs>
</svg>
