
<svg width="88" height="25" viewBox="0 0 88 25" fill="none" xmlns="http://www.w3.org/2000/svg">
<g clip-path="url(#clip0_10740_5422)">
<path fill-rule="evenodd" clip-rule="evenodd" d="M22.9512 15.6268H24.9508C25.731 15.6268 26.0277 15.8961 26.0277 16.5555C26.0277 17.1904 25.7309 17.4593 24.9508 17.4593H22.9512V15.6268ZM19.8534 22.2963H22.9514V19.5843H26.2696C28.4666 19.5843 29.2576 18.2901 29.2576 16.6168C29.2576 14.6745 28.4442 13.5754 26.2473 13.5754H19.8534V22.2963ZM30.2793 13.5754H38.6171V15.7002H33.3772V16.8729H38.2442V18.9985H33.3772V20.171H38.6171V22.2963H30.2793V13.5754ZM43.0118 15.6268H45.0113C45.7913 15.6268 46.0882 15.8961 46.0882 16.5555C46.0882 17.1904 45.7913 17.4593 45.0113 17.4593H43.0118V15.6268ZM39.9138 22.2963H43.0118V19.5843H46.3295C48.5271 19.5843 49.3182 18.2901 49.3182 16.6168C49.3182 14.6745 48.5048 13.5754 46.3074 13.5754H39.9138V22.2963ZM52.3168 18.5953C50.801 18.3384 50.1752 17.3613 50.1752 16.1402C50.1752 13.8802 52.1638 13.2701 54.7119 13.2701C58.205 13.2701 59.6444 14.2835 59.7544 16.1281H56.1509C56.1509 15.7738 55.9641 15.5535 55.6789 15.4315C55.4042 15.2975 55.0529 15.2487 54.7119 15.2487C53.7891 15.2487 53.4709 15.5048 53.4709 15.8716C53.4709 16.1155 53.5693 16.2748 53.8769 16.3235L57.5791 16.9339C59.1393 17.1904 60.1062 17.9966 60.1062 19.4741C60.1062 21.6001 58.5461 22.6016 55.0634 22.6016C52.6796 22.6016 50.0757 22.2353 50.0649 19.6702H53.8001C53.8106 19.963 53.9099 20.1584 54.1299 20.2929C54.36 20.4152 54.7008 20.4764 55.184 20.4764C56.1506 20.4764 56.4147 20.183 56.4147 19.7676C56.4147 19.5112 56.2715 19.2549 55.855 19.1819L52.3168 18.5953ZM61.1164 13.5754H64.2143V22.2963H61.1164V13.5754ZM75.6954 18.9007C75.4976 20.0489 75.1456 20.9772 74.3765 21.6121C73.6189 22.2473 72.4321 22.6016 70.5429 22.6016C68.6643 22.6016 65.1818 22.4547 65.1818 17.9361C65.1818 13.4165 68.6643 13.2699 70.5429 13.2699C72.41 13.2699 75.2886 13.5384 75.6954 16.9955H72.2019C72.1139 16.3719 71.7398 15.4682 70.5429 15.4682C69.2789 15.4682 68.4771 16.1644 68.4771 17.9359C68.4771 19.707 69.2573 20.4027 70.3888 20.4027C71.3667 20.4027 71.949 19.9509 72.2017 18.9006H75.6954V18.9007ZM79.7489 17.9362C79.7489 16.1645 80.5511 15.4685 81.8147 15.4685C83.0778 15.4685 83.8802 16.1647 83.8802 17.9362C83.8802 19.7073 83.0778 20.403 81.8147 20.403C80.5511 20.4029 79.7489 19.7072 79.7489 17.9362ZM76.4528 17.9362C76.4528 22.4547 79.9354 22.6018 81.8145 22.6018C83.6932 22.6018 87.1758 22.4549 87.1758 17.9362C87.1758 13.4167 83.6932 13.2701 81.8145 13.2701C79.9354 13.2701 76.4528 13.4165 76.4528 17.9362ZM15.1722 13.6619C15.3722 9.47787 11.764 4.76608 6.845 4.18367L6.8534 4.1265C11.7028 4.1265 15.4204 8.61589 15.4204 12.1576C15.4158 12.8949 15.3575 13.3517 15.2537 13.6833L15.1722 13.6619ZM14.8784 14.1937C14.5557 14.5879 14.1499 14.9849 13.6745 15.3617C12.7999 10.3316 9.10365 5.93315 6.49039 4.64933L6.43442 4.68834C9.06254 6.84525 12.1971 11.0344 13.4161 15.559C12.7943 16.0158 12.1227 16.4004 11.4141 16.7055C8.93408 13.8774 6.622 8.42305 5.87692 4.96192L5.80114 4.98473C5.81794 8.34442 8.20325 14.0478 11.1121 16.8308C10.445 17.0948 9.7514 17.2865 9.04333 17.4024C6.25494 16.2978 4.27016 12.7598 4.27016 9.13557C4.27016 6.76962 4.99153 5.30602 5.13109 5.00649L5.07166 4.98293C4.90284 5.23834 3.84607 6.70119 3.84607 9.25547C3.84607 13.3521 5.86642 16.4834 8.54871 17.4695C7.58952 17.575 6.61972 17.5295 5.67463 17.3346L5.65467 17.397C5.9416 17.5027 6.91508 17.9113 8.40014 17.9113C11.7591 17.9113 14.0297 15.8243 14.9438 14.238L14.8784 14.1937Z" fill="#939CB7"/>
<path fill-rule="evenodd" clip-rule="evenodd" d="M8.0644 2.64819C5.51807 2.64819 2.53235 4.48591 2.53235 6.16576C2.53235 6.81554 3.12676 7.36449 4.35701 7.36449C7.21293 7.36449 9.86625 5.40237 9.86625 3.87664C9.86625 3.07378 9.09521 2.64819 8.0644 2.64819ZM9.08096 3.82922C9.08096 5.11529 6.61131 6.68739 4.54684 6.68739C3.63474 6.68739 3.14192 6.32843 3.14192 5.73611C3.14192 4.43159 5.63963 2.8862 7.57609 2.8862C8.8386 2.8862 9.08096 3.52863 9.08096 3.82922Z" fill="#939CB7"/>
<path fill-rule="evenodd" clip-rule="evenodd" d="M1.51788 6.94355C1.4463 7.06736 1.15967 7.6286 1.15967 8.20366C1.15967 9.27018 2.2373 10.2603 4.21938 10.2603C8.03242 10.2603 12.4378 7.45363 12.4378 4.84832C12.4378 3.67885 11.3307 3.04302 10.5621 2.91156L10.5477 2.95718C10.7867 3.03281 11.6625 3.43994 11.6625 4.48171C11.6625 6.55758 7.77295 9.38603 3.89853 9.38603C2.41528 9.38603 1.48081 8.65386 1.48081 7.58734C1.48081 7.24999 1.55104 7.02774 1.56965 6.96336L1.51788 6.94355Z" fill="#939CB7"/>
<path fill-rule="evenodd" clip-rule="evenodd" d="M14.0098 5.04311C14.1144 5.12249 14.7425 5.64592 14.7425 6.63576C14.7425 10.0108 9.45441 13.3295 4.77939 13.3295C1.99145 13.3295 0.720537 11.9529 0.776812 10.7306H0.826784C0.936033 11.3654 1.84123 12.5013 4.28132 12.5013C8.9622 12.5013 14.1886 9.06729 14.1886 6.05861C14.1886 5.54253 14.0484 5.22094 13.9692 5.07792L14.0098 5.04311Z" fill="#939CB7"/>
<path fill-rule="evenodd" clip-rule="evenodd" d="M15.7773 8.19391C15.7992 8.26579 15.9131 8.58888 15.9131 9.09491C15.9131 12.8493 10.5616 16.0634 5.90729 16.0634C3.51178 16.0634 2.26082 14.8998 1.9967 14.4272L2.03932 14.3957C2.70217 14.9754 4.00775 15.4159 5.53137 15.4159C9.642 15.4159 15.7757 12.2885 15.7209 8.20756L15.7773 8.19391Z" fill="#939CB7"/>
</g>
<defs>
<clipPath id="clip0_10740_5422">
<rect width="86.4553" height="24" fill="white" transform="translate(0.720581 0.625)"/>
</clipPath>
</defs>
</svg>
