<svg width="87" height="25" viewBox="0 0 87 25" fill="none" xmlns="http://www.w3.org/2000/svg">
<g clip-path="url(#clip0_9894_6025)">
<path fill-rule="evenodd" clip-rule="evenodd" d="M22.5207 15.6268H24.5203C25.3005 15.6268 25.5972 15.8961 25.5972 16.5555C25.5972 17.1904 25.3003 17.4593 24.5203 17.4593H22.5207V15.6268ZM19.4228 22.2963H22.5208V19.5843H25.8391C28.0361 19.5843 28.8271 18.2901 28.8271 16.6168C28.8271 14.6745 28.0137 13.5754 25.8167 13.5754H19.4228V22.2963ZM29.8487 13.5754H38.1866V15.7002H32.9467V16.8729H37.8136V18.9985H32.9467V20.171H38.1866V22.2963H29.8487V13.5754ZM42.5813 15.6268H44.5808C45.3608 15.6268 45.6576 15.8961 45.6576 16.5555C45.6576 17.1904 45.3608 17.4593 44.5808 17.4593H42.5813V15.6268ZM39.4833 22.2963H42.5813V19.5843H45.8989C48.0965 19.5843 48.8877 18.2901 48.8877 16.6168C48.8877 14.6745 48.0743 13.5754 45.8769 13.5754H39.4833V22.2963ZM51.8863 18.5953C50.3705 18.3384 49.7447 17.3613 49.7447 16.1402C49.7447 13.8802 51.7332 13.2701 54.2814 13.2701C57.7745 13.2701 59.2139 14.2835 59.3239 16.1281H55.7204C55.7204 15.7738 55.5335 15.5535 55.2484 15.4315C54.9736 15.2975 54.6223 15.2487 54.2814 15.2487C53.3586 15.2487 53.0403 15.5048 53.0403 15.8716C53.0403 16.1155 53.1388 16.2748 53.4464 16.3235L57.1485 16.9339C58.7088 17.1904 59.6757 17.9966 59.6757 19.4741C59.6757 21.6001 58.1156 22.6016 54.6328 22.6016C52.249 22.6016 49.6452 22.2353 49.6344 19.6702H53.3696C53.3801 19.963 53.4794 20.1584 53.6994 20.2929C53.9295 20.4152 54.2703 20.4764 54.7535 20.4764C55.72 20.4764 55.9842 20.183 55.9842 19.7676C55.9842 19.5112 55.841 19.2549 55.4244 19.1819L51.8863 18.5953ZM60.6859 13.5754H63.7837V22.2963H60.6859V13.5754ZM75.2649 18.9007C75.0671 20.0489 74.715 20.9772 73.9459 21.6121C73.1884 22.2473 72.0015 22.6016 70.1123 22.6016C68.2338 22.6016 64.7512 22.4547 64.7512 17.9361C64.7512 13.4165 68.2338 13.2699 70.1123 13.2699C71.9795 13.2699 74.858 13.5384 75.2649 16.9955H71.7713C71.6834 16.3719 71.3093 15.4682 70.1123 15.4682C68.8483 15.4682 68.0465 16.1644 68.0465 17.9359C68.0465 19.707 68.8267 20.4027 69.9582 20.4027C70.9362 20.4027 71.5185 19.9509 71.7712 18.9006H75.2649V18.9007ZM79.3183 17.9362C79.3183 16.1645 80.1206 15.4685 81.3841 15.4685C82.6473 15.4685 83.4497 16.1647 83.4497 17.9362C83.4497 19.7073 82.6473 20.403 81.3841 20.403C80.1206 20.4029 79.3183 19.7072 79.3183 17.9362ZM76.0223 17.9362C76.0223 22.4547 79.5049 22.6018 81.384 22.6018C83.2627 22.6018 86.7453 22.4549 86.7453 17.9362C86.7453 13.4167 83.2627 13.2701 81.384 13.2701C79.5049 13.2701 76.0223 13.4165 76.0223 17.9362ZM14.7417 13.6619C14.9417 9.47787 11.3335 4.76608 6.41446 4.18367L6.42286 4.1265C11.2723 4.1265 14.9899 8.61589 14.9899 12.1576C14.9852 12.8949 14.927 13.3517 14.8231 13.6833L14.7417 13.6619ZM14.4478 14.1937C14.1252 14.5879 13.7194 14.9849 13.244 15.3617C12.3694 10.3316 8.67311 5.93315 6.05985 4.64933L6.00388 4.68834C8.63199 6.84525 11.7666 11.0344 12.9856 15.559C12.3638 16.0158 11.6921 16.4004 10.9835 16.7055C8.50354 13.8774 6.19146 8.42305 5.44638 4.96192L5.3706 4.98473C5.3874 8.34442 7.77271 14.0478 10.6816 16.8308C10.0144 17.0948 9.32086 17.2865 8.61278 17.4024C5.8244 16.2978 3.83962 12.7598 3.83962 9.13557C3.83962 6.76962 4.56099 5.30602 4.70055 5.00649L4.64112 4.98293C4.4723 5.23834 3.41553 6.70119 3.41553 9.25547C3.41553 13.3521 5.43587 16.4834 8.11817 17.4695C7.15898 17.575 6.18918 17.5295 5.24409 17.3346L5.22413 17.397C5.51106 17.5027 6.48454 17.9113 7.9696 17.9113C11.3285 17.9113 13.5992 15.8243 14.5133 14.238L14.4478 14.1937Z" fill="#939CB7"/>
<path fill-rule="evenodd" clip-rule="evenodd" d="M7.63362 2.64819C5.08729 2.64819 2.10156 4.48591 2.10156 6.16576C2.10156 6.81554 2.69598 7.36449 3.92622 7.36449C6.78214 7.36449 9.43547 5.40237 9.43547 3.87664C9.43547 3.07378 8.66443 2.64819 7.63362 2.64819ZM8.65017 3.82922C8.65017 5.11529 6.18052 6.68739 4.11606 6.68739C3.20395 6.68739 2.71113 6.32843 2.71113 5.73611C2.71113 4.43159 5.20884 2.8862 7.1453 2.8862C8.40781 2.8862 8.65017 3.52863 8.65017 3.82922Z" fill="#939CB7"/>
<path fill-rule="evenodd" clip-rule="evenodd" d="M1.08721 6.94355C1.01563 7.06736 0.729004 7.6286 0.729004 8.20366C0.729004 9.27018 1.80663 10.2603 3.78871 10.2603C7.60176 10.2603 12.0071 7.45363 12.0071 4.84832C12.0071 3.67885 10.9001 3.04302 10.1314 2.91156L10.117 2.95718C10.3561 3.03281 11.2319 3.43994 11.2319 4.48171C11.2319 6.55758 7.34229 9.38603 3.46787 9.38603C1.98461 9.38603 1.05015 8.65386 1.05015 7.58734C1.05015 7.24999 1.12038 7.02774 1.13899 6.96336L1.08721 6.94355Z" fill="#939CB7"/>
<path fill-rule="evenodd" clip-rule="evenodd" d="M13.5791 5.04312C13.6836 5.12251 14.3117 5.64594 14.3117 6.63578C14.3117 10.0108 9.02363 13.3295 4.3486 13.3295C1.56067 13.3295 0.289751 11.9529 0.346026 10.7306H0.395998C0.505247 11.3654 1.41045 12.5013 3.85053 12.5013C8.53141 12.5013 13.7578 9.06731 13.7578 6.05862C13.7578 5.54254 13.6176 5.22095 13.5384 5.07794L13.5791 5.04312Z" fill="#939CB7"/>
<path fill-rule="evenodd" clip-rule="evenodd" d="M15.3465 8.19391C15.3684 8.26579 15.4823 8.58888 15.4823 9.09491C15.4823 12.8493 10.1308 16.0634 5.4765 16.0634C3.08099 16.0634 1.83004 14.8998 1.56592 14.4272L1.60854 14.3957C2.27138 14.9754 3.57696 15.4159 5.10059 15.4159C9.21121 15.4159 15.3449 12.2885 15.2901 8.20756L15.3465 8.19391Z" fill="#939CB7"/>
</g>
<defs>
<clipPath id="clip0_9894_6025">
<rect width="86.4553" height="24" fill="white" transform="translate(0.289551 0.625)"/>
</clipPath>
</defs>
</svg>
