<svg width="41" height="25" viewBox="0 0 41 25" fill="none" xmlns="http://www.w3.org/2000/svg">
<g clip-path="url(#clip0_10740_5479)">
<mask id="mask0_10740_5479" style="mask-type:luminance" maskUnits="userSpaceOnUse" x="0" y="0" width="41" height="25">
<path d="M0.275024 24.6049H40.4767V0.644735H0.275024V24.6049Z" fill="white"/>
</mask>
<g mask="url(#mask0_10740_5479)">
<path d="M40.4767 24.6053H0.275024V6.58762C0.275024 3.32054 2.94985 0.645136 6.2181 0.645136H40.4767V24.6053Z" fill="#939CB7"/>
<path d="M6.21808 10.9213H9.39413V16.6105H12.2347V10.9213H15.4072V8.62459H6.21808V10.9213Z" fill="white"/>
<path d="M20.9746 14.966C20.3146 14.966 19.8192 14.7752 19.3985 14.3836C18.9871 14.0003 18.6919 13.415 18.6919 12.6179V12.4983C18.6919 11.7053 18.9871 11.1107 19.3985 10.7303C19.8192 10.3358 20.3181 10.1537 20.9746 10.1537C22.5256 10.1537 22.8564 11.0769 22.9556 11.6785H25.4764C25.4145 10.4636 24.8357 9.60991 24.0176 9.04157C23.2036 8.47556 22.2577 8.18672 21.002 8.18672C19.4586 8.18672 18.3622 8.53041 17.4607 9.29423C16.5527 10.0738 16.0696 11.3009 16.0696 12.5275V12.5899C16.0696 13.9308 16.4903 14.9362 17.421 15.7823C18.2916 16.5735 19.5613 16.9353 20.9722 16.9306C22.2227 16.9306 23.2964 16.6371 24.0392 16.0787C24.8584 15.4596 25.418 14.5908 25.4851 13.4447H22.9702C22.9008 13.9261 22.5973 14.966 20.9746 14.966Z" fill="white"/>
<path d="M29.7398 14.4206V8.62459H27.0049V16.6076H34.2258V14.4206H29.7398Z" fill="white"/>
</g>
</g>
<defs>
<clipPath id="clip0_10740_5479">
<rect width="40.2419" height="24" fill="white" transform="translate(0.254883 0.625)"/>
</clipPath>
</defs>
</svg>
