<svg width="106" height="21" viewBox="0 0 106 21" fill="none" xmlns="http://www.w3.org/2000/svg">
<path d="M24.6936 4.9599H22.943C22.2464 4.9599 21.6807 5.52487 21.6807 6.22149V19.1885C21.6807 19.8851 22.2464 20.4493 22.943 20.4493H24.6936C25.3902 20.4493 25.9552 19.8851 25.9552 19.1885V6.22149C25.9552 5.52487 25.3902 4.9599 24.6936 4.9599Z" fill="#939CB7"/>
<path d="M18.3972 4.95998C17.2939 4.95998 16.3669 5.62134 15.9179 6.56871L11.2688 16.446C11.1591 16.6795 10.9405 17.0595 10.7572 17.0595C10.5754 17.0595 10.3552 16.6795 10.2455 16.446L5.56582 6.56871C5.11604 5.62134 4.19061 4.95998 3.08652 4.95998H0.382324L7.76146 19.2512C8.49178 20.6547 9.99002 20.6249 10.7572 20.6249C11.8174 20.6249 13.0594 20.5669 13.716 19.2512L21.0959 4.95998H18.3972Z" fill="#939CB7"/>
<path d="M99.9327 2.5856C99.9327 1.88898 99.3685 1.32401 98.6711 1.32401H96.9206C96.224 1.32401 95.6582 1.88898 95.6582 2.5856V15.3935C95.6582 17.3517 96.3525 18.4903 97.5945 19.3091C98.8004 20.0982 100.188 20.4493 102.783 20.4493H104.188C104.884 20.4493 105.449 19.8835 105.449 19.1877V17.8187H104.39C103.622 17.8187 102.016 17.789 101.065 17.1464C99.823 16.3283 99.9327 14.8661 99.9327 13.8153V2.5856Z" fill="#939CB7"/>
<path d="M72.5705 17.8187C71.8026 17.8187 70.1955 17.7897 69.2457 17.1463C68.0037 16.3283 68.1134 14.8669 68.1134 13.8145V7.58959H72.2587C72.9545 7.58959 73.5195 7.0254 73.5195 6.32721V4.95905H68.1134V2.58553C68.1134 1.88813 67.5477 1.32394 66.8518 1.32394H65.1005C64.4047 1.32394 63.8389 1.88813 63.8389 2.58553V4.95905H54.9255V2.58553C54.9255 1.88813 54.3605 1.32394 53.6639 1.32394H51.9133C51.2167 1.32394 50.651 1.88813 50.651 2.58553V4.95905H47.9844V6.32721C47.9844 7.0254 48.5493 7.58959 49.246 7.58959H50.651V15.3927C50.651 17.3509 51.3452 18.4902 52.5872 19.3083C53.7932 20.0982 55.1817 20.4484 57.7754 20.4484H59.1804C59.877 20.4484 60.442 19.8842 60.442 19.1876V17.8187H59.3826C58.6147 17.8187 57.0083 17.7897 56.0578 17.1463C54.8158 16.3283 54.9255 14.8669 54.9255 13.8145V7.58959H63.8389V15.3927C63.8389 17.3509 64.5332 18.4902 65.7752 19.3083C66.9811 20.0982 68.3689 20.4484 70.9626 20.4484H72.3684C73.0642 20.4484 73.63 19.8842 73.63 19.1876V17.8187H72.5705Z" fill="#939CB7"/>
<path d="M46.413 19.1877V17.8187H36.9518C35.3807 17.8187 33.5909 17.644 33.0432 15.9781C32.8959 15.5103 32.787 14.5167 32.787 13.8451H44.0387C44.8058 13.8451 45.5361 13.7268 46.1207 13.2598C46.9246 12.6172 47.0343 11.7106 47.0343 10.9223C47.0343 8.96409 46.5587 7.03487 44.2941 5.89552C42.5044 4.9889 40.1669 4.90113 37.9015 4.90113C36.075 4.90113 32.787 4.90113 30.6681 6.36333C28.5493 7.82395 28.3667 9.95691 28.3667 12.8507C28.3667 14.8959 28.4756 17.0297 29.7545 18.4911C31.3624 20.3027 33.6999 20.4493 35.6722 20.4493H45.1514C45.8488 20.4493 46.413 19.8843 46.413 19.1877ZM42.6141 10.308C42.6141 10.717 42.5044 11.2138 41.6644 11.2138H35.5852C34.0392 11.2138 32.787 11.9206 32.787 12.792V11.2138C32.823 10.1912 32.787 9.34335 33.6638 8.55505C34.8329 7.50189 36.5859 7.53167 37.7182 7.53167C38.9241 7.53167 40.3126 7.59044 41.3721 8.23299C41.9927 8.61304 42.6141 9.34335 42.6141 10.308Z" fill="#939CB7"/>
<path d="M92.6258 19.1877V17.8187H83.1647C81.5936 17.8187 79.8038 17.644 79.2561 15.9781C79.1088 15.5103 78.9999 14.5167 78.9999 13.8451H90.2515C91.0187 13.8451 91.749 13.7268 92.3336 13.2598C93.1368 12.6172 93.2472 11.7106 93.2472 10.9223C93.2472 8.96409 92.7716 7.03487 90.507 5.89552C88.7173 4.9889 86.3798 4.90113 84.1144 4.90113C82.2871 4.90113 78.9999 4.90113 76.881 6.36333C74.7622 7.82395 74.5796 9.95691 74.5796 12.8507C74.5796 14.8959 74.6885 17.0297 75.9673 18.4911C77.5753 20.3027 79.9128 20.4493 81.8851 20.4493H91.3643C92.0609 20.4493 92.6258 19.8843 92.6258 19.1877ZM88.827 10.308C88.827 10.717 88.7173 11.2138 87.8772 11.2138H81.7981C80.2528 11.2138 78.9999 11.9206 78.9999 12.792V11.2138C79.0359 10.1912 78.9999 9.34335 79.8767 8.55505C81.0451 7.50189 82.7995 7.53167 83.931 7.53167C85.137 7.53167 86.5255 7.59044 87.5842 8.23299C88.2056 8.61304 88.827 9.34335 88.827 10.308Z" fill="#939CB7"/>
<path d="M24.6936 0.624914H22.943C22.2464 0.624914 21.6807 1.18989 21.6807 1.88651V2.23599V4.95978H21.6979C21.8194 4.24435 22.6335 3.49837 23.8175 3.49837H24.6936C25.3902 3.49837 25.9552 2.93261 25.9552 2.23599V1.88651C25.9552 1.18989 25.3902 0.624914 24.6936 0.624914Z" fill="#939CB7"/>
</svg>
