<svg width="53" height="21" viewBox="0 0 53 21" fill="none" xmlns="http://www.w3.org/2000/svg">
<g clip-path="url(#clip0_9894_5965)">
<path d="M1.88325 0.650642C1.2653 0.748077 0.724274 1.15833 0.447351 1.74295C0.262735 2.13269 0.214017 2.6891 0.326838 3.09423C0.385812 3.29936 6.96274 19.2224 7.11658 19.525C7.30889 19.9096 7.66274 20.2506 8.05248 20.4301C8.41145 20.5968 8.50376 20.6096 9.21658 20.6122C9.67812 20.6122 9.89607 20.6019 9.99863 20.5763C10.6063 20.425 11.0909 20.0045 11.3294 19.4199C11.5448 18.8917 17.5935 2.00192 17.614 1.86859C17.7012 1.325 17.3294 0.776283 16.7909 0.653206C16.5345 0.594231 16.1627 0.632692 15.9217 0.748077C15.7268 0.840385 15.4884 1.08397 15.3909 1.29167C15.3474 1.38398 14.1858 4.51474 12.8063 8.24808C11.3063 12.3071 10.2884 15.025 10.2781 15.0045C10.2679 14.984 9.08068 12.0686 7.63966 8.52244C6.19863 4.97628 4.97299 1.98397 4.91658 1.86859C4.66786 1.37628 4.26017 0.991667 3.78068 0.79936C3.44735 0.663462 3.32684 0.648077 2.6653 0.637821C2.31915 0.632692 1.96786 0.637821 1.88325 0.650642Z" fill="#939CB7"/>
<path d="M35.6139 3.00706C35.2062 3.06859 34.8421 3.32757 34.6575 3.68911C34.5011 4.00193 34.5114 3.51475 34.5114 10.1019V16.1096L34.5755 16.3096C34.7165 16.7558 35.0857 17.1122 35.5242 17.2276C35.7268 17.2789 36.4421 17.2814 36.637 17.2276C36.8678 17.1686 37.0447 17.0635 37.2242 16.8865C37.437 16.6763 37.5473 16.4865 37.6139 16.2224C37.6652 16.025 37.6652 15.9353 37.6575 10.0353C37.6524 4.5609 37.6473 4.03782 37.6088 3.93013C37.4498 3.48141 37.137 3.16859 36.7268 3.04808C36.555 2.9968 35.855 2.97116 35.6139 3.00706Z" fill="#939CB7"/>
<path d="M40.7037 3.00962C40.1063 3.0891 39.6139 3.52757 39.4421 4.13782C39.3986 4.2968 39.396 4.55833 39.396 10.1506V15.9968L39.4652 16.2045C39.6063 16.6173 39.8832 16.9404 40.2421 17.1122C40.355 17.166 40.5088 17.2224 40.5832 17.2378C40.7652 17.2763 46.4216 17.2763 46.796 17.2404C49.5139 16.9737 51.8293 14.9532 52.5345 12.2327C52.7011 11.5865 52.7678 11.0019 52.7678 10.1378C52.7678 9.49423 52.7396 9.09423 52.6627 8.64295C52.2627 6.26346 50.678 4.29423 48.4729 3.43269C47.8678 3.19423 47.2088 3.05321 46.5088 3.00962C46.037 2.98141 40.9242 2.98141 40.7037 3.00962ZM44.9011 4.20449C46.3216 4.39936 47.5755 5.1891 48.378 6.39167C48.8191 7.05321 49.0909 7.76603 49.2216 8.59936C49.2601 8.85321 49.2678 9.06859 49.2678 10.1378C49.2678 11.4814 49.2524 11.6583 49.1139 12.2147C48.6857 13.9045 47.5191 15.2224 45.9216 15.8147C45.3293 16.0327 44.9345 16.0942 44.1011 16.0968L43.4473 16.0994L43.2806 16.0199C42.978 15.8763 42.7729 15.5942 42.7165 15.2506C42.6806 15.0327 42.6832 5.23013 42.7191 5.00962C42.7498 4.80962 42.8139 4.6609 42.9242 4.52244C43.0268 4.39423 43.237 4.24808 43.3857 4.20192C43.5524 4.15064 44.5242 4.15064 44.9011 4.20449Z" fill="#939CB7"/>
<path d="M17.9319 4.40706C17.6935 4.48142 17.4781 4.67885 17.3601 4.93013C17.296 5.0686 17.2935 5.08911 17.2935 5.54808C17.2935 6.00706 17.296 6.02757 17.3627 6.1686C17.4447 6.34295 17.6063 6.52501 17.7524 6.60706C17.9576 6.72244 18.0422 6.73013 18.7935 6.72244L19.4986 6.71475L19.6447 6.64039C19.9447 6.48911 20.1268 6.23013 20.1806 5.88142C20.2165 5.64808 20.196 5.20193 20.1422 5.02244C20.0601 4.75321 19.7935 4.48654 19.5294 4.40706C19.3576 4.35578 18.096 4.35578 17.9319 4.40706Z" fill="#939CB7"/>
<path d="M17.9447 7.45577C17.6627 7.56347 17.4806 7.72757 17.3627 7.97885L17.2935 8.125V12.343V16.5609L17.3627 16.7071C17.4576 16.9122 17.6319 17.0891 17.8268 17.1789L17.9858 17.2532L18.6832 17.2609C19.237 17.266 19.4088 17.2609 19.5088 17.2301C19.8601 17.1276 20.1165 16.825 20.1781 16.4455C20.214 16.2147 20.214 8.47116 20.1781 8.24039C20.1268 7.91988 19.9319 7.65321 19.6447 7.50706L19.4986 7.4327L18.7678 7.42757C18.2088 7.42244 18.0165 7.43013 17.9447 7.45577Z" fill="#939CB7"/>
<path d="M22.6138 7.46603C22.3343 7.57372 22.1163 7.75321 22.0035 7.97372C21.8625 8.25064 21.8702 8.01731 21.8702 12.343C21.8702 16.6686 21.8625 16.4353 22.0035 16.7122C22.0728 16.8481 22.2651 17.0481 22.3984 17.1224C22.6446 17.2609 22.7163 17.2712 23.3753 17.2609L23.9856 17.2532L24.1574 17.1712C24.4702 17.0224 24.701 16.7224 24.7676 16.3712C24.783 16.284 24.7933 15.2378 24.7933 13.4583C24.7933 11.1147 24.7984 10.6506 24.8317 10.484C24.9189 10.0224 25.1471 9.60193 25.4753 9.28911C25.7471 9.03526 25.983 8.89936 26.3497 8.78911C26.642 8.70193 27.101 8.68911 27.3446 8.76346C27.8087 8.90449 28.1881 9.22757 28.4087 9.67116C28.583 10.025 28.5728 9.78654 28.5881 13.3045L28.601 16.484L28.6856 16.666C28.7933 16.8917 28.9779 17.084 29.1907 17.1814L29.3446 17.2532H30.024H30.7035L30.8753 17.1712C31.201 17.0173 31.4317 16.7045 31.4881 16.3378C31.5035 16.2353 31.5112 15.0404 31.5035 13.0994C31.4958 9.725 31.5035 9.93526 31.342 9.44808C30.9984 8.41731 30.1112 7.64295 29.0651 7.45834C28.8907 7.43013 28.6369 7.41988 27.9804 7.41988C27.0625 7.41988 26.8522 7.44039 26.4497 7.57885C25.8471 7.78398 25.242 8.2609 24.8958 8.80449L24.8061 8.94552L24.7907 8.61218C24.7779 8.36347 24.7599 8.24295 24.7189 8.13526C24.6035 7.8327 24.424 7.63782 24.1369 7.50449L23.9856 7.4327L23.3574 7.42757C22.8189 7.42244 22.7138 7.42757 22.6138 7.46603Z" fill="#939CB7"/>
</g>
<defs>
<clipPath id="clip0_9894_5965">
<rect width="52.5128" height="20" fill="white" transform="translate(0.254883 0.625)"/>
</clipPath>
</defs>
</svg>
