<svg width="80" height="25" viewBox="0 0 80 25" fill="none" xmlns="http://www.w3.org/2000/svg">
<g clip-path="url(#clip0_9894_5973)">
<path d="M18.0131 8.44214L15.7274 10.7279L15.6131 10.8421L14.8874 11.5679L14.3502 12.1107L13.6245 12.8364L13.5102 12.945L13.1959 13.265L13.0817 13.3736L12.0131 14.4421L11.8988 14.5507C11.5865 14.8626 11.2327 15.1298 10.8474 15.345C10.6635 15.4479 10.4725 15.5376 10.2759 15.6136C9.83333 15.7851 9.36688 15.8872 8.89309 15.9164C8.60604 15.9421 8.31728 15.9421 8.03023 15.9164C7.40346 15.8483 6.79698 15.6539 6.24738 15.345C5.9985 15.2162 5.76789 15.0547 5.56166 14.865L5.43023 14.7336L1.26452 10.5279L1.1788 10.4421C1.10461 10.3619 1.03945 10.2738 0.984518 10.1793C0.841578 9.93697 0.766568 9.66062 0.767375 9.37928C0.764391 9.33553 0.764391 9.29161 0.767375 9.24786C0.767375 9.17928 0.767375 9.11071 0.767375 9.04786V8.97357C0.82323 8.76582 0.920405 8.57147 1.05309 8.40214C1.08815 8.35758 1.12634 8.31557 1.16738 8.27643L1.24166 8.20214L5.72738 3.77357L8.41309 1.09357C8.69886 0.807321 9.08275 0.640393 9.48699 0.626599C9.89124 0.612806 10.2856 0.75318 10.5902 1.01928L18.0131 8.44214Z" fill="#939CB7"/>
<path d="M9.93894 18.4079C9.57751 18.4065 9.22068 18.3266 8.89323 18.1736L8.0418 17.3279L7.83037 17.1221L7.79609 17.0821L7.4018 16.6879L5.41895 14.6821L5.55037 14.8136C5.75802 15.0058 5.99059 15.1691 6.2418 15.2993C6.79141 15.6082 7.39789 15.8026 8.02466 15.8707C8.3117 15.8964 8.60047 15.8964 8.88752 15.8707C9.36131 15.8415 9.82776 15.7394 10.2704 15.5679C10.4669 15.4919 10.6579 15.4022 10.8418 15.2993C11.2271 15.0841 11.5809 14.8168 11.8932 14.505L12.0075 14.3964L13.0761 13.3279L13.1904 13.2193L13.5047 12.8993L13.6189 12.7907L14.3447 12.065L14.8818 11.5221L15.6247 10.8364L15.7389 10.7221L20.3389 6.15071L22.2247 4.05357L22.3275 3.95643C22.606 3.67901 22.983 3.52325 23.3761 3.52325C23.7691 3.52325 24.1462 3.67901 24.4247 3.95643L25.4647 4.99643H25.4989C25.2656 4.98669 25.0326 5.02475 24.8145 5.10827C24.5964 5.1918 24.3976 5.31902 24.2304 5.48214L20.7161 8.91071L20.6818 8.95071L14.5789 15.0307L12.3218 17.2421L12.1847 17.385C11.8775 17.6832 11.5244 17.9301 11.1389 18.1164C10.9246 18.2204 10.6981 18.2972 10.4647 18.345C10.331 18.373 10.1953 18.3902 10.0589 18.3964L9.93894 18.4079Z" fill="#939CB7"/>
<path d="M31.0991 12.7221L30.9848 12.8364L26.0077 17.8878L20.7677 23.1964C20.6049 23.3608 20.429 23.5117 20.242 23.6479L20.1677 23.6993C19.2567 24.3502 18.1475 24.6634 17.0306 24.5852C15.9138 24.507 14.859 24.0422 14.0477 23.2707L13.9105 23.1907L13.0134 22.2936L10.482 19.7621L9.63626 18.9107L9.52197 18.7907C9.65793 18.8135 9.79555 18.8249 9.9334 18.825H10.0534C10.2149 18.8181 10.3756 18.7971 10.5334 18.7621C10.8011 18.7091 11.0605 18.6207 11.3048 18.4993C11.7259 18.2903 12.1115 18.0165 12.4477 17.6878L12.602 17.5221L14.5448 15.6136L21.2248 9.04214L21.2591 8.99642L24.5391 5.81928C24.7522 5.61503 25.0286 5.48956 25.3226 5.46359C25.6166 5.43762 25.9107 5.51269 26.1563 5.67642L26.922 6.44785L31.0934 10.625C31.1306 10.6603 31.165 10.6985 31.1963 10.7393C31.4287 11.0231 31.5474 11.383 31.5295 11.7494C31.5115 12.1158 31.3581 12.4624 31.0991 12.7221Z" fill="#939CB7"/>
<path d="M14.9734 7.19072C14.9143 7.24533 14.8368 7.27567 14.7563 7.27567C14.6758 7.27567 14.5983 7.24533 14.5392 7.19072C14.0698 6.71833 13.5119 6.34303 12.8975 6.08623C12.2831 5.82943 11.6241 5.69616 10.9582 5.69404C9.61327 5.68975 8.32175 6.2199 7.36773 7.16786C6.41371 8.11582 5.87533 9.40394 5.87105 10.7488C5.86676 12.0937 6.39691 13.3853 7.34487 14.3393L8.88773 15.8936C8.88937 15.9049 8.88937 15.9165 8.88773 15.9279C8.60832 15.9536 8.32713 15.9536 8.04773 15.9279L6.90487 14.785C5.844 13.7166 5.25103 12.2704 5.25638 10.7648C5.26174 9.25915 5.865 7.8173 6.93344 6.75643C8.00188 5.69557 9.44799 5.10259 10.9536 5.10795C12.4593 5.1133 13.9011 5.71656 14.962 6.785C15.0138 6.83922 15.0436 6.91072 15.0457 6.98566C15.0479 7.06061 15.0221 7.13367 14.9734 7.19072Z" fill="white"/>
<path d="M17.3392 9.13357L16.9107 9.55642L16.1621 8.80214C16.1339 8.77401 16.1116 8.74061 16.0963 8.70384C16.0811 8.66707 16.0732 8.62766 16.0732 8.58785C16.0732 8.54805 16.0811 8.50864 16.0963 8.47187C16.1116 8.4351 16.1339 8.4017 16.1621 8.37357C16.1902 8.3454 16.2236 8.32306 16.2604 8.30782C16.2972 8.29258 16.3366 8.28473 16.3764 8.28473C16.4162 8.28473 16.4556 8.29258 16.4924 8.30782C16.5291 8.32306 16.5625 8.3454 16.5907 8.37357L17.3392 9.13357Z" fill="white"/>
<path d="M10.8703 15.3336C10.6866 15.4353 10.4956 15.5231 10.2989 15.5964L8.19603 13.4936C7.55842 12.8513 7.16499 12.0067 7.08362 11.1053C7.00224 10.204 7.23804 9.30249 7.75032 8.55643C7.7965 8.49065 7.86653 8.44549 7.9455 8.43055C8.02447 8.41561 8.10616 8.43207 8.17318 8.47643C8.2059 8.49926 8.23379 8.52832 8.25524 8.56196C8.27669 8.59559 8.29129 8.63313 8.29819 8.67242C8.3051 8.71172 8.30417 8.75199 8.29546 8.79092C8.28676 8.82985 8.27044 8.86668 8.24746 8.89929C7.81563 9.52899 7.61702 10.2896 7.68587 11.0501C7.75471 11.8105 8.0867 12.5231 8.62461 13.065L10.8703 15.3336Z" fill="white"/>
<path d="M16.0591 10.3964L15.7448 10.7107L15.6419 10.8136L13.2819 8.4307C12.8501 7.99691 12.3054 7.69261 11.7096 7.55224C11.1138 7.41188 10.4906 7.44103 9.91051 7.63642C9.87176 7.65435 9.82966 7.66388 9.78697 7.66439C9.74427 7.66491 9.70196 7.65639 9.66279 7.6394C9.62362 7.6224 9.58849 7.59732 9.5597 7.5658C9.5309 7.53427 9.5091 7.49701 9.49572 7.45647C9.48234 7.41592 9.47769 7.37301 9.48206 7.33054C9.48643 7.28807 9.49974 7.247 9.5211 7.21003C9.54246 7.17307 9.5714 7.14103 9.60601 7.11604C9.64062 7.09104 9.68013 7.07364 9.72194 7.06499C10.406 6.84073 11.139 6.81177 11.8386 6.98137C12.5382 7.15096 13.1765 7.51239 13.6819 8.02499L16.0591 10.3964Z" fill="white"/>
<path d="M14.7962 11.665L14.3676 12.0936L11.9962 9.705C11.7105 9.47084 11.3478 9.35148 10.9789 9.37022C10.61 9.38896 10.2614 9.54444 10.0009 9.80634C9.74041 10.0682 9.58684 10.4178 9.57012 10.7868C9.5534 11.1558 9.67473 11.5178 9.91044 11.8021L11.4362 13.3393C11.493 13.3961 11.5249 13.4732 11.5249 13.5536C11.5249 13.6339 11.493 13.711 11.4362 13.7679C11.3793 13.8247 11.3022 13.8566 11.2219 13.8566C11.1415 13.8566 11.0644 13.8247 11.0076 13.7679L9.4533 12.2307C9.09063 11.8305 8.89634 11.3058 8.91092 10.7659C8.9255 10.226 9.14782 9.71251 9.53156 9.33245C9.91531 8.95239 10.4309 8.73503 10.9709 8.72566C11.5109 8.71629 12.0337 8.91562 12.4304 9.28214L14.7962 11.665Z" fill="white"/>
<path d="M13.5274 12.9279L13.2131 13.2479L13.1103 13.345L10.7274 10.9679C10.6706 10.911 10.6387 10.8339 10.6387 10.7536C10.6387 10.6732 10.6706 10.5961 10.7274 10.5393C10.7843 10.4825 10.8613 10.4505 10.9417 10.4505C11.0221 10.4505 11.0992 10.4825 11.156 10.5393L13.5274 12.9279Z" fill="white"/>
<path fill-rule="evenodd" clip-rule="evenodd" d="M73.1562 12.7964L69.6248 7.73356L69.2705 7.40784H72.7676L75.1276 11.2307L75.3162 11.0764L76.7391 8.95642C76.9174 8.72481 76.997 8.43216 76.9606 8.14215C76.9242 7.85213 76.7748 7.58822 76.5448 7.40784H79.8305L76.0305 12.7907V16.6993L76.6991 17.4993H72.5962L73.1676 16.7107C73.1676 15.4136 73.1219 14.0936 73.1676 12.7964H73.1562ZM63.5734 7.40784C63.7998 7.64238 63.9407 7.94632 63.9734 8.2707C63.9958 8.46439 63.9703 8.66063 63.8991 8.84213L61.2762 16.4536C61.1028 16.836 60.8472 17.1754 60.5276 17.4478H63.3848C63.175 17.2758 63.0332 17.0348 62.9848 16.7678C62.9332 16.5809 62.9332 16.3834 62.9848 16.1964L63.5562 14.3907H66.8876L67.4076 15.785C67.4601 15.9245 67.4928 16.0707 67.5048 16.2193C67.5387 16.4565 67.5071 16.6985 67.4135 16.919C67.3198 17.1396 67.1676 17.3304 66.9734 17.4707H71.4591C71.0168 17.1148 70.653 16.6712 70.3905 16.1678L67.1105 7.37927L63.5734 7.40784ZM66.4305 13.1221H64.0476L65.1905 9.8307L66.4191 13.1221H66.4305ZM54.4819 7.41356H59.4819C60.2074 7.41507 60.9027 7.70393 61.4157 8.21692C61.9287 8.7299 62.2176 9.42523 62.2191 10.1507V10.4878C62.2101 11.2064 61.9195 11.8927 61.4098 12.3992C60.9001 12.9057 60.2119 13.192 59.4934 13.1964L58.2419 13.2364C58.7106 12.9807 59.0876 12.5849 59.3202 12.1044C59.5528 11.6238 59.6293 11.0826 59.5391 10.5564C59.4419 9.7107 59.0076 8.89927 58.2819 8.88213H57.8248V16.3736C57.8227 16.494 57.8587 16.612 57.9276 16.7107C58.0647 16.9256 58.2175 17.1299 58.3848 17.3221L58.5162 17.4821H54.6305L54.7962 17.2593C54.918 17.0989 55.0197 16.9243 55.0991 16.7393C55.1493 16.632 55.1747 16.5148 55.1734 16.3964V8.33356C55.1562 7.9107 54.7391 7.6707 54.4819 7.41356Z" fill="#939CB7"/>
<path fill-rule="evenodd" clip-rule="evenodd" d="M33.4248 7.36215H36.5619L39.1962 14.9107L41.4305 8.6593C41.4713 8.47703 41.4384 8.28604 41.3391 8.12787C41.2191 7.87072 41.0877 7.62501 40.9619 7.37358H43.3048C43.1677 7.88215 42.9619 8.44215 42.7848 8.95644L39.7562 17.7679C38.847 17.6224 37.9962 17.2267 37.2991 16.625C36.8308 16.1212 36.4916 15.5114 36.3105 14.8479L33.7791 8.11072C33.6785 7.8533 33.5601 7.60318 33.4248 7.36215ZM45.9505 10.9107V16.305C45.9505 16.5222 46.0019 16.5622 46.1391 16.7393L46.7562 17.545H43.8019L44.2991 16.785C44.421 16.6373 44.4859 16.4508 44.4819 16.2593V8.71072L43.6534 7.36215H46.7162L51.6705 13.7679V8.68215C51.6759 8.48967 51.6132 8.30146 51.4934 8.15072C51.3277 7.89358 51.1505 7.64787 50.9848 7.39644H53.9105L53.3391 8.1793C53.2019 8.35072 53.1505 8.39072 53.1505 8.61358V17.7679C52.552 17.7368 51.9671 17.5774 51.4357 17.3003C50.9043 17.0233 50.4387 16.6351 50.0705 16.1622L45.9505 10.9107Z" fill="#939CB7"/>
</g>
<defs>
<clipPath id="clip0_9894_5973">
<rect width="79.04" height="24" fill="white" transform="translate(0.767578 0.625)"/>
</clipPath>
</defs>
</svg>
